<svg xmlns="http://www.w3.org/2000/svg" width="80" height="63.893" viewBox="0 0 80 63.893"><g transform="translate(-236.981 -2593.018)"><path d="M-59.716,264.857c.931,2.574,1.829,5.072,2.738,7.566q5.755,15.778,11.5,31.559c.268.74.549,1.116,1.42,1.055,1.04-.074,1.379.345,1.392,1.423.015,1.264.01,2.528,0,3.793s-.283,1.558-1.578,1.56q-9.225.009-18.449,0l-36.695,0c-1.677,0-1.882-.207-1.885-1.885,0-1.094-.006-2.187,0-3.28.009-1.322.315-1.625,1.631-1.638.372,0,.745,0,1.281,0l-12.579-33.616-.186.036v33.476c1.882.281,1.892.3,1.891,2.2,0,1.127,0,2.255.013,3.382a1.145,1.145,0,0,1-1.3,1.325q-4.51-.009-9.019,0c-.9,0-1.3-.468-1.287-1.347.011-1.093,0-2.187,0-3.28,0-1.988.017-2,2.016-2.279v-1.085q0-19.528.023-39.055a2.068,2.068,0,0,0-.835-1.811,8.5,8.5,0,0,1-2.56-9.293,8.463,8.463,0,0,1,8.07-5.716c4.578-.044,9.156-.014,13.734-.014l38.437,0a8.219,8.219,0,0,1,7.981,4.908A8.464,8.464,0,0,1-58.8,264.511ZM-108.3,262.8h39.778c2.323,0,4.646.029,6.968-.011a6.3,6.3,0,0,0,6.21-6.329,6.383,6.383,0,0,0-6.732-6.351q-22.544-.012-45.089,0c-.293,0-.587.026-1.1.05a8.882,8.882,0,0,1,2.707,6.255A8.9,8.9,0,0,1-108.3,262.8Zm-5.205,42.176V265.1l-3.047-.327v40.206Zm-.654-42.182a6.311,6.311,0,0,0,6.387-6.35,6.352,6.352,0,0,0-6.323-6.327,6.351,6.351,0,0,0-6.331,6.317A6.3,6.3,0,0,0-114.157,262.8Zm69.242,44.525H-98.982v2.239h54.067Zm-30.446-2.371c-.111-.355-.2-.678-.311-.99q-4.149-11.407-8.3-22.811-2.787-7.65-5.594-15.294c-.114-.31-.38-.749-.631-.79a13.561,13.561,0,0,0-2.134-.038c.077.319.1.453.142.576q7.054,18.959,14.115,37.915c.575,1.544.588,1.539,2.237,1.488C-75.706,305-75.573,304.975-75.36,304.949Zm9.326.06c-.2-.6-.358-1.08-.531-1.555q-4.972-13.656-9.948-27.31c-1.238-3.4-2.465-6.8-3.732-10.187-.134-.358-.459-.827-.772-.9a10.059,10.059,0,0,0-2.081-.042c.136.392.208.615.289.834q5.18,13.909,10.361,27.816c1.323,3.548,2.665,7.088,3.965,10.645a.879.879,0,0,0,1.041.7C-67.014,304.975-66.577,305.009-66.034,305.009Zm-7.726-39.871c.108.306.2.591.307.873q7,18.749,14,37.5c.624,1.671.774,1.755,2.633,1.35-.1-.324-.2-.647-.312-.963q-6.717-18.418-13.442-36.834c-.793-2.168-.82-2.157-2.96-2.023A1.428,1.428,0,0,0-73.76,265.138Zm9.249-.118c.15.454.242.77.358,1.079q7.012,18.752,14,37.514c.417,1.127.955,1.617,2.117,1.395.132-.025.268-.035.525-.067-.17-.516-.313-1-.484-1.467q-4.875-13.373-9.755-26.744c-1.322-3.624-2.632-7.252-3.979-10.867-.121-.325-.437-.746-.726-.8A11.073,11.073,0,0,0-64.51,265.02Zm-46.439,0c.56,1.5,1.071,2.871,1.583,4.24q6.386,17.076,12.777,34.151c.634,1.691.653,1.684,2.451,1.575.055,0,.105-.063.207-.127-.068-.211-.131-.435-.21-.653q-3.624-9.964-7.25-19.926-3.364-9.238-6.751-18.468a1.292,1.292,0,0,0-.758-.757A11.648,11.648,0,0,0-110.95,265.017Zm9.322.1c.553,1.49,1.08,2.925,1.616,4.357Q-93.6,286.591-87.19,303.7c.56,1.491.772,1.573,2.551,1.134-.336-.931-.668-1.855-1-2.779q-6.413-17.6-12.83-35.205c-.7-1.924-.724-1.916-2.788-1.827A2.823,2.823,0,0,0-101.628,265.12Zm-4.354.007c.095.294.177.583.28.866q6.8,18.651,13.606,37.3c.694,1.9.707,1.9,2.76,1.666.027,0,.051-.033.154-.1-.1-.323-.2-.678-.332-1.021q-7-18.687-14-37.371C-104.131,264.826-104.144,264.83-105.982,265.126Zm37.11-.029c.084.3.133.53.213.749q6.808,18.665,13.622,37.328c.734,2.011.74,2.009,2.963,1.751a7.3,7.3,0,0,0-.2-.775c-.667-1.792-1.348-3.578-2.018-5.368q-6.031-16.114-12.065-32.226C-66.98,264.9-66.481,264.91-68.872,265.1Zm-9.282.011c.118.363.2.653.3.936q1.7,4.669,3.4,9.336,5.087,13.953,10.178,27.9c.673,1.839.7,1.829,2.663,1.707a1.939,1.939,0,0,0,.3-.087c-.131-.38-.252-.762-.392-1.137q-6.982-18.658-13.966-37.315C-76.253,264.887-76.237,264.881-78.155,265.109Zm7.507,39.9c-.132-.443-.209-.768-.324-1.078q-6.977-18.708-13.96-37.414c-.631-1.691-.624-1.693-2.459-1.386.06.228.1.456.18.672q2.259,6.206,4.525,12.409,4.746,13.037,9.478,26.08c.192.532.437.79,1.024.727C-71.72,304.969-71.246,305.009-70.648,305.009Zm-9.292-.09c-.134-.4-.243-.751-.371-1.1Q-87.3,285.08-94.288,266.338c-.552-1.481-.77-1.6-2.4-1.144.045.161.081.326.138.482q6.867,18.841,13.74,37.679c.634,1.739.647,1.734,2.505,1.649A2.894,2.894,0,0,0-79.94,304.918Zm-38.624,4.651c.333.019.661.053.988.054,1.431.006,2.862,0,4.293,0,2.191,0,2.191,0,1.758-2.316-.245-.023-.507-.068-.77-.069-2.069-.006-4.137,0-6.269,0Z" transform="translate(359.637 2345.095)" fill="#1faabc"/><path d="M-56.217,259.089c2.322,0,4.645.009,6.967-.005.773,0,1.413.193,1.431,1.076s-.6,1.16-1.373,1.161q-7.12.006-14.24,0c-.728,0-1.311-.275-1.322-1.1-.013-.887.574-1.139,1.366-1.136C-61,259.1-58.607,259.09-56.217,259.089Z" transform="translate(325.524 2338.52)" fill="#1faabc"/><path d="M-9.021,259.042c.477,0,.954-.016,1.43,0,.677.027,1.2.4,1.08,1.061a1.559,1.559,0,0,1-.934,1.087,10.971,10.971,0,0,1-3.146-.01,1.43,1.43,0,0,1-.867-1.114c.02-.359.595-.811,1.023-.989A3.957,3.957,0,0,1-9.021,259.042Z" transform="translate(294.125 2338.573)" fill="#1faabc"/></g></svg>