<svg xmlns="http://www.w3.org/2000/svg" width="80.997" height="64.894" viewBox="0 0 80.997 64.894"><g transform="translate(805.278 -3376.058)"><path d="M59.965,63.893l-36.695,0c-1.677,0-1.882-.207-1.885-1.885,0-1.094-.006-2.187,0-3.28.009-1.322.315-1.625,1.631-1.638.372,0,.745,0,1.281,0L11.719,23.47l-.186.036V56.983c1.882.282,1.892.3,1.891,2.2,0,1.127,0,2.255.012,3.382a1.145,1.145,0,0,1-1.3,1.325q-4.509-.009-9.019,0c-.9,0-1.3-.468-1.287-1.346.011-1.093,0-2.186,0-3.28,0-1.988.017-2.005,2.016-2.278V55.9q0-19.527.023-39.055a2.069,2.069,0,0,0-.835-1.812A8.5,8.5,0,0,1,8.541.024C13.118-.02,17.7.01,22.275.01l38.438,0a8.219,8.219,0,0,1,7.981,4.908,8.464,8.464,0,0,1-4.835,11.667l-.918.346c.932,2.574,1.829,5.072,2.739,7.566q5.755,15.778,11.5,31.558c.268.74.549,1.116,1.42,1.055,1.04-.073,1.379.345,1.391,1.423.015,1.263.01,2.528,0,3.792-.008,1.28-.283,1.559-1.578,1.56q-6.456.007-12.914,0ZM4.093,59.314v2.332c.333.019.661.053.988.054,1.431.006,2.862,0,4.292,0,2.192,0,2.192,0,1.758-2.316-.245-.023-.507-.068-.77-.069-1.114,0-2.228,0-3.351,0Zm19.581,2.322H77.742V59.4H23.674ZM6.106,57.054H9.153V17.175l-3.047-.326Zm55-42.188a6.3,6.3,0,0,0,6.21-6.329,6.383,6.383,0,0,0-6.732-6.352q-22.544-.012-45.089,0c-.294,0-.587.026-1.1.05A8.882,8.882,0,0,1,17.1,8.49a8.9,8.9,0,0,1-2.739,6.388H54.137C56.459,14.878,58.782,14.907,61.1,14.867ZM2.233,8.513A6.327,6.327,0,1,0,8.564,2.2H8.555A6.35,6.35,0,0,0,2.233,8.513ZM46.552,6.737a1.429,1.429,0,0,1-.867-1.114c.019-.359.595-.811,1.023-.989a2.134,2.134,0,0,1,.967-.061c.151.012.3.025.448.025.477,0,.954-.016,1.43,0,.677.027,1.2.4,1.08,1.061A1.558,1.558,0,0,1,49.7,6.747a10.972,10.972,0,0,1-1.544.108A10.782,10.782,0,0,1,46.552,6.737Zm-21.441.085c-.728,0-1.311-.275-1.322-1.1-.013-.887.574-1.139,1.367-1.136,2.39.011,4.78,0,7.171,0,2.322,0,4.645.009,6.967-.005.773,0,1.413.193,1.431,1.076s-.6,1.16-1.374,1.161q-3.85,0-7.7,0Q28.38,6.826,25.111,6.822Z" transform="translate(-804.781 3376.558)" fill="#fb7e54"/><path d="M65.5,64.393H59.965l-36.695,0a2.633,2.633,0,0,1-1.924-.46,2.644,2.644,0,0,1-.461-1.925v-.5c0-.913,0-1.857,0-2.786.011-1.6.527-2.119,2.126-2.135.182,0,.364,0,.565,0L12.033,25.736V56.554a2.341,2.341,0,0,1,1.531.6c.361.421.361.994.36,2.036,0,1,0,2.188.012,3.377a1.829,1.829,0,0,1-.461,1.358,1.8,1.8,0,0,1-1.336.472h-.007c-1.4,0-2.917,0-4.764,0H3.115a1.781,1.781,0,0,1-1.32-.47,1.861,1.861,0,0,1-.467-1.382c.007-.716,0-1.446,0-2.152q0-.561,0-1.123c0-1.083,0-1.68.384-2.113a2.5,2.5,0,0,1,1.631-.6V55.9q0-3.747,0-7.494c0-10.345,0-21.041.021-31.562a1.581,1.581,0,0,0-.653-1.425A8.792,8.792,0,0,1-.179,10.9,9.027,9.027,0,0,1,3.264,1.194,9.177,9.177,0,0,1,8.536-.476C10.228-.492,12.061-.5,14.3-.5c1.329,0,2.68,0,3.987.005s2.656.005,3.984.005H60.712A9.553,9.553,0,0,1,65.747.8a8.93,8.93,0,0,1,3.4,3.9,8.88,8.88,0,0,1-1.814,10.275,9.427,9.427,0,0,1-3.3,2.076l-.455.172.738,2.044c.628,1.739,1.221,3.381,1.832,5.057q1.51,4.141,3.022,8.281c2.784,7.627,5.664,15.514,8.478,23.278.232.641.373.732.774.732.044,0,.091,0,.141-.005.088-.006.174-.009.254-.009,1.479,0,1.663,1.1,1.673,1.926.015,1.292.01,2.591,0,3.8a1.707,1.707,0,0,1-2.078,2.056C74.081,64.393,69.659,64.393,65.5,64.393ZM23.428,57.585l-.406,0c-.534.005-.838.063-.956.181s-.176.424-.179.96c-.006.925,0,1.867,0,2.777V62a2.5,2.5,0,0,0,.168,1.22,2.489,2.489,0,0,0,1.217.167l36.695,0H65.5c4.158,0,8.581,0,12.913,0,.189,0,.764,0,.92-.155s.158-.721.159-.908c.008-1.206.013-2.5,0-3.783a1.423,1.423,0,0,0-.158-.787c-.032-.041-.118-.15-.515-.15-.057,0-.119,0-.184.007s-.144.008-.211.008a1.706,1.706,0,0,1-1.714-1.391c-2.814-7.763-5.693-15.649-8.477-23.276q-1.512-4.141-3.022-8.281c-.612-1.678-1.205-3.321-1.833-5.06q-.449-1.244-.906-2.507l-.168-.464.87-.328.511-.192a8.146,8.146,0,0,0,4.789-4.585,7.866,7.866,0,0,0-.23-6.4A7.728,7.728,0,0,0,60.712.512H22.275c-1.329,0-2.68,0-3.986-.005S15.632.5,14.3.5c-2.239,0-4.069.008-5.758.024a8,8,0,0,0-5.2,14.123,2.556,2.556,0,0,1,1.017,2.2c-.018,10.52-.019,21.216-.021,31.56q0,3.747,0,7.494v1.522l-.432.059a3.705,3.705,0,0,0-1.45.332,3.56,3.56,0,0,0-.133,1.451q0,.56,0,1.119c0,.709,0,1.443,0,2.165a.936.936,0,0,0,.178.668.846.846,0,0,0,.607.173H7.368c1.848,0,3.363,0,4.766,0h.005a.875.875,0,0,0,.625-.176.9.9,0,0,0,.172-.644c-.012-1.194-.013-2.383-.012-3.388a3.554,3.554,0,0,0-.119-1.384,3.516,3.516,0,0,0-1.346-.323l-.426-.064V23.095l1.006-.2.148.4L24.767,56.911l.253.675H23.428ZM6.917,62.2c-.712,0-1.3,0-1.838,0-.239,0-.474-.018-.7-.034-.1-.007-.208-.015-.313-.021l-.472-.027v-3.3H7.011c1.356,0,2.39,0,3.353,0a5.148,5.148,0,0,1,.6.047c.074.009.147.018.219.024l.375.035.069.37c.256,1.365.372,1.987-.014,2.452s-1,.455-2.236.456ZM4.593,61.179c.168.012.33.021.49.021.541,0,1.124,0,1.834,0l2.456,0a5.312,5.312,0,0,0,1.466-.1,4.1,4.1,0,0,0-.132-1.265,3.248,3.248,0,0,0-.347-.024c-.962,0-1.995,0-3.35,0H4.593Zm73.649.957H23.174V58.9H78.242Zm-54.067-1H77.242V59.9H24.174ZM9.653,57.554H5.606V16.293l.553.059,3.047.326.447.048Zm-3.047-1H8.653V17.625l-2.047-.219ZM58.229,15.388c-.683,0-1.377,0-2.048,0s-1.363,0-2.044,0H13.2l.794-.843a8.418,8.418,0,0,0,2.6-6.043,8.336,8.336,0,0,0-2.57-5.914l-.748-.792,1.088-.051c.182-.009.335-.017.471-.025.252-.014.452-.026.655-.026h6.646l18.5,0c7.6,0,13.936,0,19.945,0a7.447,7.447,0,0,1,5.159,1.951,6.672,6.672,0,0,1,2.072,4.9,6.8,6.8,0,0,1-6.7,6.829C60.264,15.381,59.348,15.388,58.229,15.388Zm-4.092-1.01h0c.683,0,1.377,0,2.048,0s1.363,0,2.044,0c1.113,0,2.024-.007,2.867-.021a5.778,5.778,0,0,0,5.718-5.828c0-3.389-2.624-5.85-6.232-5.852-6.009,0-12.347,0-19.945,0l-18.5,0H15.447a9.077,9.077,0,0,1,2.15,5.8,8.99,8.99,0,0,1-2.14,5.891H54.137Zm-45.593.995H8.5A6.8,6.8,0,0,1,1.733,8.511,6.842,6.842,0,0,1,8.555,1.7h.008a6.839,6.839,0,1,1-.02,13.677ZM8.555,2.7A5.839,5.839,0,0,0,8.5,14.373h.041A5.839,5.839,0,0,0,8.563,2.7Zm39.6,4.66a11.292,11.292,0,0,1-1.677-.124A1.862,1.862,0,0,1,45.186,5.6c.035-.648.834-1.217,1.33-1.423a1.814,1.814,0,0,1,.714-.124c.164,0,.326.013.482.026s.285.023.411.023l.409,0c.16,0,.32,0,.48,0,.214,0,.392,0,.561.01a1.711,1.711,0,0,1,1.3.576,1.3,1.3,0,0,1,.252,1.072,2.006,2.006,0,0,1-1.356,1.493A11.48,11.48,0,0,1,48.155,7.356ZM46.639,6.245a10.521,10.521,0,0,0,2.984.008,1.243,1.243,0,0,0,.518-.681.307.307,0,0,0-.048-.269.786.786,0,0,0-.561-.2c-.155-.006-.321-.009-.521-.009-.156,0-.313,0-.469,0l-.418,0c-.168,0-.332-.013-.49-.026s-.28-.023-.4-.023a.885.885,0,0,0-.33.048,1.668,1.668,0,0,0-.713.561A1.216,1.216,0,0,0,46.639,6.245ZM31.65,7.326c-2.163,0-4.363,0-6.54,0-1.127,0-1.808-.6-1.822-1.592A1.558,1.558,0,0,1,23.7,4.567a1.922,1.922,0,0,1,1.438-.48h.019c.926,0,1.933.006,3.168.006l4,0,3.851,0c1.22,0,2.209,0,3.113-.008h.029c1.548,0,1.891.851,1.906,1.565a1.553,1.553,0,0,1-.415,1.166,1.962,1.962,0,0,1-1.458.506Q35.5,7.325,31.65,7.326ZM25.138,5.087a1.065,1.065,0,0,0-.726.182.616.616,0,0,0-.124.447c0,.226.008.605.823.607,2.176,0,4.376,0,6.538,0q3.85,0,7.7,0a1.073,1.073,0,0,0,.744-.2.554.554,0,0,0,.131-.446c-.006-.275-.012-.586-.906-.586H39.3c-.905.005-1.9.008-3.119.008l-3.851,0-4,0c-1.237,0-2.245,0-3.173-.006Z" transform="translate(-804.781 3376.558)" fill="rgba(0,0,0,0)"/></g></svg>