<svg xmlns="http://www.w3.org/2000/svg" width="41" height="41.001" viewBox="0 0 41 41.001"><g transform="translate(0.5 0.5)"><g transform="translate(0)"><path d="M202.784,228.572a20,20,0,1,1,19.988,19.993A19.99,19.99,0,0,1,202.784,228.572Zm23.752,5.593V246.99a18.806,18.806,0,1,0-1.2.206V246.7q0-6.405,0-12.811c0-.771.133-.9.915-.9.872,0,1.745-.012,2.617.007.28.006.381-.092.441-.354.213-.924.453-1.843.682-2.764.055-.222.107-.445.173-.723h-1.414c-.924,0-1.849.008-2.773-.007a.568.568,0,0,1-.633-.59c0-.352.231-.556.645-.576.052,0,.1,0,.156,0,1.263,0,2.526,0,3.789,0a1.227,1.227,0,0,1,1.322,1.685c-.27,1.085-.543,2.169-.811,3.254-.238.966-.588,1.243-1.588,1.243Z" transform="translate(-202.784 -208.565)" fill="#fff"/><path d="M222.787,249.066h-.016a20.5,20.5,0,1,1,.014-41h.01a20.5,20.5,0,1,1-.009,41Zm0-40a19.5,19.5,0,0,0-.013,39h.015a19.5,19.5,0,0,0,.008-39Zm-.082,38.821a19.323,19.323,0,0,1-10-35.821,19.107,19.107,0,0,1,7.388-2.636,20.1,20.1,0,0,1,2.74-.19,19.278,19.278,0,0,1,19.1,16.751,19.543,19.543,0,0,1-.552,7.884,19.314,19.314,0,0,1-14.755,13.608l-.589.107V233.666h2.818c.765,0,.92-.121,1.1-.863q.241-.976.485-1.95.163-.652.325-1.3a1.1,1.1,0,0,0-.016-.707l-.1.434-.064.267c-.039.164-.074.312-.111.46q-.1.405-.2.81c-.161.638-.327,1.3-.477,1.946a.855.855,0,0,1-.9.742h-.035c-.337-.007-.7-.011-1.155-.011l-.767,0-.683,0a1.916,1.916,0,0,0-.39.026,1.866,1.866,0,0,0-.025.376q0,4.766,0,9.531v4.2l-.428.062A18.859,18.859,0,0,1,222.7,247.886Zm.126-37.647a19.1,19.1,0,0,0-2.6.18,18.323,18.323,0,0,0,2.477,36.466,17.862,17.862,0,0,0,2.129-.128v-3.334q0-4.766,0-9.531a1.457,1.457,0,0,1,.313-1.1,1.5,1.5,0,0,1,1.1-.306l.68,0,.771,0c.437,0,.8,0,1.128.01.15-.647.314-1.3.473-1.931q.1-.4.2-.807l.025-.1h-.9l-1.309,0c-.544,0-.96,0-1.348-.009a1.083,1.083,0,1,1,0-2.165l.1,0h1.149q1.362,0,2.723,0a1.718,1.718,0,0,1,1.806,2.305q-.162.653-.326,1.306-.243.974-.485,1.948a1.8,1.8,0,0,1-2.073,1.623h-1.818v11.713a18.32,18.32,0,0,0-4.206-36.14Zm3.02,18.385a.245.245,0,0,0,.132.026c.382.006.793.009,1.331.009l1.309,0H230.6a1.144,1.144,0,0,0-.671-.174q-1.361,0-2.721,0h-1.2a.368.368,0,0,0-.164.034.178.178,0,0,0,0,.045.139.139,0,0,0,.009.06Z" transform="translate(-202.784 -208.565)" fill="#fff"/><path d="M279.774,274.624h-3.5c-1.065,0-1.511-.45-1.511-1.524,0-1.094,0-2.187,0-3.281a1.241,1.241,0,0,1,1.376-1.377c1.055,0,2.109,0,3.164,0h.471c0-.2,0-.348,0-.5.014-1.536-.035-3.075.054-4.607a7.362,7.362,0,0,1,6.555-6.723c1.54-.122,3.1-.072,4.644-.07a1.178,1.178,0,0,1,1.2,1.2q.033,1.894,0,3.789a1.186,1.186,0,0,1-1.244,1.185c-.768.012-1.536,0-2.3,0a1.3,1.3,0,0,0-1.452,1.446c0,.69-.015,3.777-.016,4.467a2.393,2.393,0,0,1-.011.312.566.566,0,0,1-.595.547.537.537,0,0,1-.559-.575c-.009-.937-.023-4.274.037-5.208a2.421,2.421,0,0,1,2.459-2.161c.819-.015,1.638,0,2.489,0v-3.78c-.036-.02-.058-.042-.079-.042-1.431.007-2.873-.091-4.292.047a6.218,6.218,0,0,0-5.7,6.319c-.014,1.536,0,3.073,0,4.609,0,.776-.141.919-.9.92q-1.816,0-3.633,0h-.448v3.811c.145.008.284.021.423.021,1.25,0,2.5,0,3.75,0,.645,0,.812.167.813.808,0,3.606.038,9.154.037,12.76a1.7,1.7,0,0,1-.022.35.489.489,0,0,1-.548.444,1.031,1.031,0,0,1-.548-.4c-.086-.112-.053-.325-.054-.493,0-3.281-.039-8.5-.039-11.784Z" transform="translate(-263.497 -249.023)" fill="#fff"/><path d="M280.5,288.32a.968.968,0,0,1-.17-.015,1.533,1.533,0,0,1-.856-.586,1.026,1.026,0,0,1-.16-.705c0-.032,0-.063,0-.092,0-1.563-.01-3.61-.019-5.59-.01-2.2-.02-4.475-.02-6.194v-.013h-3a1.789,1.789,0,0,1-2.011-2.024v-.822c0-.806,0-1.64,0-2.461a1.73,1.73,0,0,1,1.875-1.875q1.115,0,2.23,0h.906v0c0-.474,0-.958,0-1.427,0-1.049-.008-2.134.054-3.2a7.875,7.875,0,0,1,7.015-7.192c.932-.074,1.859-.083,2.563-.083.365,0,.736,0,1.094.006.337,0,.686.005,1.027.006a1.677,1.677,0,0,1,1.7,1.69c.023,1.308.023,2.589,0,3.807a1.691,1.691,0,0,1-1.736,1.675c-.254,0-.532.006-.875.006l-1.072,0h-.363c-.674,0-.95.279-.955.949s-.015,3.749-.016,4.464v.048a2.358,2.358,0,0,1-.015.329,1.057,1.057,0,0,1-1.1.981,1.035,1.035,0,0,1-1.048-1.07c-.006-.664-.026-4.245.038-5.244a2.7,2.7,0,0,1,.942-1.871,3.139,3.139,0,0,1,2.006-.758c.283-.005.585-.008.951-.008l.763,0h.284V258.22c-.308,0-.616-.008-.917-.013-.382-.007-.778-.014-1.164-.014-.685,0-1.239.023-1.742.072a5.718,5.718,0,0,0-5.252,5.826c-.009,1.031-.007,2.08,0,3.1q0,.755,0,1.51c0,1.06-.355,1.419-1.4,1.42h-3.582v2.833h3.674c.919,0,1.311.393,1.311,1.308,0,1.719.01,3.927.018,6.062.009,2.365.019,4.811.019,6.7v.027a1.974,1.974,0,0,1-.032.426A1,1,0,0,1,280.5,288.32Zm-.19-1.158a.774.774,0,0,0,.157.138.277.277,0,0,0,.01-.035,1.221,1.221,0,0,0,.011-.217v-.029c0-1.885-.009-4.33-.019-6.694-.009-2.136-.017-4.344-.018-6.065a1.2,1.2,0,0,0-.023-.284,1.217,1.217,0,0,0-.29-.024h-3.749c-.111,0-.217-.007-.32-.014l-.129-.008-.47-.025a1.067,1.067,0,0,0,.807.222h4v1.013c0,1.717.01,3.991.02,6.19.009,1.981.018,4.03.019,5.594,0,.042,0,.087,0,.132S280.307,287.129,280.307,287.162Zm-4.844-18a.926.926,0,0,0-.2.658c0,.819,0,1.651,0,2.457v.822a1.148,1.148,0,0,0,.2.8Zm.05-.046h4.531a1.674,1.674,0,0,0,.377-.028,1.729,1.729,0,0,0,.029-.393q0-.753,0-1.507c0-1.018,0-2.07,0-3.107a7,7,0,0,1,1.737-4.628,6.776,6.776,0,0,1,4.418-2.185c.536-.052,1.12-.076,1.839-.076.395,0,.795.007,1.182.014.433.008.88.016,1.317.013a.574.574,0,0,1,.327.106l0,0,.252.139v4.543a.683.683,0,0,0,.2-.491c.023-1.206.024-2.475,0-3.77a.68.68,0,0,0-.7-.707c-.345,0-.7,0-1.034-.006-.356,0-.725-.006-1.086-.006-.685,0-1.587.009-2.484.08a6.845,6.845,0,0,0-6.1,6.253c-.06,1.04-.056,2.109-.053,3.143,0,.471,0,.959,0,1.439,0,.1,0,.2,0,.308v.687h-2.843l-1.29,0A.966.966,0,0,0,275.513,269.116Zm11.039-.137a.157.157,0,0,0,.059.01h.005c.044,0,.068,0,.083-.113a1.565,1.565,0,0,0,.006-.194v-.053c0-.716.011-3.794.016-4.47a1.8,1.8,0,0,1,1.95-1.942c.3,0,.6,0,.905,0h.535c.337,0,.61,0,.859-.006a.819.819,0,0,0,.518-.17h-.463l-.789,0-.759,0c-.359,0-.656,0-.932.007a1.933,1.933,0,0,0-1.969,1.693c-.057.9-.046,4.1-.036,5.171A.184.184,0,0,0,286.552,268.979Z" transform="translate(-263.497 -249.023)" fill="#fff"/></g></g></svg>