<svg xmlns="http://www.w3.org/2000/svg" width="59.815" height="81" viewBox="0 0 59.815 81"><g transform="translate(17.165 -0.532)"><g transform="translate(-16.668 1.032)"><path d="M47.925,179.818c-1.531-1.563-3.136-3.063-4.589-4.7a128.506,128.506,0,0,1-15.922-21.694,62.232,62.232,0,0,1-7.32-18.507c-1.21-6.037-1.22-12.033,1.059-17.853a25.125,25.125,0,0,1,15-14.728c10.237-3.93,20.293-3.354,29.751,2.367A24.456,24.456,0,0,1,77.729,122.63a37.11,37.11,0,0,1-1.5,16.6c-2.383,7.911-6.37,15.024-11.016,21.788A152.586,152.586,0,0,1,50.7,178.837a7.985,7.985,0,0,1-1.37.981Zm.888-6.032c3.4-4.221,6.764-8.218,9.915-12.376a80.894,80.894,0,0,0,11.452-20c2.077-5.435,3.4-11.011,2.731-16.887-.789-7.024-4.143-12.475-10.3-15.974a27.9,27.9,0,0,0-22.063-2.424c-6.11,1.713-10.959,5.16-13.892,10.938-2.487,4.9-2.757,10.107-1.9,15.423A52.793,52.793,0,0,0,30.54,148.67a111.26,111.26,0,0,0,13.316,19.348C45.418,169.892,47.033,171.719,48.813,173.785Z" transform="translate(-19.286 -99.818)" fill="#1faabc"/><path d="M49.489,180.318H47.715l-.147-.15c-.489-.5-.995-1-1.484-1.486-1.044-1.036-2.124-2.107-3.122-3.23A128.855,128.855,0,0,1,26.98,153.672,61.952,61.952,0,0,1,19.6,135.016c-1.37-6.84-1.016-12.772,1.084-18.133a25.574,25.574,0,0,1,15.289-15.012A36.432,36.432,0,0,1,49.03,99.318a32.784,32.784,0,0,1,17.137,4.959,24.913,24.913,0,0,1,12.056,18.276,37.53,37.53,0,0,1-1.51,16.823c-2.12,7.038-5.641,14.005-11.083,21.927a152.5,152.5,0,0,1-14.562,17.875,4.749,4.749,0,0,1-1.028.778c-.149.092-.289.18-.422.272Zm-1.354-1h1.044c.111-.073.224-.143.333-.211a3.956,3.956,0,0,0,.823-.609,151.537,151.537,0,0,0,14.47-17.76c5.381-7.834,8.86-14.713,10.949-21.649a36.558,36.558,0,0,0,1.48-16.38,23.953,23.953,0,0,0-11.585-17.575,31.8,31.8,0,0,0-16.62-4.815A35.438,35.438,0,0,0,36.336,102.8,24.611,24.611,0,0,0,21.62,117.248c-2.028,5.178-2.366,10.926-1.034,17.572a60.991,60.991,0,0,0,7.264,18.358A127.875,127.875,0,0,0,43.71,174.787c.977,1.1,2.045,2.159,3.079,3.184C47.232,178.411,47.688,178.864,48.135,179.318Zm.691-4.751-.392-.455q-.822-.954-1.6-1.848c-1.172-1.35-2.278-2.625-3.363-3.925A110.277,110.277,0,0,1,30.1,148.9a52.685,52.685,0,0,1-5.84-16.34c-.979-6.073-.341-11.218,1.948-15.729a20.8,20.8,0,0,1,5.9-7.164,24.329,24.329,0,0,1,8.307-4.03,31.944,31.944,0,0,1,8.614-1.238,27.743,27.743,0,0,1,13.831,3.708c6.179,3.508,9.73,9.01,10.555,16.353.589,5.21-.288,10.65-2.76,17.122a81.088,81.088,0,0,1-11.521,20.126c-2.183,2.881-4.422,5.625-6.793,8.531C51.31,171.5,50.251,172.8,49.2,174.1Zm.2-69.164a30.947,30.947,0,0,0-8.344,1.2c-6.312,1.77-10.881,5.364-13.581,10.683-2.19,4.316-2.8,9.261-1.852,15.117a51.726,51.726,0,0,0,5.737,16.033A109.314,109.314,0,0,0,44.239,167.7c1.078,1.293,2.182,2.565,3.35,3.911q.591.681,1.211,1.4c.926-1.148,1.856-2.288,2.759-3.394,2.365-2.9,4.6-5.637,6.771-8.5a80.11,80.11,0,0,0,11.383-19.878c2.413-6.316,3.271-11.608,2.7-16.653-.787-7.007-4.17-12.254-10.055-15.595A26.755,26.755,0,0,0,49.022,105.4Z" transform="translate(-19.286 -99.818)" fill="#1faabc"/><path d="M49.925,116.658A13.817,13.817,0,1,1,36.07,102.849,13.812,13.812,0,0,1,49.925,116.658Zm-5.062-.016a8.755,8.755,0,1,0-8.732,8.815A8.766,8.766,0,0,0,44.864,116.642Z" transform="translate(-6.688 -87.112)" fill="#1faabc"/><path d="M36.206,130.946A14.4,14.4,0,0,1,26,126.773a14.312,14.312,0,0,1,10.065-24.424H36.1a14.348,14.348,0,0,1,14.327,14.308,14.106,14.106,0,0,1-1.12,5.536,14.437,14.437,0,0,1-7.568,7.618,13.921,13.921,0,0,1-5.512,1.135Zm-.108-27.6h-.028a13.331,13.331,0,0,0-13.279,13.314,13.123,13.123,0,0,0,3.915,9.4,13.4,13.4,0,0,0,9.5,3.883h.019a13.3,13.3,0,0,0-.126-26.6Zm.005,22.608a9.284,9.284,0,0,1-.022-18.567h.06a9.284,9.284,0,0,1-.008,18.568Zm.038-17.568h-.053a8.284,8.284,0,0,0,.015,16.567h.027a8.284,8.284,0,0,0,.011-16.568Z" transform="translate(-6.688 -87.112)" fill="#1faabc"/></g></g></svg>