<svg xmlns="http://www.w3.org/2000/svg" width="99.173" height="100" viewBox="0 0 99.173 100"><g transform="translate(340.098 -2491.557)"><g transform="translate(-340.098 2491.557)"><path d="M-215.966,2582.231v-11.27h-4.812c-.058.169-.117.383-.2.586a1.553,1.553,0,0,1-1.808.994,1.494,1.494,0,0,1-1.358-1.442,11.884,11.884,0,0,1-.005-1.95,1.59,1.59,0,0,1,1.691-1.553q4.05-.061,8.1,0c1.213.019,1.743.672,1.746,1.989.009,4.914.022,9.829-.014,14.743a2.162,2.162,0,0,0,.829,1.834c1.208,1.04,2.36,2.144,3.515,3.243a1.621,1.621,0,0,1,.227,2.482,1.629,1.629,0,0,1-2.494-.075c-.606-.54-1.206-1.087-1.81-1.63-.021-.018-.062-.014-.248-.05v1.031q0,11.814,0,23.627c0,1.919-.443,2.366-2.339,2.367q-7.322,0-14.645,0h-1.189v1.127c0,3.612.009,7.225,0,10.838-.017,5.2-3.509,8.7-8.7,8.7q-18.55.008-37.1,0a8.3,8.3,0,0,1-8.726-8.688q-.008-3.368,0-6.737c.006-1.273.6-1.96,1.659-1.957s1.647.691,1.652,1.969c.01,2.343-.009,4.687.007,7.03a4.866,4.866,0,0,0,5.034,5.063q18.941.018,37.881,0a4.78,4.78,0,0,0,4.96-4.818c.055-4,.017-8.006.016-12.009a4.348,4.348,0,0,0-.079-.515h-1.035q-7.42,0-14.84,0c-1.682,0-2.215-.535-2.216-2.223q-.005-10.2,0-20.406a3.747,3.747,0,0,1,.125-1.057,1.474,1.474,0,0,1,1.65-1.084,1.451,1.451,0,0,1,1.5,1.387c.063.809.032,1.626.032,2.44q0,8.2,0,16.4v1.145h33.04v-1.026c0-8.332.008-16.663-.021-24.994a2.044,2.044,0,0,0-.5-1.358q-7.758-7.282-15.581-14.5c-.116-.108-.246-.2-.433-.35-1.258,1.164-2.5,2.3-3.73,3.451q-8.869,8.24-17.738,16.48a4.46,4.46,0,0,1-.91.728,1.5,1.5,0,0,1-2-.44,1.49,1.49,0,0,1-.064-1.974,5.894,5.894,0,0,1,.754-.762q11.12-10.335,22.244-20.666c1.1-1.019,1.835-1.023,2.951.01q7.055,6.535,14.1,13.082C-216.612,2581.66-216.369,2581.871-215.966,2582.231Z" transform="translate(306.749 -2537.824)" fill="#ef7d57"/><path d="M-334.927,2612.9h5.649c.191-2.725.38-5.4.576-8.185-2.143,0-4.185.008-6.226,0-1.2-.006-1.835-.514-1.916-1.492a1.564,1.564,0,0,1,1.4-1.793,6.679,6.679,0,0,1,.975-.027h34.855c1.825,0,2.23.328,2.491,2.109q1.137,7.77,2.251,15.542c.186,1.293-.334,2.107-1.414,2.241-1.027.128-1.695-.5-1.874-1.765-.123-.869-.222-1.744-.4-2.6-.05-.242-.331-.617-.514-.623-1.748-.047-3.5-.028-5.371-.028.037.772.058,1.444.1,2.114.112,1.655.284,3.309.334,4.966.027.888.253,1.247,1.229,1.211,2.177-.08,4.36-.026,6.54-.023a7.614,7.614,0,0,1,.974.041,1.538,1.538,0,0,1,1.408,1.586,1.536,1.536,0,0,1-1.364,1.625,8.476,8.476,0,0,1-1.169.048q-8.836,0-17.672,0h-1.218v6.6c.817,0,1.619,0,2.42,0,.911.006,1.827-.036,2.731.047a1.544,1.544,0,0,1,1.425,1.678,1.5,1.5,0,0,1-1.535,1.561q-6.736.038-13.473,0a1.541,1.541,0,0,1-1.553-1.562,1.572,1.572,0,0,1,1.428-1.681,13.418,13.418,0,0,1,1.657-.043c1.133-.005,2.267,0,3.46,0v-6.6h-1.156q-8.934,0-17.867,0c-2.076,0-2.577-.627-2.275-2.7.745-5.116,1.461-10.236,2.195-15.354.185-1.288.926-1.938,1.973-1.758.972.167,1.47,1.049,1.288,2.255C-334.688,2611.119-334.8,2611.955-334.927,2612.9Zm16.218,3.368c-2.251,0-4.393.04-6.533-.02-.839-.024-1.081.279-1.042,1.054a13.342,13.342,0,0,1-.1,1.554c-.125,1.863-.248,3.727-.374,5.63h8.052Zm3.419,8.208h8.064c-.18-2.623-.347-5.179-.55-7.732a.669.669,0,0,0-.467-.451c-2.332-.03-4.663-.02-7.046-.02Zm-3.444-11.579v-8.127h-6.646c-.189,2.719-.376,5.39-.566,8.127Zm3.424-.007h7.26c-.194-2.745-.384-5.418-.575-8.108h-6.684Zm-20.115,3.434-1.156,8.144h6.475c.191-2.735.378-5.408.569-8.144Zm30.135-11.558c.191,2.732.378,5.407.567,8.1h5.608l-1.163-8.1Z" transform="translate(340.098 -2558.418)" fill="#ef7d57"/><path d="M-315.8,2498.844c-.684,4.554-1.254,5.376-4.895,6.93a6.257,6.257,0,0,1-.048,7.989c3.438,1.037,4.925,3.416,4.855,6.975,3.181-.639,5.844.049,7.812,2.814,1.986-2.73,4.626-3.481,7.812-2.805-.028-3.53,1.4-5.955,4.875-6.973a6.246,6.246,0,0,1-.008-8.026c-3.48-1.035-4.929-3.47-4.854-6.969-.491.069-.87.133-1.251.173a8.047,8.047,0,0,1-8.081-5.092,1.636,1.636,0,0,1,.818-2.135,1.615,1.615,0,0,1,2.159.75c.113.2.187.415.3.615a4.482,4.482,0,0,0,5.138,2.421c.759-.156,1.494-.433,2.238-.661a1.659,1.659,0,0,1,2.208,1.861,25.882,25.882,0,0,0-.137,3.1,2.7,2.7,0,0,0,2.157,2.679c.807.235,1.677.272,2.461.557.528.192,1.213.577,1.359,1.027a2.476,2.476,0,0,1-.367,1.763c-.523.886-1.272,1.636-1.845,2.5a2.455,2.455,0,0,0,0,2.851,19.355,19.355,0,0,0,1.752,2.327,1.819,1.819,0,0,1,.514,1.951,1.7,1.7,0,0,1-1.6,1.08c-3.9.422-4.9,1.7-4.418,5.59.028.226.077.449.106.674a1.652,1.652,0,0,1-2.206,1.865,18.9,18.9,0,0,0-2.426-.7,4.453,4.453,0,0,0-5.022,2.633c-.355.718-.754,1.289-1.639,1.3-.932.017-1.348-.573-1.723-1.326a4.6,4.6,0,0,0-5.613-2.524c-.566.138-1.115.347-1.668.538a1.667,1.667,0,0,1-2.353-1.916,21.043,21.043,0,0,0,.113-3,2.69,2.69,0,0,0-2.085-2.636,15.906,15.906,0,0,0-2.373-.5,1.735,1.735,0,0,1-1.583-1.1,1.74,1.74,0,0,1,.472-1.873,19.556,19.556,0,0,0,1.587-1.97,2.978,2.978,0,0,0-.015-3.716,13.962,13.962,0,0,0-1.391-1.754,1.879,1.879,0,0,1-.644-2.093c.306-.821,1.027-.98,1.8-1.094a13.236,13.236,0,0,0,2.27-.524,2.619,2.619,0,0,0,1.949-2.529,20.007,20.007,0,0,0-.09-3.005,1.7,1.7,0,0,1,2.284-2.029,39.745,39.745,0,0,0,4.378.754,1.65,1.65,0,0,1,1.6,1.412,1.469,1.469,0,0,1-1.243,1.792A31.253,31.253,0,0,1-315.8,2498.844Z" transform="translate(331.163 -2491.557)" fill="#ef7d57"/><path d="M-294.072,2533.48a8.293,8.293,0,0,1-8.147-8.376,8.305,8.305,0,0,1,8.6-8.117,8.309,8.309,0,0,1,7.949,8.375A8.287,8.287,0,0,1-294.072,2533.48Zm.128-13.184a4.925,4.925,0,0,0-4.962,4.937,4.948,4.948,0,0,0,4.962,4.949,4.944,4.944,0,0,0,4.961-4.949A4.918,4.918,0,0,0-293.944,2520.3Z" transform="translate(317.04 -2507.036)" fill="#ef7d57"/><path d="M-162.633,2618.231c2.389,0,4.562.016,6.734-.008a1.867,1.867,0,0,1,1.9.9,1.8,1.8,0,0,1-.287,2c-2.153,3.216-4.286,6.444-6.436,9.662-.663.992-1.449,1.266-2.3.845a1.617,1.617,0,0,1-.527-2.561c1.443-2.2,2.915-4.388,4.372-6.582.173-.261.329-.533.579-.939-2.349,0-4.549.055-6.744-.037a2.874,2.874,0,0,1-1.741-.794,1.438,1.438,0,0,1,.065-1.889c2.22-3.327,4.43-6.661,6.661-9.981a1.644,1.644,0,0,1,2.425-.611,1.7,1.7,0,0,1,.268,2.5C-159.267,2613.179-160.891,2615.609-162.633,2618.231Z" transform="translate(234.974 -2562.392)" fill="#ef7d57"/></g></g></svg>