<svg xmlns="http://www.w3.org/2000/svg" width="81.809" height="100" viewBox="0 0 81.809 100"><g transform="translate(-2573.073 -1689.092)"><g transform="translate(2573.073 1689.092)"><path d="M2575.32,1974.575c-1.73-.662-2.259-1.943-2.247-3.746.058-8.723.025-17.447.027-26.17,0-2.69.941-3.622,3.65-3.623q6.347,0,12.694,0c2.622,0,3.62.99,3.623,3.578,0,.485,0,.97,0,1.526h12.472c-.2-.3-.352-.562-.524-.809a16.81,16.81,0,1,1,30.282-13.011c.23,1.153-.175,1.92-1.113,2.108-.86.172-1.549-.386-1.8-1.5a13.405,13.405,0,0,0-8.1-9.839,13.772,13.772,0,0,0-19.123,10.941,13.515,13.515,0,0,0,3.864,11.5,2,2,0,0,0,1.613.692c2.8-.036,5.6.02,8.4-.027a6.327,6.327,0,0,1,4.93,1.914,1.176,1.176,0,0,0,1.067.05,13.608,13.608,0,0,0,6.94-7.937c.1-.275.157-.564.264-.835a1.471,1.471,0,0,1,1.76-1.011,1.426,1.426,0,0,1,1.08,1.795,6.107,6.107,0,0,1-.289,1.028,16.9,16.9,0,0,1-8.619,9.759,1.313,1.313,0,0,0-.683.847,6.028,6.028,0,0,1-6.275,6.083c-2.538.036-5.078-.009-7.616.023a7.719,7.719,0,0,0-1.477.306l.061.36h1.01c3.483,0,6.967-.055,10.448.028a3.973,3.973,0,0,0,3.181-1.305c3.761-3.833,7.578-7.613,11.379-11.406,2.245-2.24,4.361-2.638,7.27-1.427a1.182,1.182,0,0,0,.865-.057,5.855,5.855,0,0,1,8.629,4.3,3.839,3.839,0,0,0,.7,1.531,5.839,5.839,0,0,1-.262,7.455c-1.346,1.458-2.778,2.837-4.2,4.225a1.433,1.433,0,0,1-2.162.079,1.452,1.452,0,0,1,.084-2.166c1.292-1.331,2.632-2.616,3.918-3.953a2.764,2.764,0,0,0,.692-2.964,2.708,2.708,0,0,0-2.263-1.9,2.966,2.966,0,0,0-2.7,1.03c-3.861,3.873-7.762,7.705-11.581,11.619a7.166,7.166,0,0,1-5.492,2.251c-5.891-.04-11.783-.012-17.674-.015-3.5,0-5.233-1.711-5.245-5.187a11.744,11.744,0,0,1,.078-2.237,4.434,4.434,0,0,1,4.572-3.6c2.734-.02,5.469.009,8.2-.022a2.9,2.9,0,0,0,2.71-2.023,2.733,2.733,0,0,0-1.018-3.038,3.314,3.314,0,0,0-1.7-.6c-8.691-.037-17.382-.026-26.073-.024a4.165,4.165,0,0,0-.434.051c-.019.306-.05.588-.051.87,0,5.6.01,11.2-.018,16.8a1.048,1.048,0,0,0,.8,1.208c3.013.993,5.978,2.156,9.034,2.986a21.008,21.008,0,0,0,5.318.533c7.877.053,15.754.015,23.631.028a7.818,7.818,0,0,0,5.871-2.4c1.388-1.42,2.8-2.818,4.207-4.217.882-.875,1.7-.962,2.381-.28.648.65.546,1.542-.3,2.389-1.445,1.455-2.924,2.877-4.345,4.354a11.893,11.893,0,0,1-5.743,3.073h-28.906a4.666,4.666,0,0,0-.529-.189c-2.2-.51-4.428-.929-6.6-1.549-1.606-.459-3.138-1.178-4.714-1.786-.381,2.4-.555,2.651-2.417,3.524Zm.814-3.113h13.838v-27.341h-13.838Zm73.449-23.436c-1.487-1.737-3.163-1.787-4.693-.266-3.876,3.855-7.763,7.7-11.585,11.606a7.042,7.042,0,0,1-5.392,2.234c-5.629-.046-11.258-.016-16.887-.016H2609.8a1.546,1.546,0,0,0,1.792,1.308c6.084-.011,12.169-.035,18.253.017a4.237,4.237,0,0,0,3.273-1.385c3.609-3.662,7.284-7.257,10.884-10.927C2645.515,1949.058,2647.123,1947.851,2649.583,1948.026Zm-21.775,10.471a3.268,3.268,0,0,0,3.165-1.015q4.991-5.021,10.007-10.018c.151-.151.281-.321.478-.545a2.874,2.874,0,0,0-2.915.847q-2.306,2.321-4.626,4.627Z" transform="translate(-2573.073 -1874.575)" fill="#ef7d57"/><path d="M2603.437,1735.976c.725-.765,1.442-1.565,2.206-2.316a2.522,2.522,0,0,1,3.812-.047q1.768,1.682,3.452,3.451a2.515,2.515,0,0,1-.008,3.807,14.652,14.652,0,0,1-1.457,1.441,1.358,1.358,0,0,0-.427,1.977c.265.488.481.752,1.067.717.843-.05,1.693-.035,2.538-.006a2.556,2.556,0,0,1,2.676,2.716q.026,2.441,0,4.882a2.549,2.549,0,0,1-2.706,2.681,19.488,19.488,0,0,1-2.536-.014c-.989-.107-.889.724-1.209,1.209s-.095.816.273,1.16c.641.6,1.265,1.221,1.864,1.863a2.46,2.46,0,0,1,.044,3.589c-1.175,1.262-2.4,2.483-3.656,3.661a2.505,2.505,0,0,1-3.666-.074c-.789-.769-1.515-1.6-2.209-2.344-2,.7-2.083.7-1.98,2.6.2,3.713-1.177,4.332-4.184,4.178-1.071-.055-2.148,0-3.222-.012a2.586,2.586,0,0,1-2.815-2.777c-.015-.813-.035-1.629.007-2.441.029-.566-.184-.8-.7-1.078a1.392,1.392,0,0,0-2.06.412,13.052,13.052,0,0,1-1.511,1.523,2.489,2.489,0,0,1-3.521.087q-1.971-1.82-3.8-3.793a2.43,2.43,0,0,1,.076-3.511c.484-.526,1.006-1.019,1.512-1.525.966-.967,1.008-1.2.253-2.379a.972.972,0,0,0-.7-.312c-.909-.037-1.823.007-2.733-.021a2.537,2.537,0,0,1-2.632-2.654q-.031-2.49,0-4.98a2.534,2.534,0,0,1,2.552-2.639c.714-.041,1.432-.01,2.148-.011,1.282,0,1.633-.257,1.869-1.5a1.023,1.023,0,0,0-.3-.726c-.618-.669-1.292-1.286-1.917-1.948a2.465,2.465,0,0,1-.044-3.657c1.183-1.254,2.4-2.478,3.662-3.655a2.491,2.491,0,0,1,3.6.062,13.719,13.719,0,0,1,1.577,1.6c.565.737,1.106.714,1.9.359a1.083,1.083,0,0,0,.775-1.234c-.052-.81-.027-1.627-.006-2.44a2.5,2.5,0,0,1,2.543-2.641c1.689-.065,3.386-.063,5.076,0a2.518,2.518,0,0,1,2.575,2.711,16.11,16.11,0,0,1-.009,2.049c-.095.908.157,1.5,1.125,1.663A4.466,4.466,0,0,1,2603.437,1735.976Zm10.886,12.048a12.971,12.971,0,0,0-1.461.008c-2.471.3-4.041-.551-4.824-3.1-.652-2.119-.746-2.641.841-4.232.575-.577,1.146-1.157,1.575-1.591l-3.047-3.092c-.671.692-1.379,1.454-2.124,2.179a2.529,2.529,0,0,1-3.042.536c-.59-.269-1.192-.513-1.794-.754a2.594,2.594,0,0,1-1.9-2.738c-.007-1,0-1.991,0-2.971h-4.3c-.109,2.426.563,4.818-2.752,6.187-3.371,1.391-4.477-1.017-6.147-2.382l-3.105,3.1c.394.353.873.745,1.311,1.18,2.061,2.045,2.095,2.24.985,4.916-.087.21-.161.424-.242.637a2.755,2.755,0,0,1-3,2.115c-.932.014-1.864,0-2.816,0v4.257h1.9c2.883,0,3.07.125,4.189,2.785.1.239.211.474.317.712a2.614,2.614,0,0,1-.61,3.438c-.679.686-1.392,1.338-1.987,1.906l3.032,3.195c.71-.728,1.411-1.449,2.114-2.169a2.618,2.618,0,0,1,3.208-.566q.844.377,1.7.721a2.6,2.6,0,0,1,1.891,2.741c.007.994,0,1.988,0,2.968h4.308v-2.283c0-2.362.291-2.78,2.53-3.667.331-.131.65-.3.976-.44a2.588,2.588,0,0,1,3.362.6c.7.712,1.334,1.493,1.844,2.068l3.247-3.231c-.236-.2-.551-.481-.889-.734-2.073-1.548-2.715-3.4-1.232-5.712a.957.957,0,0,0,.082-.177,2.72,2.72,0,0,1,3.057-2.154c.93-.012,1.861,0,2.8,0Z" transform="translate(-2575.004 -1721.905)" fill="#ef7d57"/><path d="M2834.3,1814.242c.146-.844.324-2,.556-3.142a1.431,1.431,0,0,0-.479-1.55c-.787-.678-1.5-1.438-2.236-2.176a2.643,2.643,0,0,1,1.36-4.6c1.121-.179,2.239-.4,3.367-.5a1.161,1.161,0,0,0,1.073-.8c.465-1,.962-1.984,1.459-2.968a2.565,2.565,0,0,1,2.4-1.539,2.6,2.6,0,0,1,2.412,1.539,12.368,12.368,0,0,1,1.014,2.1,2.438,2.438,0,0,0,2.583,1.827,13.758,13.758,0,0,1,2.4.363,2.6,2.6,0,0,1,1.377,4.447c-.795.858-1.7,1.617-2.494,2.471a1.4,1.4,0,0,0-.343.99c.124,1.094.341,2.177.534,3.263a2.678,2.678,0,0,1-.957,2.793,2.649,2.649,0,0,1-3.021.186c-1.179-.6-2.362-1.649-3.549-1.658-1.149-.008-2.3,1.07-3.46,1.649C2836.266,1817.963,2834.238,1816.749,2834.3,1814.242Zm7.5-13.866c-.53,1.072-1.021,2.018-1.469,2.983a3,3,0,0,1-2.581,1.8c-1,.116-2,.3-3.063.457.85.863,1.594,1.632,2.354,2.386a2.845,2.845,0,0,1,.861,2.831c-.226,1-.341,2.031-.537,3.245,1.085-.564,2.011-1.014,2.905-1.518a2.911,2.911,0,0,1,3.048-.013c.917.508,1.862.967,2.935,1.519-.186-1.11-.3-2.041-.5-2.95a3.135,3.135,0,0,1,1.038-3.329c.746-.652,1.411-1.4,2.193-2.182-1.135-.165-2.122-.333-3.115-.446a2.967,2.967,0,0,1-2.579-1.791C2842.851,1802.4,2842.35,1801.462,2841.807,1800.376Z" transform="translate(-2780.705 -1776.45)" fill="#ef7d57"/><path d="M2787.293,1708.093c-.56-.275-1.478-.668-2.335-1.168a1.493,1.493,0,0,0-1.782-.01,13.735,13.735,0,0,1-1.9.986,2.149,2.149,0,0,1-2.371-.34,2.019,2.019,0,0,1-.839-2.239,3.754,3.754,0,0,0-1.509-4.824,2.334,2.334,0,0,1,1.4-4.087,3.542,3.542,0,0,0,3.851-2.719,2.169,2.169,0,0,1,2.206-1.6,2.207,2.207,0,0,1,2.287,1.631,3.436,3.436,0,0,0,3.679,2.671,2.232,2.232,0,0,1,2.25,1.679,2.172,2.172,0,0,1-.862,2.585c-1.633,1.156-1.943,2.556-1.388,4.436C2790.461,1706.694,2789.252,1708.114,2787.293,1708.093Zm1.287-8.893c-2.43.089-3.8-1.071-4.526-3.289a4.235,4.235,0,0,1-4.566,3.3c2,1.332,2.461,3.1,1.805,5.343a4.134,4.134,0,0,1,5.531-.044A4.261,4.261,0,0,1,2788.579,1699.2Z" transform="translate(-2736.08 -1692.092)" fill="#ef7d57"/><path d="M2769.629,1985.6c2.356-2.357,4.608-4.611,6.863-6.863a5.645,5.645,0,0,1,.718-.657,1.357,1.357,0,0,1,1.93.19,1.415,1.415,0,0,1,.106,1.879,4.826,4.826,0,0,1-.662.712q-3.758,3.763-7.521,7.522c-1.064,1.06-1.743,1.06-2.807,0q-2.9-2.892-5.794-5.8a1.54,1.54,0,0,1-.281-2.176,1.5,1.5,0,0,1,2.372.068C2766.234,1982.152,2767.895,1983.848,2769.629,1985.6Z" transform="translate(-2724.904 -1921.86)" fill="#ef7d57"/><path d="M2641.445,1805.477a9.949,9.949,0,1,1,8.92-14.394c.508,1.032.344,1.857-.455,2.291-.835.454-1.615.117-2.191-.947a6.928,6.928,0,0,0-12.887,1.148,6.935,6.935,0,0,0,12.538,5.615c.172-.275.309-.571.47-.852a1.485,1.485,0,1,1,2.633,1.356,9.715,9.715,0,0,1-6.624,5.438A21.234,21.234,0,0,1,2641.445,1805.477Z" transform="translate(-2620.103 -1767.274)" fill="#ef7d57"/><path d="M2668.971,1818.479a4.307,4.307,0,1,1-4.291-4.373A4.34,4.34,0,0,1,2668.971,1818.479Zm-4.341,1.306a1.323,1.323,0,1,0-1.329-1.38A1.331,1.331,0,0,0,2664.63,1819.785Z" transform="translate(-2643.276 -1790.229)" fill="#ef7d57"/></g></g></svg>