<svg xmlns="http://www.w3.org/2000/svg" width="99.153" height="100" viewBox="0 0 99.153 100"><path d="M.129,57.1q-.425-3.368,2-3.734c1.614-.248,2.657.87,3,3.224A42.254,42.254,0,0,0,16.429,80.3C28.973,93.4,44.318,98.113,61.75,93.161,79.513,88.114,90.1,75.8,93.892,57.7c.148-.706.19-1.436.344-2.14a2.507,2.507,0,0,1,2.82-2.214,2.561,2.561,0,0,1,2.066,3.1,45.123,45.123,0,0,1-4.477,15.115C85.246,89.926,70,99.094,52.49,100,24.779,100,3.172,81.25.129,57.1Zm59.617,9.817a14.821,14.821,0,0,1-7.873-7.494,12.674,12.674,0,0,1-1.164-5.384,19.343,19.343,0,0,1,.433-4.248,20.149,20.149,0,0,1,1.191-3.653,33.559,33.559,0,0,1,1.785-3.49q1.028-1.759,2.219-3.761l5.574-9.307H72.517l.216.541L64.75,42.274a9.811,9.811,0,0,1,3.545-.737,11.088,11.088,0,0,1,5.98,1.7,12.76,12.76,0,0,1,4.356,4.519,12.129,12.129,0,0,1,1.623,6.169,13.538,13.538,0,0,1-1.948,7.2A13.95,13.95,0,0,1,73,66.159,15.49,15.49,0,0,1,65.427,68,14.883,14.883,0,0,1,59.745,66.917Zm3.409-16.64a4.677,4.677,0,0,0-1.7,1.651,4.3,4.3,0,0,0-.622,2.273,4.4,4.4,0,0,0,2.326,4,5.085,5.085,0,0,0,2.489.595,5.285,5.285,0,0,0,2.49-.568,4.226,4.226,0,0,0,1.7-1.624A4.651,4.651,0,0,0,70.46,54.2a4.078,4.078,0,0,0-.65-2.219A5.135,5.135,0,0,0,68.079,50.3a4.637,4.637,0,0,0-2.435-.649A4.905,4.905,0,0,0,63.155,50.277ZM28.251,66V56.852H19.268V48.194h8.983V39.319H37.4v8.875h8.983v8.658H37.4V66ZM94.062,43.6a44.365,44.365,0,0,0-15.6-28.074C52.723-6.47,11.738,7.979,5.483,41.246c-.2,1.038-.334,2.086-.557,3.117a2.489,2.489,0,1,1-4.895-.838A47.592,47.592,0,0,1,9.006,20.82C19.08,7.227,32.711.423,46.961,0,74.492,0,95.9,18.614,99.042,43.025c.276,2.139-.4,3.356-1.982,3.569a3.307,3.307,0,0,1-.435.03C95.236,46.625,94.36,45.62,94.062,43.6Z" transform="translate(0)" fill="#1faabc"/></svg>