<svg xmlns="http://www.w3.org/2000/svg" width="81.878" height="100" viewBox="0 0 81.878 100"><g transform="translate(-54.695 -3425.735)"><g transform="translate(54.695 3425.735)"><path d="M100.145,3756.207v8.305H101.2c3.223,0,6.445-.005,9.668,0,1.522,0,1.978.464,1.986,1.972.007,1.263,0,2.527,0,3.921h1.117q6.2,0,12.4,0a5.881,5.881,0,0,1,.974.035,1.448,1.448,0,0,1,.047,2.859,4.683,4.683,0,0,1-.972.048q-30.761,0-61.522,0c-1.5,0-2.219-.471-2.236-1.452s.711-1.491,2.189-1.492q6.2,0,12.4,0h1.166c0-1.385-.007-2.677,0-3.969.009-1.447.476-1.92,1.935-1.924,3.223-.009,6.445,0,9.668,0H91.13v-8.306H57.056c-1.915,0-2.147-.367-2.294-2.277-.389-5.064,1-9.866,2.014-14.724,1.912-9.2,3.871-18.384,5.814-27.574.289-1.366.665-1.687,2.061-1.687q31.005-.007,62.01,0c1.34,0,1.737.339,2.01,1.633,2.579,12.212,5.217,24.412,7.671,36.649a31.768,31.768,0,0,1,.09,6.719,1.268,1.268,0,0,1-1.289,1.231c-.355.033-.715.029-1.073.029H100.145Zm-42.364-3.024h75.675v-2.876H72.036a7.654,7.654,0,0,1-1.073-.027,1.37,1.37,0,0,1-1.295-1.357,1.386,1.386,0,0,1,1.23-1.515,4.094,4.094,0,0,1,.875-.04q4.151,0,8.3,0h1.057l.656-9.474H60.063l-1.991,9.474h1.162c1.791,0,3.582-.02,5.372.011a1.466,1.466,0,1,1,.032,2.927c-.357.021-.716.007-1.074.007H57.781Zm26.311-5.885h23.089l-.672-9.386H84.758Zm49.1.021L131.2,3737.9H109.475l.665,9.419Zm-27.552-21.889H85.628l-.648,9.4h21.312Zm22.941.012H108.6l.665,9.4H130.56Zm-45.918-.08H69.6c-2.051,0-4.1-.021-6.152.024a1.043,1.043,0,0,0-.813.517c-.672,2.945-1.283,5.9-1.923,8.923h21.3C82.227,3731.691,82.441,3728.589,82.663,3725.363Zm22.1-12.385H86.5l-.654,9.352h19.577Zm-21.21-.061c-6.013,0-11.862-.007-17.71.028-.221,0-.571.379-.637.639-.311,1.226-.547,2.471-.805,3.711-.347,1.667-.69,3.333-1.041,5.033H82.883C83.105,3719.188,83.322,3716.121,83.549,3712.916Zm44.391,9.444c-.618-2.912-1.25-5.7-1.778-8.5-.151-.8-.476-.968-1.217-.964-5.4.028-10.793.014-16.189.017-.313,0-.626.036-1.032.06l.67,9.385Zm-18.083,45.173H81.449v2.822h28.408Zm-15.647-3.1h2.851v-8.154H94.21Z" transform="translate(-54.695 -3673.354)" fill="#1faabc"/><path d="M322.709,3501.448a7.383,7.383,0,1,1,7.412-7.382A7.474,7.474,0,0,1,322.709,3501.448Zm4.455-7.421a4.432,4.432,0,0,0-8.864.028,4.432,4.432,0,1,0,8.864-.028Z" transform="translate(-281.795 -3478.836)" fill="#1faabc"/><path d="M361.029,3428.095a10.854,10.854,0,0,1,.121-1.241,1.31,1.31,0,0,1,1.388-1.119,1.263,1.263,0,0,1,1.373,1.126,12.721,12.721,0,0,1,.04,2.42,1.307,1.307,0,0,1-1.42,1.3,1.35,1.35,0,0,1-1.426-1.307C361.057,3428.924,361.058,3428.565,361.029,3428.095Z" transform="translate(-321.594 -3425.735)" fill="#1faabc"/><path d="M361.079,3627.026c.023-.361.025-.752.077-1.136a1.348,1.348,0,0,1,1.443-1.292,1.331,1.331,0,0,1,1.4,1.333,13.754,13.754,0,0,1-.009,2.231,1.3,1.3,0,0,1-1.436,1.281,1.348,1.348,0,0,1-1.412-1.321C361.1,3627.77,361.1,3627.411,361.079,3627.026Z" transform="translate(-321.638 -3598.998)" fill="#1faabc"/><path d="M256.889,3532.465a11.726,11.726,0,0,1,1.26.09,1.325,1.325,0,0,1,1.176,1.342,1.241,1.241,0,0,1-1.067,1.413,11.793,11.793,0,0,1-2.605.031,1.261,1.261,0,0,1-1.176-1.423,1.347,1.347,0,0,1,1.341-1.393,10.686,10.686,0,0,1,1.069-.006Z" transform="translate(-228.758 -3518.726)" fill="#1faabc"/><path d="M455.853,3532.441c.335.024.847-.085,1.153.117a2.652,2.652,0,0,1,1.11,1.272,1.134,1.134,0,0,1-.975,1.44,11.192,11.192,0,0,1-2.7.033,1.257,1.257,0,0,1-1.133-1.458,1.34,1.34,0,0,1,1.292-1.342C454.985,3532.46,455.376,3532.464,455.853,3532.441Z" transform="translate(-401.99 -3518.698)" fill="#1faabc"/><path d="M287.519,3457.186c1.264-.012,3.3,1.933,3.169,2.838a1.824,1.824,0,0,1-.789,1.216,1.634,1.634,0,0,1-1.422-.065,7.033,7.033,0,0,1-1.773-1.773,1.726,1.726,0,0,1-.075-1.433C286.8,3457.572,287.339,3457.333,287.519,3457.186Z" transform="translate(-256.669 -3453.137)" fill="#1faabc"/><path d="M428.126,3461.32c-.207-.172-.747-.419-.921-.824a1.715,1.715,0,0,1,.09-1.428,7.767,7.767,0,0,1,1.764-1.786,1.4,1.4,0,0,1,2.211,1.088C431.329,3459.344,429.383,3461.358,428.126,3461.32Z" transform="translate(-379.152 -3452.986)" fill="#1faabc"/><path d="M290.022,3599.785a5.139,5.139,0,0,1-.526,1.081,13.38,13.38,0,0,1-1.509,1.512,1.36,1.36,0,0,1-1.941-.036,1.33,1.33,0,0,1-.139-1.929,7.23,7.23,0,0,1,1.662-1.617,1.9,1.9,0,0,1,1.515-.117C289.481,3598.836,289.717,3599.4,290.022,3599.785Z" transform="translate(-255.838 -3576.325)" fill="#1faabc"/><path d="M431.219,3601.007c-.145.18-.381.719-.777.892a1.725,1.725,0,0,1-1.433-.07,7.036,7.036,0,0,1-1.775-1.767,1.635,1.635,0,0,1-.075-1.422,1.815,1.815,0,0,1,1.216-.782C429.293,3597.723,431.226,3599.729,431.219,3601.007Z" transform="translate(-379.1 -3575.693)" fill="#1faabc"/></g></g></svg>