<svg xmlns="http://www.w3.org/2000/svg" xmlns:xlink="http://www.w3.org/1999/xlink" width="40" height="40" viewBox="0 0 40 40"><defs><clipPath id="b"><rect width="40" height="40"/></clipPath></defs><g id="a" clip-path="url(#b)"><rect width="40" height="40" fill="#fff"/><path d="M21.987,19.729c-1.022,8.23-6.242,9.694-6.242,15.417a6.478,6.478,0,0,0,12.955,0c0-5.722-5.22-7.186-6.242-15.417a.242.242,0,0,0-.47,0Zm-12-18C8.966,9.958,3.746,11.42,3.746,17.145a6.477,6.477,0,0,0,12.953,0c0-5.722-5.22-7.186-6.242-15.417a.241.241,0,0,0-.468,0Zm24,0c-1.022,8.23-6.242,9.694-6.242,15.417a6.477,6.477,0,0,0,12.953,0c0-5.722-5.22-7.186-6.242-15.417a.241.241,0,0,0-.468,0Z" transform="translate(-1.746 -1.544)"/></g></svg>