<svg xmlns="http://www.w3.org/2000/svg" xmlns:xlink="http://www.w3.org/1999/xlink" width="40" height="40" viewBox="0 0 40 40"><defs><clipPath id="b"><rect width="40" height="40"/></clipPath></defs><g id="a" clip-path="url(#b)"><rect width="40" height="40" fill="#fff"/><path d="M29.238,31.9V30.068a9.925,9.925,0,0,0,4.444-8.258c0-5.523,0-10-6.667-10s-6.667,4.477-6.667,10a9.925,9.925,0,0,0,4.444,8.258V31.9c-7.538.616-13.333,4.32-13.333,8.8H42.571c0-4.478-5.8-8.182-13.333-8.8Zm-15.306.858a21.112,21.112,0,0,1,6.937-2.792,12.536,12.536,0,0,1-1.406-2.049,12.725,12.725,0,0,1-1.614-6.107c0-2.988,0-5.809,1.063-8.117A7.235,7.235,0,0,1,24.44,9.544c-.587-2.656-2.151-4.4-6.313-4.4-6.667,0-6.667,4.477-6.667,10A9.925,9.925,0,0,0,15.9,23.4v1.833c-7.538.616-13.333,4.32-13.333,8.8h9.688a14.233,14.233,0,0,1,1.673-1.273Z" transform="translate(-2.571 -3.143)"/></g></svg>