<svg xmlns="http://www.w3.org/2000/svg" width="80.951" height="81" viewBox="0 0 80.951 81"><g transform="translate(0.5 0.5)"><g transform="translate(0 0)"><path d="M91.391,162.181H26.13a4.62,4.62,0,0,0-.505-.168,8.6,8.6,0,0,1-6.833-8.446q0-19.674-.013-39.347a2.787,2.787,0,0,1,1.127-2.351c1.1-.868,2.183-1.762,3.232-2.7a1.622,1.622,0,0,0,.473-1.036c.039-3.122.019-6.244.026-9.366a5.409,5.409,0,0,1,5.6-5.609c4.113-.006,8.226-.019,12.332.013a2.327,2.327,0,0,0,1.613-.583C46.5,89.8,49.836,87,53.2,84.258a8.486,8.486,0,0,1,11.1-.019c3.329,2.707,6.619,5.46,9.9,8.219a2.753,2.753,0,0,0,1.956.713c4.113-.039,8.226-.026,12.332-.013a5.414,5.414,0,0,1,5.4,5.415c.006,2.4,0,4.793,0,7.183,0,.991-.272,2.112.1,2.928s1.412,1.328,2.157,1.969c.4.343.829.635,1.192,1.01.492.518.926,1.088,1.386,1.639v41.536c-.052.175-.117.337-.162.512a8.558,8.558,0,0,1-5.337,6.257C92.641,161.844,92.007,161.987,91.391,162.181ZM58.787,97.84H29.6c-1.049,0-1.282.233-1.289,1.276q0,8.511-.006,17.015a1.3,1.3,0,0,0,.512,1.121Q42.4,128.492,55.963,139.765a3.949,3.949,0,0,0,5.622-.013q13.533-11.241,27.08-22.468a1.35,1.35,0,0,0,.557-1.172c-.019-5.6-.013-11.192-.013-16.782,0-1.328-.162-1.49-1.464-1.49Zm-7.656,44.01-22.714,15.57h60.7L66.4,141.85c-2.183,1.982-4.417,3.782-7.61,3.8S53.353,143.871,51.131,141.85ZM23.766,154.882l23.556-16.153L23.578,119.019C23.293,120.762,23.455,153.923,23.766,154.882Zm70,0c.3-.972.453-34.3.181-35.849l-23.738,19.7ZM49.913,93.092H67.621c-2.345-1.924-4.5-3.8-6.775-5.525a3.322,3.322,0,0,0-4.158,0C54.408,89.29,52.251,91.169,49.913,93.092Z" transform="translate(-18.779 -82.181)" fill="#1faabc"/><path d="M91.468,162.681H26.046l-.079-.027-.158-.058a2.325,2.325,0,0,0-.292-.1,9.077,9.077,0,0,1-7.225-8.934q0-3.931,0-7.861c0-10.319,0-20.99-.013-31.485a3.275,3.275,0,0,1,1.315-2.743c1.2-.948,2.25-1.823,3.207-2.679a1.131,1.131,0,0,0,.31-.676c.027-2.155.026-4.352.025-6.475,0-.944,0-1.921,0-2.882a5.9,5.9,0,0,1,6.1-6.108l1.542,0c1.515,0,3.081-.005,4.621-.005,2.388,0,4.349.007,6.173.021a1.831,1.831,0,0,0,1.29-.468c3.714-3.12,6.841-5.733,10.022-8.332a8.986,8.986,0,0,1,11.734-.019c3.479,2.829,6.938,5.728,9.908,8.223a2.263,2.263,0,0,0,1.626.6c1.851-.018,3.871-.026,6.18-.026,2.057,0,4.144.007,6.162.013a5.914,5.914,0,0,1,5.9,5.913c0,1.6,0,3.224,0,4.8q0,1.2,0,2.39c0,.313-.025.632-.049.941a3.853,3.853,0,0,0,.107,1.778,3.758,3.758,0,0,0,1.264,1.213c.257.186.523.378.765.586.139.121.282.234.433.353a7.789,7.789,0,0,1,.792.689c.364.383.695.79,1.014,1.183.129.159.263.324.4.482l.116.139v41.79l-.021.07c-.025.083-.051.16-.076.234-.03.09-.059.175-.081.257a9.064,9.064,0,0,1-5.634,6.6,12.029,12.029,0,0,1-1.254.407c-.206.058-.419.119-.623.183Zm-65.251-1h65.1c.193-.06.388-.115.576-.168a11.11,11.11,0,0,0,1.151-.371,8.014,8.014,0,0,0,5.039-5.912l0-.007c.031-.119.067-.226.1-.33.015-.045.03-.089.044-.131v-41.28c-.1-.118-.194-.237-.288-.352-.322-.4-.626-.77-.961-1.122a6.932,6.932,0,0,0-.691-.6c-.153-.121-.312-.247-.466-.381-.208-.179-.445-.35-.7-.532a4.479,4.479,0,0,1-1.587-1.606,4.574,4.574,0,0,1-.2-2.274c.024-.3.046-.589.046-.863q0-1.194,0-2.391c0-1.57,0-3.193,0-4.791a4.888,4.888,0,0,0-4.9-4.916c-2.017-.006-4.1-.013-6.158-.013-2.306,0-4.323.008-6.167.026h-.067a3.25,3.25,0,0,1-2.214-.83c-2.968-2.493-6.424-5.39-9.9-8.215a7.987,7.987,0,0,0-10.47.019c-3.177,2.6-6.3,5.2-10.014,8.325a2.844,2.844,0,0,1-1.934.7c-1.825-.014-3.784-.021-6.169-.021-1.539,0-3.1,0-4.619.005l-1.543,0a4.935,4.935,0,0,0-5.1,5.109c0,.961,0,1.937,0,2.881,0,2.127,0,4.326-.025,6.491a2.107,2.107,0,0,1-.633,1.4l-.006.006c-.973.871-2.038,1.761-3.256,2.721a2.284,2.284,0,0,0-.937,1.958c.016,10.495.015,21.166.013,31.486q0,3.931,0,7.861a8.085,8.085,0,0,0,6.438,7.957,3.156,3.156,0,0,1,.428.135Zm64.515-3.761H26.8l24.372-16.707.293.266c2.124,1.932,4.279,3.665,7.291,3.665h.032c3-.012,5.157-1.741,7.276-3.666l.293-.266Zm-60.7-1H87.5L66.446,142.486c-2.177,1.952-4.436,3.647-7.651,3.66h-.036c-3.224,0-5.488-1.7-7.67-3.66Zm64.006-1.244-24.66-16.9L94.287,118.1l.149.848c.169.962.163,11.912.133,18.23-.022,4.526-.061,8.759-.112,11.921-.088,5.522-.176,5.8-.218,5.935Zm-23-16.98,22.3,15.287c.1-2.224.195-8.823.233-17.009.037-8.021.01-14.545-.066-16.929ZM23.5,155.673l-.206-.637c-.047-.144-.133-.411-.225-5.909-.053-3.155-.094-7.374-.117-11.88-.032-6.3-.039-17.237.136-18.308l.141-.862,24.925,20.69Zm.519-35.64c-.173,5.209-.053,29.233.172,33.954l22.306-15.3Zm34.747,21.4h0a4.9,4.9,0,0,1-3.12-1.285c-9.667-8.027-18.381-15.261-27.144-22.513l0,0a1.8,1.8,0,0,1-.688-1.5c.01-4.25.008-8.574.007-12.755q0-2.13,0-4.259c.008-1.329.46-1.776,1.789-1.776H87.745a2.1,2.1,0,0,1,1.576.4,2.178,2.178,0,0,1,.387,1.594q0,1.675,0,3.35c0,4.4,0,8.952.013,13.429a1.845,1.845,0,0,1-.739,1.56c-9.013,7.463-18.166,15.065-27.017,22.416l-.061.051A4.932,4.932,0,0,1,58.763,141.434ZM29.14,116.868c8.762,7.252,17.476,14.486,27.142,22.512a3.458,3.458,0,0,0,4.983-.013l.061-.051c8.851-7.352,18-14.954,27.02-22.418a.862.862,0,0,0,.376-.787c-.016-4.477-.015-9.029-.013-13.431q0-1.675,0-3.35a2.006,2.006,0,0,0-.1-.892,1.918,1.918,0,0,0-.864-.1H29.6c-.505,0-.645.064-.683.1s-.1.176-.105.677q0,2.125,0,4.256c0,4.182,0,8.507-.007,12.757A.806.806,0,0,0,29.14,116.868ZM69.019,93.592h-20.5l1.077-.886c.68-.559,1.353-1.122,2-1.665,1.627-1.36,3.163-2.644,4.788-3.872a3.919,3.919,0,0,1,2.375-.832,3.969,3.969,0,0,1,2.385.831c1.589,1.2,3.093,2.46,4.686,3.79.683.57,1.39,1.16,2.106,1.748Zm-17.718-1H66.231l-1.039-.867c-1.584-1.322-3.079-2.571-4.647-3.76a2.976,2.976,0,0,0-1.783-.63,2.929,2.929,0,0,0-1.771.629c-1.606,1.214-3.134,2.491-4.75,3.842Z" transform="translate(-18.779 -82.181)" fill="#1faabc"/><path d="M41.409,91.934q-8.54,0-17.086-.006a2.334,2.334,0,0,1-.693-4.573,2.83,2.83,0,0,1,.842-.1q16.934-.01,33.874-.006a2.349,2.349,0,1,1,0,4.683Z" transform="translate(-1.427 -54.416)" fill="#1faabc"/><path d="M32.879,92.435c-3.454,0-6.093,0-8.557-.008a2.8,2.8,0,0,1-2.844-2.486,2.835,2.835,0,0,1,2-3.064,3.306,3.306,0,0,1,.99-.12c11.289-.006,22.771-.006,33.874-.006a2.892,2.892,0,0,1,3.032,2.789,2.727,2.727,0,0,1-.779,1.986,3.108,3.108,0,0,1-2.254.907H41.409Zm25.467-4.684c-11.1,0-22.585,0-33.874.006a2.418,2.418,0,0,0-.691.074l-.006,0a1.843,1.843,0,0,0-1.31,1.949,1.82,1.82,0,0,0,1.857,1.645c2.465.006,5.1.008,8.556.008l8.53,0H58.346a2.118,2.118,0,0,0,1.538-.606,1.737,1.737,0,0,0,.494-1.266A1.891,1.891,0,0,0,58.346,87.751Z" transform="translate(-1.427 -54.416)" fill="#1faabc"/><path d="M35.412,90.485c-3.621,0-7.235.007-10.849,0a2.353,2.353,0,1,1-.006-4.676q10.842-.01,21.691,0a2.353,2.353,0,1,1,.006,4.676C42.64,90.492,39.026,90.485,35.412,90.485Z" transform="translate(-1.434 -62.339)" fill="#1faabc"/><path d="M42.64,90.988l-7.228,0-7.234,0q-1.808,0-3.615,0a3.236,3.236,0,0,1-2.35-.925,2.694,2.694,0,0,1-.766-1.964,2.909,2.909,0,0,1,3.11-2.787c3.6,0,7.246,0,10.846,0s7.249,0,10.846,0a3.241,3.241,0,0,1,2.354.923,2.688,2.688,0,0,1,.762,1.96,2.912,2.912,0,0,1-3.11,2.794Q44.448,90.989,42.64,90.988Zm-7.228-1,7.228,0q1.806,0,3.613,0a1.9,1.9,0,0,0,2.111-1.818,1.674,1.674,0,0,0-.478-1.237,2.253,2.253,0,0,0-1.639-.621c-3.6,0-7.246,0-10.846,0s-7.248,0-10.845,0a1.9,1.9,0,0,0-2.111,1.811,1.68,1.68,0,0,0,.481,1.241,2.249,2.249,0,0,0,1.635.624q3.615.007,7.228,0Z" transform="translate(-1.434 -62.339)" fill="#1faabc"/></g></g></svg>