<svg xmlns="http://www.w3.org/2000/svg" width="69.596" height="85" viewBox="0 0 69.596 85"><path d="M93.328,3749.267v7.06h.894c2.739,0,5.478,0,8.218,0,1.294,0,1.681.394,1.688,1.677.006,1.074,0,2.147,0,3.333h.949q5.271,0,10.542,0a5,5,0,0,1,.828.029,1.231,1.231,0,0,1,.04,2.43,3.976,3.976,0,0,1-.826.041q-26.147,0-52.294,0c-1.272,0-1.886-.4-1.9-1.234s.6-1.268,1.861-1.268q5.271,0,10.542,0h.991c0-1.177-.006-2.276,0-3.373.008-1.23.4-1.632,1.645-1.635,2.739-.008,5.478,0,8.218,0h.94v-7.06H56.7c-1.628,0-1.825-.312-1.95-1.936-.331-4.3.853-8.386,1.712-12.515,1.625-7.817,3.29-15.626,4.942-23.438.245-1.161.565-1.434,1.752-1.434q26.354-.006,52.709,0c1.139,0,1.476.288,1.708,1.388,2.192,10.38,4.434,20.75,6.52,31.152a27,27,0,0,1,.077,5.711,1.078,1.078,0,0,1-1.1,1.047c-.3.028-.608.025-.912.025H93.328Zm-36.009-2.57h64.324v-2.444H69.435a6.516,6.516,0,0,1-.912-.023,1.165,1.165,0,0,1-1.1-1.154,1.178,1.178,0,0,1,1.045-1.288,3.46,3.46,0,0,1,.744-.034q3.529,0,7.057,0h.9l.558-8.053H59.258l-1.692,8.053h.988c1.522,0,3.045-.016,4.566.01a1.246,1.246,0,1,1,.027,2.487c-.3.017-.609.006-.913.006H57.318Zm22.364-5H99.308l-.571-7.979H80.249Zm41.736.018-1.7-8.006H101.258c.191,2.7.377,5.335.565,8.006ZM98,3723.107H80.988l-.55,7.988H98.553Zm19.5.01H100.515l.565,7.987h18.1Zm-39.031-.068H67.36c-1.743,0-3.487-.017-5.229.021a.886.886,0,0,0-.691.44c-.571,2.5-1.09,5.018-1.634,7.584H77.914C78.1,3728.428,78.279,3725.792,78.468,3723.049Zm18.781-10.527H81.732l-.556,7.949h16.64Zm-18.028-.052c-5.111,0-10.083-.006-15.054.024-.188,0-.486.322-.542.543-.265,1.042-.465,2.1-.685,3.154-.3,1.417-.586,2.833-.885,4.278h16.6Zm37.733,8.028c-.525-2.476-1.062-4.842-1.511-7.224-.128-.678-.4-.823-1.034-.819-4.587.024-9.174.012-13.761.015-.266,0-.532.03-.877.051l.57,7.977Zm-15.371,38.4H77.436v2.4h24.147Zm-13.3-2.632h2.423v-6.931H88.283Z" transform="translate(-54.695 -3678.842)" fill="#fff"/><path d="M321.605,3499.233a6.276,6.276,0,1,1,6.3-6.275A6.352,6.352,0,0,1,321.605,3499.233Zm3.787-6.308a3.768,3.768,0,0,0-7.535.024,3.768,3.768,0,1,0,7.535-.024Z" transform="translate(-286.828 -3480.012)" fill="#fff"/><path d="M361.029,3427.741a9.214,9.214,0,0,1,.1-1.054,1.114,1.114,0,0,1,1.18-.951,1.074,1.074,0,0,1,1.167.958,10.816,10.816,0,0,1,.034,2.058,1.111,1.111,0,0,1-1.207,1.106,1.148,1.148,0,0,1-1.212-1.111C361.052,3428.446,361.053,3428.141,361.029,3427.741Z" transform="translate(-327.509 -3425.735)" fill="#fff"/><path d="M361.079,3626.662c.019-.306.021-.639.065-.966a1.146,1.146,0,0,1,1.226-1.1,1.131,1.131,0,0,1,1.193,1.133,11.687,11.687,0,0,1-.007,1.9,1.109,1.109,0,0,1-1.22,1.089,1.146,1.146,0,0,1-1.2-1.124C361.1,3627.294,361.1,3626.989,361.079,3626.662Z" transform="translate(-327.554 -3602.838)" fill="#fff"/><path d="M256.527,3532.465a9.992,9.992,0,0,1,1.071.076,1.126,1.126,0,0,1,1,1.141,1.055,1.055,0,0,1-.907,1.2,10.021,10.021,0,0,1-2.214.027,1.071,1.071,0,0,1-1-1.209,1.144,1.144,0,0,1,1.14-1.184c.3-.03.606-.005.909-.005Z" transform="translate(-232.616 -3520.786)" fill="#fff"/><path d="M455.47,3532.44c.285.021.72-.073.98.1a2.252,2.252,0,0,1,.943,1.082.964.964,0,0,1-.829,1.224,9.476,9.476,0,0,1-2.3.028,1.069,1.069,0,0,1-.963-1.239,1.139,1.139,0,0,1,1.1-1.141C454.733,3532.456,455.065,3532.459,455.47,3532.44Z" transform="translate(-409.687 -3520.758)" fill="#fff"/><path d="M287.368,3457.185c1.074-.01,2.805,1.643,2.694,2.412a1.549,1.549,0,0,1-.67,1.033,1.388,1.388,0,0,1-1.209-.055,5.975,5.975,0,0,1-1.507-1.506,1.468,1.468,0,0,1-.064-1.218C286.758,3457.514,287.215,3457.311,287.368,3457.185Z" transform="translate(-261.145 -3453.744)" fill="#fff"/><path d="M427.97,3460.674c-.176-.147-.635-.356-.783-.7a1.458,1.458,0,0,1,.076-1.214,6.591,6.591,0,0,1,1.5-1.518,1.19,1.19,0,0,1,1.879.925C430.693,3458.994,429.039,3460.706,427.97,3460.674Z" transform="translate(-386.343 -3453.59)" fill="#fff"/><path d="M289.352,3599.6a4.348,4.348,0,0,1-.447.919,11.414,11.414,0,0,1-1.283,1.286,1.156,1.156,0,0,1-1.65-.03,1.131,1.131,0,0,1-.119-1.64,6.153,6.153,0,0,1,1.413-1.375,1.618,1.618,0,0,1,1.287-.1C288.892,3598.8,289.093,3599.278,289.352,3599.6Z" transform="translate(-260.295 -3579.662)" fill="#fff"/><path d="M430.591,3600.533c-.123.153-.324.611-.66.758a1.465,1.465,0,0,1-1.218-.06,5.976,5.976,0,0,1-1.508-1.5,1.389,1.389,0,0,1-.064-1.209,1.543,1.543,0,0,1,1.033-.665C428.953,3597.742,430.6,3599.447,430.591,3600.533Z" transform="translate(-386.29 -3579.017)" fill="#fff"/></svg>