<svg xmlns="http://www.w3.org/2000/svg" width="40" height="40.001" viewBox="0 0 40 40.001"><g transform="translate(-19.165 -65.323)"><g transform="translate(19.165 65.323)"><path d="M40.577,105.324h-2.81a1.44,1.44,0,0,0-.259-.069,19.876,19.876,0,0,1-7.749-2.267.91.91,0,0,0-.612-.062c-1.676.449-3.346.919-5.015,1.393-1.158.328-2.312.671-3.467,1.006h-.626a1.268,1.268,0,0,1-.757-1.749c.764-2.724,1.531-5.444,2.281-8.171a.963.963,0,0,0-.045-.646A20.026,20.026,0,0,1,41.959,65.514a19.26,19.26,0,0,1,9.74,4.224A19.651,19.651,0,0,1,58.854,81.81c.128.7.207,1.41.311,2.112v2.813c-.086.639-.156,1.286-.266,1.922A20.022,20.022,0,0,1,42.73,105.009C42.018,105.137,41.3,105.22,40.577,105.324Zm-18.519-2.89c.1-.021.152-.031.2-.041,2.212-.615,4.428-1.213,6.629-1.86a2.093,2.093,0,0,1,1.739.211,17.252,17.252,0,0,0,10.943,2.06A17.468,17.468,0,0,0,50.1,99.168a17.635,17.635,0,0,0-15.056-30.99,17.086,17.086,0,0,0-9.982,6.574A17.283,17.283,0,0,0,21.7,87.731a16.817,16.817,0,0,0,2.174,6.37,1.56,1.56,0,0,1,.152,1.3C23.368,97.727,22.725,100.05,22.058,102.434Z" transform="translate(-19.165 -65.323)" fill="#fff"/><path d="M36.062,89.65a14.4,14.4,0,0,1-7.632-3.038A16.605,16.605,0,0,1,22.5,78.677a9.621,9.621,0,0,1-.283-6.083,7.644,7.644,0,0,1,3.055-3.978,3.683,3.683,0,0,1,4.638.391c.436.408.861.833,1.268,1.269a3.794,3.794,0,0,1,.08,5.143c-.207.235-.439.446-.653.674a.693.693,0,0,0-.024,1.044q1.846,1.877,3.726,3.726c.325.318.7.259,1.075-.066a7.647,7.647,0,0,1,1.417-1.144,3.594,3.594,0,0,1,4.092.387,11.077,11.077,0,0,1,1.707,1.707,3.658,3.658,0,0,1,.035,4.68,7.414,7.414,0,0,1-4.224,2.9C37.634,89.485,36.843,89.543,36.062,89.65ZM24.168,75.061a14.045,14.045,0,0,0,.283,1.839,14.216,14.216,0,0,0,9.394,9.9,7.09,7.09,0,0,0,3.954.249,5.448,5.448,0,0,0,3.042-2.181,1.378,1.378,0,0,0-.173-1.759c-.366-.387-.743-.767-1.134-1.13a1.415,1.415,0,0,0-2,0c-.218.2-.422.425-.639.629a3,3,0,0,1-4.113.041q-2.053-1.939-4-4a3,3,0,0,1,.041-4.11c.2-.221.425-.422.629-.639a1.417,1.417,0,0,0,.007-2.008q-.56-.6-1.158-1.158a1.425,1.425,0,0,0-1.832-.09A5.369,5.369,0,0,0,24.168,75.061Z" transform="translate(-12.59 -58.826)" fill="#fff"/></g></g></svg>