<svg xmlns="http://www.w3.org/2000/svg" width="80.995" height="81" viewBox="0 0 80.995 81"><g transform="translate(0.498 0.5)"><g transform="translate(0 0)"><path d="M61.987,145.323h-5.62a2.876,2.876,0,0,0-.518-.138,39.752,39.752,0,0,1-15.5-4.535,1.82,1.82,0,0,0-1.224-.124c-3.353.9-6.691,1.839-10.03,2.786-2.316.657-4.624,1.341-6.933,2.012H20.913c-1.645-.906-2-1.735-1.514-3.5,1.528-5.447,3.062-10.887,4.562-16.341a1.925,1.925,0,0,0-.09-1.293A40.05,40.05,0,0,1,64.752,65.7a38.518,38.518,0,0,1,19.48,8.447A39.3,39.3,0,0,1,98.541,98.3c.256,1.4.415,2.82.622,4.224v5.627c-.173,1.279-.311,2.571-.532,3.843a40.043,40.043,0,0,1-32.337,32.7C64.87,144.95,63.425,145.115,61.987,145.323ZM24.95,139.544c.207-.041.3-.062.394-.083,4.424-1.23,8.855-2.426,13.258-3.719a4.186,4.186,0,0,1,3.477.422,34.5,34.5,0,0,0,21.885,4.12,34.935,34.935,0,0,0,17.067-7.272A35.269,35.269,0,0,0,50.92,71.034,34.171,34.171,0,0,0,30.957,84.181a34.564,34.564,0,0,0-6.726,25.957,33.633,33.633,0,0,0,4.348,12.74,3.121,3.121,0,0,1,.3,2.606C27.57,130.129,26.284,134.774,24.95,139.544Z" transform="translate(-19.165 -65.323)" fill="#1faabc"/><path d="M62.023,145.823H56.3l-.066-.019c-.064-.018-.123-.038-.181-.056a1.26,1.26,0,0,0-.242-.065,40.455,40.455,0,0,1-15.69-4.59,1.281,1.281,0,0,0-.563-.121,1.125,1.125,0,0,0-.295.036c-3.5.937-7.009,1.929-10.027,2.785-1.576.447-3.176.915-4.724,1.367L22.3,145.8l-.068.02H20.784l-.113-.062c-1.849-1.018-2.308-2.083-1.754-4.07l.857-3.055c1.222-4.352,2.485-8.852,3.7-13.285a1.438,1.438,0,0,0-.05-.926,41.941,41.941,0,0,1-4.4-13.6,40.978,40.978,0,0,1,.615-14.266A39.78,39.78,0,0,1,24.714,84.02a40.384,40.384,0,0,1,34.428-19.2,42.41,42.41,0,0,1,5.677.386,39.086,39.086,0,0,1,19.729,8.555,41.422,41.422,0,0,1,9.495,10.88,40.432,40.432,0,0,1,4.99,13.564c.171.94.3,1.9.426,2.82.063.466.129.948.2,1.419l.005.036v5.7l0,.033c-.051.379-.1.767-.148,1.142-.113.893-.23,1.816-.387,2.72a41.162,41.162,0,0,1-3.629,11.263,40.083,40.083,0,0,1-6.779,9.7,40.941,40.941,0,0,1-10.163,7.911,40.249,40.249,0,0,1-12.17,4.239c-.988.177-2,.314-2.972.445-.444.06-.9.122-1.352.187Zm-5.583-1h5.511c.442-.064.891-.124,1.325-.183.965-.13,1.963-.265,2.929-.438a39.543,39.543,0,0,0,31.933-32.3c.153-.882.269-1.794.381-2.675.046-.366.094-.744.144-1.117v-5.557c-.068-.465-.133-.937-.195-1.395-.124-.913-.252-1.858-.419-2.776A38.954,38.954,0,0,0,83.916,74.539,38.1,38.1,0,0,0,64.685,66.2a41.4,41.4,0,0,0-5.543-.377,39.549,39.549,0,0,0-34.827,58.138,2.422,2.422,0,0,1,.127,1.658c-1.219,4.433-2.483,8.934-3.705,13.287l-.857,3.054c-.415,1.491-.178,2.1,1.163,2.863h1.05l2.137-.623c1.549-.453,3.151-.921,4.731-1.369,3.022-.857,6.538-1.85,10.037-2.788a2.1,2.1,0,0,1,.558-.071,2.235,2.235,0,0,1,1.03.237,39.459,39.459,0,0,0,15.3,4.478,2,2,0,0,1,.476.112Zm2.566-3.7a34.993,34.993,0,0,1-17.17-4.521,3.881,3.881,0,0,0-1.93-.559,4.124,4.124,0,0,0-1.164.18c-3.265.959-6.6,1.879-9.825,2.769-1.127.311-2.293.633-3.439.952l-.022.005c-.1.024-.211.046-.408.086l-.8.16.22-.785q.664-2.373,1.314-4.71c.856-3.071,1.741-6.247,2.619-9.352a2.623,2.623,0,0,0-.255-2.217,34.216,34.216,0,0,1-4.413-12.93,36.882,36.882,0,0,1,.757-13.85,35.466,35.466,0,0,1,6.065-12.469A34.684,34.684,0,0,1,50.805,70.547a36.559,36.559,0,0,1,8.4-.987,35.728,35.728,0,0,1,29.64,15.8,36.4,36.4,0,0,1,4.972,11,35.853,35.853,0,0,1-12.48,37.049,37.205,37.205,0,0,1-8.164,4.86,34.985,34.985,0,0,1-9.144,2.513A37.717,37.717,0,0,1,59.006,141.122Zm-19.1-6.081a4.836,4.836,0,0,1,2.416.685,34,34,0,0,0,16.684,4.4,36.714,36.714,0,0,0,4.891-.334,34.774,34.774,0,0,0-4.69-69.228,35.557,35.557,0,0,0-8.172.96A33.708,33.708,0,0,0,31.357,84.481a34.157,34.157,0,0,0-6.63,25.594,33.22,33.22,0,0,0,4.284,12.552,3.638,3.638,0,0,1,.352,3c-.876,3.1-1.722,6.133-2.617,9.344q-.539,1.932-1.084,3.886c1-.278,2.009-.556,2.989-.826,3.221-.889,6.552-1.808,9.811-2.765A5.108,5.108,0,0,1,39.906,135.042Z" transform="translate(-19.165 -65.323)" fill="#1faabc"/><path d="M50.281,111.332a28.8,28.8,0,0,1-15.263-6.076A33.209,33.209,0,0,1,23.149,89.385a19.241,19.241,0,0,1-.567-12.166,15.288,15.288,0,0,1,6.111-7.956,7.366,7.366,0,0,1,9.277.781c.871.816,1.721,1.666,2.537,2.537a7.588,7.588,0,0,1,.159,10.286c-.415.47-.878.892-1.306,1.348a1.387,1.387,0,0,0-.048,2.088Q43,90.055,46.762,93.753c.65.636,1.4.518,2.15-.131a15.291,15.291,0,0,1,2.834-2.288,7.188,7.188,0,0,1,8.184.774,22.152,22.152,0,0,1,3.415,3.415,7.316,7.316,0,0,1,.069,9.36c-2.226,2.751-4.839,5.053-8.447,5.8C53.426,111,51.843,111.118,50.281,111.332ZM26.495,82.154a28.085,28.085,0,0,0,.567,3.677c2.813,9.857,9.228,16.348,18.788,19.8a14.181,14.181,0,0,0,7.908.5c2.668-.581,4.472-2.364,6.083-4.362a2.756,2.756,0,0,0-.346-3.519c-.733-.774-1.486-1.535-2.267-2.26a2.831,2.831,0,0,0-4.009.007c-.436.408-.843.85-1.279,1.258a5.99,5.99,0,0,1-8.226.083q-4.106-3.878-8-8a6,6,0,0,1,.083-8.219c.408-.442.85-.843,1.258-1.279a2.833,2.833,0,0,0,.014-4.016q-1.12-1.192-2.316-2.316a2.85,2.85,0,0,0-3.664-.18C28.333,75.6,26.377,78.318,26.495,82.154Z" transform="translate(-3.339 -49.685)" fill="#1faabc"/><path d="M50.3,111.835l-.054,0a29.163,29.163,0,0,1-15.524-6.175,36.85,36.85,0,0,1-7.243-7.126,32.241,32.241,0,0,1-4.8-8.982A19.651,19.651,0,0,1,22.1,77.073a15.688,15.688,0,0,1,6.3-8.217,7.447,7.447,0,0,1,4.36-1.388,8.139,8.139,0,0,1,5.549,2.209c.879.823,1.74,1.684,2.561,2.561a8.088,8.088,0,0,1,.17,10.957c-.253.287-.522.555-.781.814-.179.178-.363.362-.536.547-.7.749-.215,1.234-.057,1.394,2.258,2.3,4.694,4.732,7.447,7.447a.828.828,0,0,0,.581.277,1.479,1.479,0,0,0,.891-.431c.212-.187.432-.39.644-.587a10.73,10.73,0,0,1,2.287-1.767,8.41,8.41,0,0,1,3.829-.982,7.8,7.8,0,0,1,4.894,1.808,22.583,22.583,0,0,1,3.494,3.492,7.93,7.93,0,0,1,1.839,4.988,7.77,7.77,0,0,1-1.769,5,20.662,20.662,0,0,1-3.8,3.741,12.5,12.5,0,0,1-4.936,2.234c-1.061.219-2.148.345-3.2.468-.5.058-1.017.118-1.521.188ZM32.761,68.468a6.451,6.451,0,0,0-3.778,1.2,14.73,14.73,0,0,0-5.923,7.695,18.69,18.69,0,0,0,.561,11.858,32.86,32.86,0,0,0,11.7,15.635,28.206,28.206,0,0,0,14.948,5.973c.5-.067,1-.126,1.487-.183,1.03-.12,2.094-.244,3.112-.454,3-.62,5.514-2.355,8.159-5.624a6.778,6.778,0,0,0-.067-8.728A21.588,21.588,0,0,0,59.62,92.5a6.827,6.827,0,0,0-4.274-1.593,7.42,7.42,0,0,0-3.373.872,9.846,9.846,0,0,0-2.064,1.61c-.217.2-.441.409-.667.608a2.4,2.4,0,0,1-1.548.677,1.8,1.8,0,0,1-1.282-.564c-2.759-2.721-5.2-5.16-7.458-7.458a1.877,1.877,0,0,1,.038-2.778c.186-.2.377-.388.561-.572.26-.259.505-.5.737-.766a7.128,7.128,0,0,0-.149-9.613c-.807-.862-1.653-1.707-2.514-2.514A7.141,7.141,0,0,0,32.761,68.468Zm17.863,38.5h0a14.541,14.541,0,0,1-4.943-.868,31.207,31.207,0,0,1-12.116-7.62,29.511,29.511,0,0,1-6.984-12.511,15.8,15.8,0,0,1-.441-2.6c-.042-.375-.085-.763-.14-1.138l0-.028v-.029c-.108-3.512,1.408-6.447,4.771-9.234a3.106,3.106,0,0,1,2-.7,3.456,3.456,0,0,1,2.325.9c.8.754,1.589,1.541,2.341,2.341a3.334,3.334,0,0,1-.011,4.7c-.2.217-.412.423-.614.623s-.438.432-.643.655a5.464,5.464,0,0,0-.087,7.536c2.642,2.789,5.328,5.476,7.985,7.985a5.3,5.3,0,0,0,3.655,1.459A5.754,5.754,0,0,0,51.6,96.884c.21-.2.42-.409.624-.614s.428-.432.653-.642a3.481,3.481,0,0,1,2.361-.971,3.4,3.4,0,0,1,2.333.966c.719.668,1.468,1.414,2.287,2.28a3.578,3.578,0,0,1,.949,2.033,2.87,2.87,0,0,1-.576,2.141c-1.6,1.986-3.48,3.91-6.367,4.538A15.385,15.385,0,0,1,50.624,106.967ZM26.994,82.111c.055.382.1.768.14,1.142a14.829,14.829,0,0,0,.408,2.441c2.7,9.467,8.919,16.016,18.477,19.465a13.544,13.544,0,0,0,4.6.809h0a14.381,14.381,0,0,0,3.028-.329c2.583-.562,4.314-2.345,5.8-4.187a2.248,2.248,0,0,0-.32-2.862c-.8-.849-1.538-1.581-2.244-2.237a2.378,2.378,0,0,0-1.649-.695,2.451,2.451,0,0,0-1.679.7c-.21.2-.421.409-.625.615s-.428.431-.652.642l0,0a6.752,6.752,0,0,1-4.565,1.81A6.294,6.294,0,0,1,43.37,97.7C40.7,95.176,38,92.476,35.346,89.673a6.294,6.294,0,0,1-1.726-4.451,6.71,6.71,0,0,1,1.805-4.452c.221-.24.452-.468.675-.688.2-.2.4-.392.585-.593a2.339,2.339,0,0,0,.015-3.332c-.738-.785-1.509-1.557-2.294-2.294a2.443,2.443,0,0,0-1.643-.628,2.108,2.108,0,0,0-1.357.467C28.265,76.307,26.9,78.9,26.994,82.111Z" transform="translate(-3.339 -49.685)" fill="#1faabc"/></g></g></svg>