<svg xmlns="http://www.w3.org/2000/svg" width="78.282" height="85" viewBox="0 0 78.282 85"><path d="M-65.951,263.18c.839,2.319,1.648,4.57,2.467,6.817q5.185,14.215,10.361,28.432c.241.667.495,1.006,1.28.95.937-.066,1.243.311,1.254,1.282.013,1.139.009,2.278,0,3.417s-.255,1.4-1.422,1.405q-8.311.008-16.622,0l-33.06,0c-1.511,0-1.7-.186-1.7-1.7,0-.985-.006-1.97,0-2.955.008-1.191.284-1.464,1.469-1.476.335,0,.671,0,1.154,0L-112.1,269.068l-.168.033v30.16c1.7.254,1.7.267,1.7,1.984,0,1.016,0,2.032.011,3.047a1.031,1.031,0,0,1-1.174,1.194q-4.063-.008-8.126,0c-.813,0-1.167-.422-1.159-1.213.01-.985,0-1.97,0-2.955,0-1.791.015-1.806,1.816-2.053v-.978q0-17.593.02-35.186a1.863,1.863,0,0,0-.752-1.632,7.662,7.662,0,0,1-2.307-8.372,7.625,7.625,0,0,1,7.27-5.15c4.124-.04,8.249-.012,12.374-.012l34.63,0a7.4,7.4,0,0,1,7.19,4.422,7.625,7.625,0,0,1-4.356,10.511Zm-43.769-1.852h35.837c2.092,0,4.186.026,6.278-.01a5.678,5.678,0,0,0,5.594-5.7,5.75,5.75,0,0,0-6.065-5.722q-20.311-.011-40.622,0c-.264,0-.529.023-.993.045a8,8,0,0,1,2.439,5.635A8.017,8.017,0,0,1-109.719,261.328Zm-4.69,38V263.4l-2.745-.294v36.223Zm-.589-38a5.686,5.686,0,0,0,5.755-5.721,5.722,5.722,0,0,0-5.7-5.7,5.722,5.722,0,0,0-5.7,5.691A5.68,5.68,0,0,0-115,261.322Zm62.383,40.114h-48.711v2.017h48.711Zm-27.43-2.136c-.1-.32-.178-.61-.28-.892q-3.738-10.277-7.481-20.552-2.511-6.893-5.04-13.779c-.1-.279-.342-.674-.568-.711a12.222,12.222,0,0,0-1.923-.034c.07.288.086.408.128.519q6.356,17.081,12.717,34.159c.518,1.391.53,1.387,2.015,1.34C-80.357,299.347-80.237,299.323-80.046,299.3Zm8.4.054c-.184-.539-.323-.973-.479-1.4q-4.48-12.3-8.962-24.605c-1.115-3.061-2.221-6.127-3.362-9.178-.121-.322-.413-.745-.7-.808a9.061,9.061,0,0,0-1.875-.038c.122.353.187.554.261.751q4.667,12.531,9.334,25.06c1.191,3.2,2.4,6.386,3.572,9.59a.792.792,0,0,0,.938.635C-72.526,299.324-72.132,299.354-71.643,299.354Zm-6.96-35.922c.1.276.182.533.277.786Q-72.019,281.111-65.709,298c.562,1.506.7,1.581,2.372,1.216-.094-.292-.178-.583-.281-.867q-6.051-16.594-12.11-33.185c-.714-1.953-.739-1.944-2.667-1.823A1.286,1.286,0,0,0-78.6,263.433Zm8.333-.107c.135.409.218.694.322.972q6.317,16.895,12.611,33.8c.376,1.015.86,1.457,1.907,1.257.119-.023.241-.031.473-.061-.153-.465-.282-.9-.436-1.322q-4.392-12.048-8.789-24.095c-1.191-3.265-2.371-6.534-3.585-9.79-.109-.293-.393-.673-.654-.725A9.978,9.978,0,0,0-70.27,263.326Zm-41.839,0c.5,1.353.965,2.587,1.426,3.82q5.754,15.385,11.512,30.768c.571,1.523.588,1.518,2.208,1.419.049,0,.095-.057.186-.115-.061-.19-.118-.392-.19-.588q-3.265-8.977-6.532-17.952-3.031-8.323-6.083-16.638a1.164,1.164,0,0,0-.683-.682A10.494,10.494,0,0,0-112.109,263.324Zm8.4.093c.5,1.343.973,2.635,1.456,3.926q5.773,15.418,11.552,30.835c.5,1.344.7,1.417,2.3,1.021-.3-.838-.6-1.672-.905-2.5q-5.778-15.86-11.559-31.718c-.633-1.733-.653-1.726-2.512-1.646A2.534,2.534,0,0,0-103.711,263.416Zm-3.923.006c.085.265.16.526.252.78q6.127,16.8,12.259,33.606c.625,1.712.637,1.707,2.486,1.5.024,0,.046-.03.138-.093-.094-.291-.183-.611-.3-.92q-6.305-16.836-12.616-33.669C-105.966,263.151-105.978,263.156-107.634,263.422ZM-74.2,263.4c.076.269.12.477.192.675q6.134,16.816,12.272,33.63c.661,1.812.667,1.81,2.669,1.578a6.575,6.575,0,0,0-.179-.7c-.6-1.614-1.214-3.223-1.818-4.836q-5.433-14.517-10.87-29.034C-72.495,263.216-72.046,263.227-74.2,263.4Zm-8.363.01c.106.327.182.589.275.844q1.53,4.207,3.063,8.411,4.583,12.571,9.17,25.141c.606,1.656.63,1.648,2.4,1.538a1.741,1.741,0,0,0,.269-.078c-.118-.342-.227-.687-.353-1.024q-6.291-16.81-12.582-33.619C-80.85,263.207-80.835,263.2-82.563,263.406Zm6.763,35.948c-.119-.4-.188-.692-.292-.971q-6.286-16.855-12.577-33.708c-.568-1.523-.563-1.525-2.215-1.248.054.205.091.411.162.605q2.035,5.591,4.077,11.18,4.276,11.746,8.539,23.5c.173.479.393.711.922.655C-76.765,299.318-76.339,299.354-75.8,299.354Zm-8.372-.081c-.121-.359-.219-.677-.335-.988Q-90.8,281.4-97.1,264.514c-.5-1.335-.694-1.439-2.158-1.031.041.145.073.294.124.435q6.187,16.974,12.379,33.946c.572,1.566.583,1.562,2.257,1.486A2.624,2.624,0,0,0-84.171,299.272Zm-34.8,4.19c.3.017.6.048.89.049,1.289.005,2.578,0,3.867,0,1.974,0,1.974,0,1.584-2.087-.221-.021-.457-.061-.694-.062-1.864-.005-3.727,0-5.648,0Z" transform="translate(122.656 -220.487)" fill="#fff"/><path d="M37.38,207.268a8.506,8.506,0,1,1,8.507-8.5A8.479,8.479,0,0,1,37.38,207.268Zm-.04-2.013a6.5,6.5,0,1,0-6.489-6.535A6.488,6.488,0,0,0,37.34,205.255Z" transform="translate(27.208 -184.165)" fill="#fff"/><path d="M-58.728,193.189c.349.291.777.473.836.738a2.29,2.29,0,0,1-.21,1.181,15.388,15.388,0,0,0-.979,2.514,3.566,3.566,0,0,0,1.212,2.967,5.729,5.729,0,0,1,.138,7.668c-.444.508-.951.894-1.576.379-.644-.529-.425-1.091.054-1.674a3.744,3.744,0,0,0-.225-5.189,5.719,5.719,0,0,1-.245-7.8A7.546,7.546,0,0,1-58.728,193.189Z" transform="translate(83.913 -186.013)" fill="#fff"/><path d="M-83.339,193.125c.385.318.815.5.875.764a1.537,1.537,0,0,1-.23,1.157,4.127,4.127,0,0,0-1,2.885,4.157,4.157,0,0,0,1.227,2.6,5.728,5.728,0,0,1,.227,7.585c-.632.758-1.211.931-1.706.454-.615-.592-.323-1.13.129-1.689a3.732,3.732,0,0,0-.262-5.172,5.756,5.756,0,0,1-.46-7.508A9.163,9.163,0,0,1-83.339,193.125Z" transform="translate(99.391 -185.972)" fill="#fff"/><path d="M-9.747,193.7c1-.012,1.465.728,1.119,1.411a2.384,2.384,0,0,1-.275.368A3.778,3.778,0,0,0-8.72,200.8a5.793,5.793,0,0,1,.366,7.594c-.1.12-.193.24-.3.35-.436.452-.936.638-1.464.194-.566-.477-.464-1.006-.016-1.527a3.655,3.655,0,0,0,.629-4.272,6.163,6.163,0,0,0-.931-1.248,5.807,5.807,0,0,1-.063-7.6A4.432,4.432,0,0,1-9.747,193.7Z" transform="translate(52.886 -186.334)" fill="#fff"/><path d="M-32.967,194.768a9.671,9.671,0,0,1-.564.942,3.773,3.773,0,0,0,.2,5.252,5.79,5.79,0,0,1,.472,7.517,4.133,4.133,0,0,1-.483.554.943.943,0,0,1-1.4.066.95.95,0,0,1-.063-1.4c1.576-2.2,1.51-3.608-.249-5.67a5.756,5.756,0,0,1,.083-7.65A1.819,1.819,0,0,1-33.688,194C-33.443,194.013-33.224,194.477-32.967,194.768Z" transform="translate(68.37 -186.52)" fill="#fff"/><path d="M-107.447,205.635a4.909,4.909,0,0,0-1.335-3.452,5.743,5.743,0,0,1-.244-7.448c.134-.167.27-.425.438-.456a2.253,2.253,0,0,1,1.322-.033c.527.295.472.857.12,1.364-1.633,2.348-1.573,3.566.262,5.737a5.785,5.785,0,0,1,.1,7.388,3.506,3.506,0,0,1-.371.409.941.941,0,0,1-1.4.043c-.459-.429-.376-.878-.053-1.4C-108.106,206.974-107.7,206.1-107.447,205.635Z" transform="translate(114.861 -186.62)" fill="#fff"/><path d="M51.051,244.438c0,.336.123.75-.029.989-.229.36-.657.832-.988.822a1.356,1.356,0,0,1-.921-.876,6.279,6.279,0,0,1-.036-1.914c.038-.6.43-1.049,1.01-.915a1.873,1.873,0,0,1,.953.9c.146.251.028.656.028.992Z" transform="translate(14.525 -217.083)" fill="#fff"/><path d="M49.13,175.66c0-.3-.021-.612.006-.915.053-.607.42-1.049,1-.922a1.479,1.479,0,0,1,.949.876,6.154,6.154,0,0,1,.038,1.91,1,1,0,0,1-1.992-.034C49.116,176.271,49.129,175.965,49.13,175.66Z" transform="translate(14.461 -173.801)" fill="#fff"/><path d="M28.812,234.059c0,.824-1.662,2.567-2.266,2.487a1.25,1.25,0,0,1-.853-.553,1.143,1.143,0,0,1,.087-1,7.206,7.206,0,0,1,1.476-1.485,1.359,1.359,0,0,1,1.092-.059C28.592,233.534,28.724,233.933,28.812,234.059Z" transform="translate(29.266 -211.316)" fill="#fff"/><path d="M16.5,212.514a2.446,2.446,0,0,1-1.013-.109c-.322-.185-.739-.618-.708-.9a1.293,1.293,0,0,1,.778-.926,5.275,5.275,0,0,1,2.1-.012c.341.068.851.591.825.864a1.667,1.667,0,0,1-.826.993C17.377,212.593,16.938,212.492,16.5,212.514Z" transform="translate(36.095 -196.897)" fill="#fff"/><path d="M72.76,235.683c-.1.132-.264.5-.542.646a1.036,1.036,0,0,1-.924-.039,9.642,9.642,0,0,1-1.61-1.629.944.944,0,0,1,.845-1.438C71.158,233.182,72.741,234.829,72.76,235.683Z" transform="translate(1.58 -211.228)" fill="#fff"/><path d="M72.585,185.547a4.531,4.531,0,0,1-2.2,2.192c-.7.05-1.351-.712-.962-1.271a7.335,7.335,0,0,1,1.926-1.905C71.936,184.176,72.649,184.819,72.585,185.547Z" transform="translate(1.749 -180.507)" fill="#fff"/><path d="M80.693,210.543c.307,0,.679-.11.906.025.373.221.884.588.9.917a1.3,1.3,0,0,1-.822.949,4.373,4.373,0,0,1-2,.01,1.427,1.427,0,0,1-.882-.945c-.094-.569.349-.945.978-.959.307-.007.614,0,.922,0Z" transform="translate(-4.219 -196.917)" fill="#fff"/><path d="M28.666,186.849a.926.926,0,0,1-1.439.807,8.119,8.119,0,0,1-1.675-1.692.929.929,0,0,1,.844-1.42A3.84,3.84,0,0,1,28.666,186.849Z" transform="translate(29.408 -180.568)" fill="#fff"/><path d="M-57.062,259.089c2.092,0,4.185.008,6.277,0,.7,0,1.273.174,1.29.969s-.538,1.045-1.237,1.046q-6.414.006-12.83,0c-.656,0-1.181-.248-1.191-.991-.011-.8.517-1.026,1.231-1.023C-61.37,259.095-59.216,259.089-57.062,259.089Z" transform="translate(86.187 -227.517)" fill="#fff"/><path d="M-9.263,259.037c.429,0,.859-.014,1.288,0,.61.024,1.08.361.973.956a1.4,1.4,0,0,1-.841.979,9.882,9.882,0,0,1-2.835-.009,1.288,1.288,0,0,1-.781-1c.018-.324.536-.73.922-.891A3.565,3.565,0,0,1-9.263,259.037Z" transform="translate(52.618 -227.46)" fill="#fff"/><path d="M44.558,199.368a3.021,3.021,0,0,1,1.161.252c.319.2.7.764.613,1.036-.106.349-.7.852-.987.8a3.671,3.671,0,0,0-3.689,1.331,1.38,1.38,0,0,1-1.288.035c-.524-.3-.468-.889-.11-1.368A5.243,5.243,0,0,1,44.558,199.368Z" transform="translate(20.218 -189.905)" fill="#fff"/><path d="M38.071,211.7c-.034-.834.115-1.4.873-1.455.8-.061,1.065.459,1.085,1.171.005.184.049.366.063.55.049.645-.207,1.107-.875,1.182-.624.069-.962-.321-1.083-.9A4.126,4.126,0,0,1,38.071,211.7Z" transform="translate(21.424 -196.75)" fill="#fff"/></svg>