<svg xmlns="http://www.w3.org/2000/svg" width="40" height="40.025" viewBox="0 0 40 40.025"><g transform="translate(-18.779 -82.181)"><g transform="translate(18.779 82.181)"><path d="M55.108,122.206H22.457a2.314,2.314,0,0,0-.253-.084,4.3,4.3,0,0,1-3.419-4.226q0-9.843-.006-19.686a1.4,1.4,0,0,1,.564-1.176c.551-.434,1.092-.881,1.617-1.351a.811.811,0,0,0,.237-.518c.019-1.562.01-3.124.013-4.686a2.706,2.706,0,0,1,2.8-2.806c2.058,0,4.115-.01,6.17.006a1.164,1.164,0,0,0,.807-.292c1.662-1.4,3.331-2.793,5.013-4.167a4.246,4.246,0,0,1,5.554-.01c1.666,1.354,3.312,2.732,4.955,4.112a1.377,1.377,0,0,0,.979.356c2.058-.019,4.115-.013,6.17-.006a2.709,2.709,0,0,1,2.7,2.709c0,1.2,0,2.4,0,3.594a3.78,3.78,0,0,0,.052,1.465c.188.408.706.664,1.079.985.2.172.415.318.6.505.246.259.463.544.693.82v20.781c-.026.088-.058.168-.081.256a4.282,4.282,0,0,1-2.67,3.13C55.733,122.038,55.415,122.109,55.108,122.206ZM38.8,90.016h-14.6c-.525,0-.642.117-.645.638q0,4.258,0,8.513a.649.649,0,0,0,.256.561q6.8,5.624,13.581,11.264a1.975,1.975,0,0,0,2.813-.006q6.771-5.624,13.548-11.241a.675.675,0,0,0,.279-.587c-.01-2.8-.006-5.6-.006-8.4,0-.664-.081-.745-.732-.745Zm-3.83,22.019L23.6,119.824H53.97l-11.364-7.79a5.658,5.658,0,0,1-3.808,1.9A5.615,5.615,0,0,1,34.965,112.034Zm-13.691,6.52,11.785-8.082L21.18,100.612C21.038,101.483,21.119,118.075,21.274,118.554Zm35.019,0c.152-.486.227-17.161.091-17.936l-11.876,9.857ZM34.356,87.64h8.859c-1.173-.962-2.252-1.9-3.389-2.764a1.662,1.662,0,0,0-2.08,0C36.6,85.738,35.526,86.678,34.356,87.64Z" transform="translate(-18.779 -82.181)" fill="#fff"/><path d="M31.684,89.594q-4.273,0-8.548,0a1.168,1.168,0,0,1-.347-2.288,1.415,1.415,0,0,1,.421-.049q8.472,0,16.948,0a1.175,1.175,0,1,1,0,2.343Z" transform="translate(-11.681 -70.823)" fill="#fff"/><path d="M28.683,88.146c-1.811,0-3.62,0-5.428,0a1.177,1.177,0,1,1,0-2.34q5.424,0,10.852,0a1.177,1.177,0,1,1,0,2.34C32.3,88.15,30.491,88.146,28.683,88.146Z" transform="translate(-11.684 -74.065)" fill="#fff"/></g></g></svg>