<svg xmlns="http://www.w3.org/2000/svg" width="56.679" height="56.714" viewBox="0 0 56.679 56.714"><defs><style>.a{fill:#fcd180;}</style></defs><g transform="translate(0.5 0.5)"><g transform="translate(0 0)"><path class="a" d="M69.348,137.895H23.9a3.216,3.216,0,0,0-.352-.117,5.986,5.986,0,0,1-4.759-5.882q0-13.7-.009-27.4a1.941,1.941,0,0,1,.785-1.637c.767-.6,1.52-1.227,2.251-1.881a1.129,1.129,0,0,0,.329-.722c.027-2.174.014-4.348.018-6.522a3.767,3.767,0,0,1,3.9-3.906c2.864,0,5.728-.014,8.588.009a1.621,1.621,0,0,0,1.123-.406c2.314-1.944,4.637-3.888,6.978-5.8a5.91,5.91,0,0,1,7.731-.014c2.318,1.885,4.61,3.8,6.9,5.724a1.917,1.917,0,0,0,1.362.5c2.864-.027,5.728-.018,8.588-.009A3.77,3.77,0,0,1,71.089,93.6c0,1.669,0,3.338,0,5a5.261,5.261,0,0,0,.072,2.039c.262.568.983.925,1.5,1.371.275.239.577.442.83.7.343.361.645.758.965,1.141V132.78c-.036.122-.081.235-.113.356a5.96,5.96,0,0,1-3.717,4.357C70.218,137.66,69.776,137.759,69.348,137.895ZM46.641,93.086H26.316c-.731,0-.893.162-.9.889q0,5.927,0,11.849a.9.9,0,0,0,.356.78q9.459,7.828,18.9,15.679a2.75,2.75,0,0,0,3.915-.009q9.425-7.828,18.859-15.647a.94.94,0,0,0,.388-.816c-.014-3.9-.009-7.794-.009-11.687,0-.925-.113-1.037-1.019-1.037Zm-5.332,30.65L25.491,134.579H67.764L51.946,123.736c-1.52,1.38-3.076,2.634-5.3,2.643S42.857,125.143,41.31,123.736Zm-19.057,9.075,16.405-11.25L22.121,107.836C21.923,109.049,22.036,132.144,22.252,132.811Zm48.746,0c.212-.677.316-23.888.126-24.966L54.593,121.566ZM40.462,89.78H52.794c-1.633-1.34-3.135-2.648-4.718-3.848a2.313,2.313,0,0,0-2.9,0C43.592,87.132,42.09,88.44,40.462,89.78Z" transform="translate(-18.779 -82.181)"/><path class="a" d="M69.425,138.395H23.815l-.079-.027-.113-.041a1.5,1.5,0,0,0-.183-.06,6.472,6.472,0,0,1-5.15-6.37q0-2.74,0-5.48c0-7.185,0-14.614-.009-21.921a2.452,2.452,0,0,1,.973-2.029c.835-.658,1.562-1.266,2.225-1.859a.652.652,0,0,0,.167-.362c.019-1.5.018-3.028.017-4.506q0-1,0-2.008a4.257,4.257,0,0,1,4.4-4.405l1.08,0q1.607,0,3.214,0c1.663,0,3.029,0,4.3.015a1.123,1.123,0,0,0,.8-.291c2.587-2.173,4.765-3.993,6.981-5.8a6.409,6.409,0,0,1,8.364-.013c2.423,1.97,4.833,3.99,6.9,5.728a1.42,1.42,0,0,0,1.032.379c1.291-.012,2.7-.018,4.306-.018,1.433,0,2.886,0,4.292.009a4.27,4.27,0,0,1,4.26,4.269c0,1.115,0,2.246,0,3.34q0,.833,0,1.664c0,.224-.018.449-.035.667a2.6,2.6,0,0,0,.061,1.163,2.537,2.537,0,0,0,.831.785c.182.131.369.267.543.416.095.082.193.16.3.242a5.538,5.538,0,0,1,.567.493c.258.272.49.557.715.833.091.112.182.224.274.335l.116.139v29.181l-.021.07c-.018.06-.036.115-.054.168s-.039.116-.053.168a6.457,6.457,0,0,1-4.014,4.7,8.49,8.49,0,0,1-.889.289c-.149.042-.29.082-.43.126Zm-45.438-1H69.272c.129-.04.258-.076.383-.112a7.626,7.626,0,0,0,.786-.253,5.438,5.438,0,0,0,3.419-4.012l0-.007c.023-.088.05-.169.074-.241l.022-.067v-28.67l-.167-.2c-.222-.273-.432-.532-.661-.773a4.721,4.721,0,0,0-.465-.4c-.108-.086-.22-.174-.33-.27-.139-.12-.3-.238-.474-.362a3.23,3.23,0,0,1-1.154-1.178,3.3,3.3,0,0,1-.15-1.659c.016-.208.032-.4.032-.589q0-.832,0-1.665c0-1.093,0-2.224,0-3.336a3.253,3.253,0,0,0-3.264-3.272c-1.4,0-2.857-.009-4.288-.009-1.605,0-3.01.006-4.293.018h-.049a2.406,2.406,0,0,1-1.639-.613c-2.067-1.736-4.473-3.753-6.891-5.719a5.411,5.411,0,0,0-7.1.013c-2.211,1.806-4.386,3.623-6.972,5.8a2.124,2.124,0,0,1-1.445.523c-1.271-.01-2.635-.015-4.295-.015q-1.606,0-3.212,0l-1.081,0a3.255,3.255,0,0,0-3.4,3.406q0,1,0,2.007c0,1.482,0,3.014-.017,4.522a1.632,1.632,0,0,1-.49,1.083l-.006.006c-.68.609-1.424,1.231-2.275,1.9a1.451,1.451,0,0,0-.594,1.245c.011,7.307.01,14.737.009,21.922q0,2.74,0,5.48a5.48,5.48,0,0,0,4.364,5.393,2.327,2.327,0,0,1,.319.1Zm45.392-2.315h-45.5L41.353,123.1l.293.266c1.456,1.324,2.932,2.513,4.976,2.513h.022c2.039-.008,3.512-1.194,4.966-2.513l.293-.266Zm-42.274-1H66.151l-14.163-9.709c-1.512,1.346-3.092,2.5-5.34,2.508h-.026c-2.254,0-3.839-1.157-5.354-2.508Zm44.169-.473-17.509-12,17.7-14.694.149.848c.147.838.1,11.509.095,12.723-.015,3.152-.043,6.1-.078,8.3a27.337,27.337,0,0,1-.159,4.176ZM55.422,121.528l15.14,10.378c.138-3.726.213-19.018.115-23.04ZM21.983,133.6l-.206-.637a25.929,25.929,0,0,1-.164-4.159c-.037-2.2-.065-5.137-.081-8.275-.022-4.389-.027-12.02.1-12.776l.141-.862L39.486,121.6Zm.586-24.745c-.048,1.865-.064,6.214-.039,11.472.026,5.4.088,9.82.156,11.578l15.142-10.383ZM46.625,123.6h0a3.558,3.558,0,0,1-2.27-.93c-6.733-5.591-12.8-10.63-18.9-15.678l0,0a1.39,1.39,0,0,1-.533-1.162c.007-2.96.006-5.972.005-8.884q0-1.483,0-2.965a1.179,1.179,0,0,1,1.4-1.389H66.808a1.6,1.6,0,0,1,1.206.321,1.649,1.649,0,0,1,.313,1.216q0,1.166,0,2.332c0,3.065,0,6.235.009,9.354a1.441,1.441,0,0,1-.57,1.2c-6.281,5.2-12.659,10.5-18.827,15.621l-.03.025A3.581,3.581,0,0,1,46.625,123.6ZM26.092,106.221c6.1,5.049,12.17,10.087,18.9,15.677a2.259,2.259,0,0,0,3.276-.009l.031-.025c6.168-5.123,12.547-10.421,18.829-15.623a.454.454,0,0,0,.207-.431c-.011-3.118-.01-6.289-.009-9.356q0-1.166,0-2.331a2.353,2.353,0,0,0-.032-.507,2.294,2.294,0,0,0-.487-.031H26.316a1.35,1.35,0,0,0-.365.031,1.343,1.343,0,0,0-.033.361q0,1.478,0,2.962c0,2.913,0,5.925-.005,8.885A.416.416,0,0,0,26.092,106.221Zm28.1-15.941H39.067l1.077-.886c.473-.389.941-.781,1.394-1.159,1.134-.948,2.205-1.844,3.34-2.7a2.879,2.879,0,0,1,1.745-.61,2.915,2.915,0,0,1,1.752.609c1.11.841,2.159,1.717,3.27,2.645.476.4.967.808,1.466,1.216Zm-12.345-1h9.559l-.4-.335c-1.1-.92-2.142-1.788-3.231-2.614a1.922,1.922,0,0,0-1.15-.408,1.89,1.89,0,0,0-1.141.407c-1.116.843-2.178,1.731-3.3,2.671Z" transform="translate(-18.779 -82.181)"/><path class="a" d="M35.5,90.512q-5.947,0-11.9,0a1.626,1.626,0,0,1-.483-3.185,1.971,1.971,0,0,1,.586-.068q11.793-.007,23.591,0a1.636,1.636,0,1,1,0,3.261Z" transform="translate(-7.656 -64.384)"/><path class="a" d="M29.561,91.013c-2.406,0-4.244,0-5.961-.006a2.126,2.126,0,0,1-.629-4.162,2.442,2.442,0,0,1,.734-.09c7.862,0,15.858,0,23.591,0a2.163,2.163,0,0,1,2.264,2.091,2.05,2.05,0,0,1-.585,1.492,2.315,2.315,0,0,1-1.678.678H29.561ZM47.3,87.751c-7.733,0-15.728,0-23.59,0a1.557,1.557,0,0,0-.436.044l-.006,0a1.128,1.128,0,0,0-.806,1.189A1.111,1.111,0,0,0,23.6,90.008c1.717,0,3.554.006,5.959.006H47.3a1.325,1.325,0,0,0,.963-.376,1.045,1.045,0,0,0,.3-.772A1.17,1.17,0,0,0,47.3,87.751Z" transform="translate(-7.656 -64.384)"/><path class="a" d="M31.324,89.064c-2.521,0-5.038,0-7.555,0a1.638,1.638,0,1,1,0-3.257q7.551-.007,15.106,0a1.638,1.638,0,1,1,0,3.257C36.358,89.069,33.841,89.064,31.324,89.064Z" transform="translate(-7.661 -69.463)"/><path class="a" d="M36.358,89.566l-5.034,0-5.038,0-2.518,0a2.4,2.4,0,0,1-1.745-.69,2.027,2.027,0,0,1-.576-1.477,2.173,2.173,0,0,1,2.318-2.089c2.5,0,5.046,0,7.553,0s5.048,0,7.553,0A2.407,2.407,0,0,1,40.618,86a2.023,2.023,0,0,1,.574,1.475,2.175,2.175,0,0,1-2.318,2.094Zm-5.034-1,5.034,0,2.516,0a1.181,1.181,0,0,0,1.319-1.118,1.017,1.017,0,0,0-.29-.752,1.42,1.42,0,0,0-1.033-.387c-2.505,0-5.047,0-7.553,0s-5.048,0-7.553,0a1.18,1.18,0,0,0-1.318,1.113,1.021,1.021,0,0,0,.292.755,1.417,1.417,0,0,0,1.03.389q2.519,0,5.034,0Z" transform="translate(-7.661 -69.463)"/></g></g></svg>