<svg xmlns="http://www.w3.org/2000/svg" width="29.563" height="40" viewBox="0 0 29.563 40"><defs><style>.a{fill:#fff;}</style></defs><g transform="translate(0.497 0.5)"><g transform="translate(-0.497 -0.5)"><path class="a" d="M33.4,139.231c-.754-.77-1.545-1.509-2.261-2.315a63.311,63.311,0,0,1-7.844-10.688,30.66,30.66,0,0,1-3.606-9.118,15.35,15.35,0,0,1,.522-8.8,12.378,12.378,0,0,1,7.391-7.256,16,16,0,0,1,14.657,1.166,12.049,12.049,0,0,1,5.824,8.831,18.283,18.283,0,0,1-.737,8.179,38.81,38.81,0,0,1-5.427,10.734,75.174,75.174,0,0,1-7.151,8.778,3.934,3.934,0,0,1-.675.483Zm.437-2.972c1.673-2.079,3.333-4.049,4.885-6.1a39.854,39.854,0,0,0,5.642-9.854,17.566,17.566,0,0,0,1.345-8.32,9.828,9.828,0,0,0-5.077-7.87,13.746,13.746,0,0,0-10.87-1.194,10.428,10.428,0,0,0-6.844,5.389,12.083,12.083,0,0,0-.936,7.6,26.009,26.009,0,0,0,2.852,7.974,54.814,54.814,0,0,0,6.56,9.532C32.16,134.341,32.956,135.241,33.833,136.259Z" transform="translate(-18.994 -99.524)"/><path class="a" d="M33.976,139.318h-.909l-.086-.088c-.241-.246-.49-.493-.731-.732-.515-.511-1.047-1.039-1.54-1.593a63.529,63.529,0,0,1-7.88-10.738,30.567,30.567,0,0,1-3.639-9.205,15.59,15.59,0,0,1,.536-8.96,12.645,12.645,0,0,1,7.559-7.423,18,18,0,0,1,6.447-1.261,16.2,16.2,0,0,1,8.467,2.45,12.319,12.319,0,0,1,5.962,9.037,18.535,18.535,0,0,1-.745,8.309,38.732,38.732,0,0,1-5.466,10.816,75.181,75.181,0,0,1-7.179,8.812,2.375,2.375,0,0,1-.516.391c-.073.045-.142.088-.206.133Zm-.662-.587h.481c.051-.034.1-.066.153-.1a1.918,1.918,0,0,0,.4-.292,74.611,74.611,0,0,0,7.125-8.745,38.169,38.169,0,0,0,5.388-10.653,17.965,17.965,0,0,0,.728-8.049A11.756,11.756,0,0,0,41.9,102.27,15.619,15.619,0,0,0,33.734,99.9a17.412,17.412,0,0,0-6.237,1.222,12.079,12.079,0,0,0-7.223,7.089,15.024,15.024,0,0,0-.507,8.631,30,30,0,0,0,3.574,9.03,62.953,62.953,0,0,0,7.808,10.638c.48.54,1.006,1.062,1.515,1.567C32.877,138.293,33.1,138.512,33.313,138.731Zm.322-2.22-.23-.267q-.4-.47-.788-.91c-.577-.665-1.123-1.294-1.657-1.935a54.373,54.373,0,0,1-6.594-9.583,26,26,0,0,1-2.882-8.064,12.339,12.339,0,0,1,.964-7.778,10.3,10.3,0,0,1,2.918-3.545,12.033,12.033,0,0,1,4.108-1.993,15.784,15.784,0,0,1,4.256-.611,13.715,13.715,0,0,1,6.837,1.833,10.109,10.109,0,0,1,5.224,8.092,17.715,17.715,0,0,1-1.363,8.457,39.995,39.995,0,0,1-5.682,9.927c-1.076,1.42-2.179,2.772-3.348,4.2-.5.618-1.026,1.258-1.542,1.9Zm.1-34.1a15.2,15.2,0,0,0-4.1.59,10.174,10.174,0,0,0-6.662,5.239,11.776,11.776,0,0,0-.908,7.419,25.439,25.439,0,0,0,2.822,7.884,53.81,53.81,0,0,0,6.526,9.481c.531.637,1.075,1.263,1.65,1.926l.56.646c.445-.551.891-1.1,1.324-1.629,1.165-1.428,2.265-2.776,3.335-4.188A39.421,39.421,0,0,0,43.88,120a17.159,17.159,0,0,0,1.328-8.182,9.55,9.55,0,0,0-4.93-7.647A13.134,13.134,0,0,0,33.731,102.41Z" transform="translate(-18.789 -99.318)"/><path class="a" d="M35.906,109.652a6.807,6.807,0,1,1-6.826-6.8A6.8,6.8,0,0,1,35.906,109.652Zm-2.494-.008a4.313,4.313,0,1,0-4.3,4.343A4.319,4.319,0,0,0,33.412,109.645Z" transform="translate(-14.313 -94.803)"/><path class="a" d="M28.94,116.532a7.14,7.14,0,0,1-5.059-2.069,7.1,7.1,0,0,1,4.992-12.113h.014a7.089,7.089,0,0,1,5.036,12.094,6.977,6.977,0,0,1-4.973,2.089Zm-.053-13.6h-.013a6.52,6.52,0,0,0-6.495,6.512,6.418,6.418,0,0,0,1.915,4.6,6.557,6.557,0,0,0,4.646,1.9h.009a6.5,6.5,0,0,0-.062-13.009Zm0,11.138a4.621,4.621,0,0,1-.011-9.242h.03a4.621,4.621,0,0,1,0,9.242Zm.019-8.655h-.026a4.034,4.034,0,0,0,.007,8.068H28.9a4.034,4.034,0,0,0,.006-8.068Z" transform="translate(-14.106 -94.596)"/></g></g></svg>