<svg xmlns="http://www.w3.org/2000/svg" width="94.05" height="85" viewBox="0 0 94.05 85"><path d="M-1355.389,1430.6v-10.776c-.27-.015-.518-.039-.766-.04q-3.932,0-7.863,0c-.959,0-1.16-.146-1.489-1.074q-4.625-13.039-9.252-26.077c-.031-.089-.065-.177-.094-.267-.388-1.164.007-1.733,1.218-1.741,1.109-.007,2.219,0,3.329,0h20.968c1.2,0,1.344.093,1.776,1.2q5.117,13.159,10.229,26.319c.388,1-.031,1.63-1.108,1.633-3.613.009-7.225,0-10.838,0h-.891v10.789c.266-.17.494-.3.707-.454,2.75-1.957,5.512-3.9,8.24-5.884a9.476,9.476,0,0,1,5.759-1.844q12.4.014,24.793.011c.614,0,1.229-.029,1.841,0a3.06,3.06,0,0,1,3.063,3.136,3.1,3.1,0,0,1-3.215,3c-.255,0-.51,0-.866,0,0,.487.009.9,0,1.32a4.551,4.551,0,0,1-4.477,4.492q-8.607.05-17.213,0a4.578,4.578,0,0,1-4.519-4.534c-.011-.4,0-.791,0-1.244a5.651,5.651,0,0,0-3.325,1.041q-5.277,3.819-10.49,7.727a1.282,1.282,0,0,0-.331.918q-.028,9.456-.014,18.913c0,.212.009.426-.006.637a1.028,1.028,0,0,1-1.021,1.049,1.018,1.018,0,0,1-1.023-1.046c-.02-.234-.01-.472-.01-.708q0-18.1,0-36.2v-.96h-1.02v1.005q0,19.125,0,38.25a6.484,6.484,0,0,1-.031.919.929.929,0,0,1-1.024.867.946.946,0,0,1-.987-.915,5.529,5.529,0,0,1-.016-.708q0-10.519.013-21.037a1.34,1.34,0,0,0-.631-1.222c-3.221-2.353-6.423-4.733-9.632-7.1a5.943,5.943,0,0,0-3.839-1.377,20.388,20.388,0,0,1-.225,2.16,4.44,4.44,0,0,1-4.229,3.552q-8.747.06-17.5,0a4.5,4.5,0,0,1-4.33-4.261c-.03-.487,0-.978,0-1.54-.413,0-.714.007-1.015,0a3.085,3.085,0,0,1-3.064-2.928,3.031,3.031,0,0,1,2.78-3.18,9.166,9.166,0,0,1,.99-.035c8.524,0,17.047.017,25.571-.013a10.312,10.312,0,0,1,6.406,2.056c2.635,1.953,5.331,3.826,8,5.73C-1355.881,1430.3-1355.683,1430.411-1355.389,1430.6Zm5.242,4.281c.229-.148.425-.261.606-.394,2.755-2.031,5.517-4.052,8.257-6.1a9.467,9.467,0,0,1,5.866-1.942c6.87.016,13.74.005,20.61,0,1.959,0,3.919.008,5.879-.005a.959.959,0,0,0,1.067-.974c-.009-.638-.408-.914-.984-1a2.352,2.352,0,0,0-.354-.009q-13.245,0-26.489.005a7,7,0,0,0-4.171,1.352c-3.142,2.261-6.27,4.542-9.468,6.721A1.972,1.972,0,0,0-1350.148,1434.88Zm-5.3.026a2.024,2.024,0,0,0-.957-2.478c-3.084-2.093-6.1-4.285-9.119-6.477a7.8,7.8,0,0,0-4.768-1.5c-4.934.013-9.868,0-14.8,0q-5.666,0-11.332.006c-.832,0-1.282.356-1.293.984s.428.993,1.255,1c.142,0,.284,0,.425,0,8.593,0,17.187.015,25.78-.006a9.5,9.5,0,0,1,5.885,1.886q2.982,2.22,5.973,4.426C-1357.443,1433.464-1356.473,1434.162-1355.452,1434.906Zm-16.191-6.34h-21.932c-.515,2.018.57,3.7,2.446,3.7,5.64.027,11.28.019,16.92,0a2.488,2.488,0,0,0,2.553-2.1A10.95,10.95,0,0,0-1371.642,1428.566Zm59.63.02h-21.893c-.465,2.43.951,3.755,3.015,3.724,5.354-.082,10.711-.025,16.067-.029C-1312.663,1432.28-1311.484,1430.73-1312.012,1428.587Zm-27.722-10.881c-.919-2.362-1.779-4.6-2.675-6.82a.79.79,0,0,0-.611-.3c-1.2-.029-2.4-.014-3.6-.014h-1.193c.915,2.4,1.764,4.637,2.635,6.868a.559.559,0,0,0,.432.254C-1343.128,1417.712-1341.506,1417.706-1339.734,1417.706Zm-15.216.007c-.13-.392-.208-.661-.306-.922-.636-1.7-1.284-3.392-1.913-5.093-.5-1.342-.2-1.105-1.615-1.122-1.334-.015-2.668,0-4.12,0,.867,2.371,1.685,4.621,2.526,6.864a.554.554,0,0,0,.425.265C-1358.332,1417.719-1356.71,1417.712-1354.951,1417.712Zm-.373-7.133c.107.342.173.586.26.822.542,1.458,1.1,2.91,1.633,4.371.7,1.934.7,1.936,2.759,1.937h3.231a1.229,1.229,0,0,0,0-.309c-.822-2.158-1.644-4.316-2.483-6.467-.057-.144-.246-.336-.375-.338C-1351.944,1410.571-1353.587,1410.579-1355.324,1410.579Zm11.949-2.09c-.068-.256-.087-.371-.128-.478-.763-1.979-1.536-3.955-2.289-5.939a.7.7,0,0,0-.79-.521c-.777.031-1.557.007-2.335.007h-2.327c.872,2.292,1.688,4.448,2.523,6.6a.562.562,0,0,0,.385.319C-1346.714,1408.5-1345.091,1408.489-1343.375,1408.489Zm-15.123,0a1.017,1.017,0,0,0,.016-.254c-.779-2.121-1.555-4.243-2.352-6.357a.553.553,0,0,0-.4-.3c-1.616-.021-3.231-.013-4.971-.013.841,2.3,1.633,4.481,2.448,6.655a.557.557,0,0,0,.427.262C-1361.727,1408.5-1360.128,1408.492-1358.5,1408.492Zm-.1-6.928a1.045,1.045,0,0,0-.014.256c.774,2.1,1.541,4.2,2.348,6.281a.829.829,0,0,0,.633.376c1.2.037,2.4.018,3.6.018h1.192c-.885-2.315-1.7-4.467-2.538-6.611a.56.56,0,0,0-.4-.306C-1355.368,1401.556-1356.965,1401.563-1358.6,1401.563Zm-3.156-2.082c-.107-.343-.177-.609-.273-.866q-.779-2.084-1.568-4.163c-.665-1.751-.666-1.75-2.52-1.75h-3.309c.816,2.25,1.58,4.372,2.366,6.485a.554.554,0,0,0,.416.282C-1365.045,1399.489-1363.448,1399.481-1361.754,1399.481Zm14.759,0c.05-.107.074-.134.068-.149-.8-2.111-1.607-4.224-2.43-6.327a.556.556,0,0,0-.412-.283c-1.575-.02-3.15-.012-4.716-.012-.017.106-.043.159-.029.2.785,2.095,1.57,4.19,2.37,6.28a.494.494,0,0,0,.339.283C-1350.188,1399.483-1348.571,1399.477-1347,1399.477Zm-15.035-6.773c.835,2.225,1.617,4.339,2.437,6.439a.78.78,0,0,0,.6.325c.847.037,1.7.016,2.544.016h2.188c-.863-2.252-1.665-4.36-2.491-6.457a.619.619,0,0,0-.463-.309C-1358.772,1392.695-1360.326,1392.7-1362.031,1392.7Zm-10.466.06c.182.513.347.976.512,1.44q4.043,11.4,8.087,22.806c.284.8.408.849,1.315.56-.045-.132-.088-.263-.135-.393q-4.377-12-8.742-24C-1371.656,1392.633-1371.965,1392.657-1372.5,1392.763Z" transform="translate(1399.818 -1375.99)" fill="#fff"/><path d="M-1156.97,1366.881a5.222,5.222,0,0,1-5.2,5.237,5.221,5.221,0,0,1-5.258-5.178,5.252,5.252,0,0,1,5.235-5.288A5.246,5.246,0,0,1-1156.97,1366.881Zm-5.195,3.158a3.168,3.168,0,0,0,3.126-3.18,3.185,3.185,0,0,0-3.189-3.124,3.2,3.2,0,0,0-3.134,3.189A3.177,3.177,0,0,0-1162.164,1370.04Z" transform="translate(1233.373 -1355.243)" fill="#fff"/><path d="M-1130.568,1561.094c0,.849.008,1.7,0,2.547-.01.791-.408,1.253-1.045,1.244a1.065,1.065,0,0,1-1.03-1.2q-.021-2.618,0-5.236c.006-.76.386-1.179,1.017-1.192.665-.015,1.047.413,1.057,1.216C-1130.56,1559.348-1130.569,1560.221-1130.568,1561.094Z" transform="translate(1208.47 -1495.342)" fill="#fff"/><path d="M-1340.857,1561.069c0,.849.009,1.7,0,2.547-.01.794-.4,1.259-1.031,1.269s-1.04-.453-1.044-1.243q-.013-2.582,0-5.164c0-.8.393-1.231,1.053-1.218.633.013,1,.429,1.02,1.192C-1340.844,1559.324-1340.857,1560.2-1340.857,1561.069Z" transform="translate(1359.081 -1495.342)" fill="#fff"/><path d="M-1176.4,1553.173a4.76,4.76,0,0,1-.521.867q-1.876,1.915-3.79,3.792a1.048,1.048,0,0,1-1.513.1,1.03,1.03,0,0,1,.05-1.564c1.252-1.276,2.5-2.558,3.808-3.774a1.484,1.484,0,0,1,1.188-.264C-1176.879,1552.405-1176.673,1552.861-1176.4,1553.173Z" transform="translate(1244.214 -1491.791)" fill="#fff"/><path d="M-1305.956,1551.423a5.991,5.991,0,0,1,.915.6q1.846,1.809,3.655,3.656a1.064,1.064,0,0,1,.128,1.623,1.072,1.072,0,0,1-1.571-.14q-1.866-1.839-3.71-3.7c-.351-.354-.612-.79-.292-1.264A4.7,4.7,0,0,1-1305.956,1551.423Z" transform="translate(1333.321 -1491.162)" fill="#fff"/><path d="M-1391.72,1557.988c-.27-.223-.677-.4-.78-.687a1.282,1.282,0,0,1,.11-1.1c1.306-1.395,2.668-2.738,4.04-4.069a.917.917,0,0,1,1.393.052.93.93,0,0,1,.038,1.4c-1.312,1.357-2.652,2.688-4,4.01A3.247,3.247,0,0,1-1391.72,1557.988Z" transform="translate(1394.627 -1491.461)" fill="#fff"/><path d="M-1090.5,1556.943c-.22.273-.394.684-.68.788a1.282,1.282,0,0,1-1.1-.106c-1.395-1.306-2.738-2.669-4.068-4.042a.924.924,0,0,1,.049-1.4.919.919,0,0,1,1.393-.043c1.356,1.313,2.687,2.654,4.009,4A3.3,3.3,0,0,1-1090.5,1556.943Z" transform="translate(1182.673 -1491.464)" fill="#fff"/><path d="M-1187.516,1378.5c-.517,0-1.036.026-1.551-.006a1.013,1.013,0,0,1-1.015-1.043,1.025,1.025,0,0,1,1.055-1.008c1.01-.022,2.021-.025,3.031,0a.981.981,0,0,1,1,1.046.952.952,0,0,1-.971,1C-1186.481,1378.525-1187,1378.5-1187.516,1378.5Z" transform="translate(1249.6 -1365.825)" fill="#fff"/><path d="M-1150.644,1341.646c0,.494.023.989-.005,1.481a1.006,1.006,0,0,1-1.029,1.03,1.019,1.019,0,0,1-1.037-1.028q-.043-1.515,0-3.032a1.018,1.018,0,0,1,1.036-1.028,1,1,0,0,1,1.031,1.026C-1150.621,1340.611-1150.644,1341.129-1150.644,1341.646Z" transform="translate(1222.853 -1339.069)" fill="#fff"/><path d="M-1150.643,1405.774c0,.494.019.989,0,1.482a1.047,1.047,0,0,1-1.061,1.08,1.049,1.049,0,0,1-1.011-1.065q-.038-1.481,0-2.964a1.027,1.027,0,0,1,1.067-1.071,1.022,1.022,0,0,1,1.007,1.056c.017.258.005.518.006.776,0,.235,0,.471,0,.706Z" transform="translate(1222.854 -1385.027)" fill="#fff"/><path d="M-1123.314,1376.448c.517,0,1.036-.022,1.552,0a1.021,1.021,0,0,1,1.019,1.042.965.965,0,0,1-.981,1c-1.057.034-2.117.04-3.174,0a.914.914,0,0,1-.93-1.029.945.945,0,0,1,.962-1.006C-1124.351,1376.418-1123.832,1376.448-1123.314,1376.448Z" transform="translate(1203.58 -1365.833)" fill="#fff"/><path d="M-1132.489,1394.954a4.69,4.69,0,0,1,.877.5c.686.642,1.35,1.309,2,1.986a1.014,1.014,0,0,1,.068,1.557,1.009,1.009,0,0,1-1.509-.068,23.582,23.582,0,0,1-2.022-2.062,1.574,1.574,0,0,1-.213-1.2C-1133.224,1395.39-1132.788,1395.2-1132.489,1394.954Z" transform="translate(1208.948 -1379.095)" fill="#fff"/><path d="M-1174.959,1353.015c-.018.9-.965,1.46-1.572.952a25.455,25.455,0,0,1-2.456-2.424.907.907,0,0,1,.1-1.286.9.9,0,0,1,1.28-.145c.874.78,1.675,1.644,2.488,2.49A1.013,1.013,0,0,1-1174.959,1353.015Z" transform="translate(1241.816 -1346.829)" fill="#fff"/><path d="M-1175.87,1395.15c.232.186.622.355.748.64a1.174,1.174,0,0,1-.057,1.025,29.369,29.369,0,0,1-2.375,2.4.91.91,0,0,1-1.333-.112.9.9,0,0,1-.089-1.283c.771-.851,1.61-1.642,2.44-2.438C-1176.415,1395.268-1176.193,1395.258-1175.87,1395.15Z" transform="translate(1241.811 -1379.235)" fill="#fff"/><path d="M-1132.6,1354.264c-.246-.2-.659-.365-.771-.652a1.289,1.289,0,0,1,.089-1.1,27.046,27.046,0,0,1,2.282-2.3.931.931,0,0,1,1.344.027.867.867,0,0,1,.175,1.266c-.784.871-1.638,1.681-2.48,2.5A2.246,2.246,0,0,1-1132.6,1354.264Z" transform="translate(1209.038 -1346.855)" fill="#fff"/></svg>