<svg xmlns="http://www.w3.org/2000/svg" width="173.74" height="85.779" viewBox="0 0 173.74 85.779"><path d="M2558.528,2610.58q.569-3.034,1.137-6.068,1.829-9.851,3.649-19.7c.064-.351.2-.526.572-.466a2.015,2.015,0,0,0,.312,0h93.069a3.205,3.205,0,0,0,.375,0c.388-.045.444.107.369.469-.5,2.4-.978,4.812-1.467,7.218-.78,3.833-1.573,7.664-2.332,11.5-.085.431-.25.521-.649.522q-12.047.056-24.094.137c-.772,0-1.543.036-2.315.024-.322,0-.439.13-.493.419q-.93,5-1.877,10c-.086.451.134.46.472.463q7.133.052,14.267.119c3.859.033,7.719.072,11.578.079.529,0,.612.148.535.642q-1.252,8.052-2.466,16.112c-.135.885-.3,1.767-.388,2.657-.056.566-.312.669-.835.668-8.721-.016-17.441-.006-26.162-.023-.587,0-.845.1-.961.766-.639,3.69-1.342,7.37-2.046,11.048-.1.545.1.607.568.606q12.925-.031,25.849-.038c.753,0,.758,0,.613.711q-1.957,9.538-3.906,19.078c-.1.486-.327.55-.753.55q-10.8,0-21.592.024-12.361.023-24.721.064c-.556,0-.734-.071-.619-.7q2.009-10.865,3.963-21.742c.583-3.215,1.15-6.433,1.754-9.644.1-.548-.227-.407-.485-.407q-7.48-.005-14.959,0c-3.067,0-6.134.01-9.2-.011-.432,0-.6.105-.694.544q-3.064,14.949-6.154,29.894c-.3,1.461-.285,1.463-1.8,1.456q-8.981-.041-17.961-.07c-.5,0-.671-.047-.567-.638,1.155-6.558,2.343-13.109,3.639-19.642.024-.119.025-.242.039-.38-.254.069-.325.284-.447.44-2.053,2.654-4.076,5.336-6.3,7.854-5.054,5.733-11.048,10.071-18.559,11.985a38.073,38.073,0,0,1-21.344-.294,27.8,27.8,0,0,1-14.081-10.419,33.587,33.587,0,0,1-6.353-16.344,56.24,56.24,0,0,1,9.013-38.206,41.611,41.611,0,0,1,17.5-15.453c8.271-3.815,16.882-4.977,25.712-2,7.878,2.656,13.6,7.908,17.6,15.1A38.326,38.326,0,0,1,2558.528,2610.58Zm-13.573,25.711c2.733,0,5.466-.019,8.2.016.519.006.678-.17.739-.633.087-.66.227-1.312.345-1.968.9-5.018,1.792-10.038,2.716-15.052.1-.528-.023-.614-.52-.613-5.007.007-10.014-.014-15.02-.007-.443,0-.606-.106-.667-.566a18.613,18.613,0,0,0-2.984-8.062,14.553,14.553,0,0,0-8.019-6.328,16.54,16.54,0,0,0-7.558-.189,16.99,16.99,0,0,0-7.534,2.821,28.847,28.847,0,0,0-8.511,9.774,34.176,34.176,0,0,0-3.762,14.95,20.882,20.882,0,0,0,1.726,10c2.182,4.448,5.468,7.638,10.659,8.259a18.788,18.788,0,0,0,15.235-4.652,24.982,24.982,0,0,0,5.242-6.329,2.555,2.555,0,0,1,2.708-1.461C2540.277,2636.381,2542.618,2636.291,2544.955,2636.291Zm73.323,29.123v-.122q6.164,0,12.329,0,4.35-.007,8.7-.039c.248,0,.543.1.619-.321.279-1.564.588-3.123.881-4.685.585-3.123,1.13-6.254,1.78-9.363.14-.669-.043-.672-.552-.671q-11.8.026-23.594.033c-.751,0-1.5-.013-2.252.02-.441.019-.484-.188-.411-.531.541-2.55,1-5.116,1.5-7.673.542-2.754,1.1-5.506,1.611-8.267.082-.435.221-.655.778-.653,8.761.028,17.523.013,26.286.035.529,0,.692-.222.719-.644a36.253,36.253,0,0,1,.512-3.706c.324-1.908.629-3.82,1.021-5.715a48.05,48.05,0,0,0,.606-5.066c.046-.468-.143-.542-.558-.535-1.377.024-2.754.009-4.13.009q-10.8,0-21.592,0c-.418,0-.677.033-.552-.576.354-1.718.574-3.463.927-5.18q.948-4.6,1.74-9.233c.091-.533.211-.862.936-.863,8.468-.014,16.937-.08,25.4-.13,1.211-.007,1.22,0,1.464-1.209q1.3-6.431,2.589-12.864c.083-.412,0-.581-.482-.581q-21.372.007-42.745-.025c-.474,0-.581.207-.65.6-.345,1.959-.686,3.918-1.072,5.869q-.616,3.114-1.181,6.237c-.393,2.185-.813,4.366-1.177,6.557-.4,2.391-.884,4.768-1.334,7.151-.411,2.18-.844,4.355-1.229,6.54-.284,1.608-.572,3.214-.918,4.811-.282,1.306-.479,2.63-.72,3.944-.26,1.414-.531,2.825-.79,4.24-.359,1.952-.708,3.907-1.07,5.858-.262,1.413-.547,2.822-.808,4.235-.323,1.754-.624,3.512-.948,5.266-.3,1.632-.631,3.258-.928,4.89-.312,1.715-.567,3.44-.9,5.15-.434,2.205-.818,4.419-1.256,6.622-.14.7.137.589.551.589Q2607.827,2665.41,2618.277,2665.414Zm-65.621-26.566a.658.658,0,0,0-.149-.048q-7.574,0-15.146-.008a.528.528,0,0,0-.486.278,35.616,35.616,0,0,1-5.792,6.851,18.749,18.749,0,0,1-3.321,2.361,25.972,25.972,0,0,1-9.506,2.928,15.911,15.911,0,0,1-5.15-.362,14.88,14.88,0,0,1-7.646-4.606,18.28,18.28,0,0,1-3.536-5.419,18.748,18.748,0,0,1-1.428-6.336,37.768,37.768,0,0,1,.2-6.768,56.986,56.986,0,0,1,.9-5.683,30.305,30.305,0,0,1,3.979-9.458,35.549,35.549,0,0,1,6.515-7.725,14.134,14.134,0,0,1,4.419-2.7,33.2,33.2,0,0,1,6.8-1.673,18.085,18.085,0,0,1,7.206.515c3.446.907,5.978,3.151,8.091,5.895a21.361,21.361,0,0,1,3.675,7.931.773.773,0,0,0,.9.68c4.025-.06,8.051-.077,12.078-.109,1.59-.012,1.6-.013,1.4-1.6a37.8,37.8,0,0,0-1.7-7.127,38.787,38.787,0,0,0-2.724-6.386,29.341,29.341,0,0,0-4.066-5.9,27.255,27.255,0,0,0-5.861-4.917,26.944,26.944,0,0,0-14.667-4.321c-1.476.013-2.949.095-4.423.106a18.989,18.989,0,0,0-5.442.866,39.749,39.749,0,0,0-8.557,3.767,42.647,42.647,0,0,0-7.768,5.846c-.842.8-1.657,1.625-2.422,2.506-1.078,1.24-2.118,2.5-3.074,3.838a52.642,52.642,0,0,0-3.368,5.5,49.666,49.666,0,0,0-2.737,5.973,55.729,55.729,0,0,0-1.71,5.343,51.491,51.491,0,0,0-1.285,6.186,44.97,44.97,0,0,0-.525,5.866,52.864,52.864,0,0,0,.469,10.087,35.5,35.5,0,0,0,1.9,6.746,29.5,29.5,0,0,0,8.34,11.826,27.623,27.623,0,0,0,10.313,5.534,20.7,20.7,0,0,0,5.442.773,78.166,78.166,0,0,0,8.23-.1,31.3,31.3,0,0,0,13.306-4.407,39.213,39.213,0,0,0,10.212-8.8,47.707,47.707,0,0,0,5.984-9.076A36.1,36.1,0,0,0,2552.656,2638.847Zm50.539-20.881c-.151-.011-.293-.029-.435-.03q-10.432-.073-20.864-.141c-1.877-.012-3.755-.023-5.632-.009-.444,0-.572-.1-.448-.555.142-.514.184-1.054.277-1.579.384-2.184.84-4.354,1.246-6.535.435-2.341.843-4.687,1.262-7.03.074-.411.252-.582.729-.579,8.635.052,17.27.07,25.905.128.665,0,.883-.211,1-.824q1.292-6.672,2.655-13.329c.1-.5.05-.589-.448-.59q-8.822-.023-17.645-.08-12.171-.065-24.341-.136c-1.113-.007-1.113-.019-1.325,1.078-.012.062-.025.123-.037.184q-.5,2.689-1.009,5.38-.611,3.231-1.229,6.461-.457,2.391-.9,4.784c-.372,1.993-.733,3.988-1.1,5.982-.3,1.595-.62,3.185-.9,4.781-.434,2.458-.9,4.91-1.359,7.362-.3,1.592-.588,3.187-.894,4.779-.344,1.792-.663,3.59-1.008,5.383-.219,1.135-.436,2.271-.646,3.408-.328,1.776-.645,3.553-.974,5.329-.3,1.6-.614,3.186-.9,4.783-.35,1.938-.66,3.883-1.02,5.82-.393,2.111-.833,4.213-1.233,6.323-.375,1.973-.712,3.954-1.09,5.926-.088.454-.016.625.491.62,2.169-.02,4.339-.014,6.508,0,2.691.016,5.381.047,8.072.076.3,0,.5.018.563-.421.115-.746.216-1.5.361-2.239q.833-4.245,1.74-8.476c.609-2.856,1.259-5.7,1.872-8.559q.659-3.066,1.279-6.141c.359-1.793.617-3.6.972-5.4.055-.278.091-.377.393-.376.769,0,1.538-.055,2.307-.062q12.2-.109,24.4-.2c.546,0,.874-.074.839-.732a4.117,4.117,0,0,1,.129-.905c.438-2.443.913-4.879,1.352-7.322C2602.483,2622.2,2602.829,2620.1,2603.195,2617.966Zm-9.974-13.922c-4,0-8.005.006-12.008-.01-.425,0-.6.082-.684.546-.56,3.258-1.157,6.51-1.747,9.764-.137.755-.146.752.6.754q11.881.03,23.764.077c.56,0,.726-.182.816-.692.583-3.275,1.176-6.549,1.815-9.814.114-.585-.042-.638-.551-.635C2601.225,2604.052,2597.223,2604.044,2593.22,2604.044Z" transform="translate(-2484.301 -2582.7)" fill="#fff"/><path d="M3422.15,2709.021c-6.2,0-12.393-.012-18.588.018-.645,0-.673-.264-.576-.72.733-3.462,1.353-6.946,1.994-10.427.524-2.84,1.114-5.668,1.641-8.507.538-2.893,1.129-5.775,1.62-8.677.375-2.212.879-4.4,1.3-6.606q2.225-11.635,4.431-23.273,1.382-7.268,2.751-14.537c.083-.444.295-.5.679-.494q16.146.143,32.291.268c1.836.015,3.672.042,5.507.014.532-.008.549.158.452.592q-.962,4.326-1.877,8.661c-.092.438-.312.491-.69.492q-7.2.017-14.395.058c-3.942.021-7.885.062-11.828.07-.437,0-.59.112-.681.555-.879,4.288-1.793,8.569-2.687,12.854-.476,2.279-.912,4.566-1.41,6.84-.113.514.026.58.483.582q7.917.027,15.833.082c3.379.022,6.759.055,10.138.074.468,0,.767-.017.638.668-.462,2.455-.84,4.925-1.248,7.39-.037.224-.044.454-.094.674-.25,1.12-.253,1.125-1.435,1.131q-10.044.054-20.089.105c-1.94.011-3.879.051-5.819.037-.449,0-.561.208-.634.558q-1.3,6.209-2.612,12.418c-.619,2.946-1.233,5.892-1.862,8.836-.051.239.019.3.229.305h.5l26.286-.042c.878,0,.885,0,.742.882-.464,2.869-1.118,5.7-1.673,8.552-.093.478-.283.574-.729.574Q3431.445,2709.01,3422.15,2709.021Z" transform="translate(-3287.898 -2629.148)" fill="#fff"/><path d="M2577.461,2676.029a41.314,41.314,0,0,1-5.848,9.257,37.738,37.738,0,0,1-13.687,10.433,25.849,25.849,0,0,1-8.746,2.166,42.8,42.8,0,0,1-8.791.024,23.823,23.823,0,0,1-13.291-5.924,30.5,30.5,0,0,1-9.737-19.239,43.909,43.909,0,0,1,.251-12.257,52.071,52.071,0,0,1,4.327-14.8,50.968,50.968,0,0,1,4.711-7.935,56.837,56.837,0,0,1,3.806-4.668,35.94,35.94,0,0,1,9.182-7.436,25.379,25.379,0,0,1,9.5-3.36,52.968,52.968,0,0,1,7.92-.273,25.224,25.224,0,0,1,11.3,3.285,23.86,23.86,0,0,1,9.892,9.144,41.331,41.331,0,0,1,4.442,11.879,1.57,1.57,0,0,0,.066.236c.171.457.034.618-.47.614-2.67-.019-5.34-.009-8.01-.009-1.441,0-1.4-.013-1.861-1.379a21.245,21.245,0,0,0-4.006-7.262,22.918,22.918,0,0,0-4.927-4.35,13.555,13.555,0,0,0-6.119-2.091,30.085,30.085,0,0,0-3.256-.186,21.859,21.859,0,0,0-10.115,2.232,27.189,27.189,0,0,0-6.81,5.346,36.53,36.53,0,0,0-9.283,16.838,39.767,39.767,0,0,0-.945,5.775,43.024,43.024,0,0,0-.2,5.583,22.622,22.622,0,0,0,2.6,10.361,18.969,18.969,0,0,0,8.357,8.274,17.82,17.82,0,0,0,6.407,1.74,21.937,21.937,0,0,0,12.186-2.609,23.73,23.73,0,0,0,5.229-3.835c1.748-1.647,3.286-3.48,4.875-5.269a.834.834,0,0,1,.679-.349c3.359.009,6.718,0,10.076,0A2.474,2.474,0,0,1,2577.461,2676.029Z" transform="translate(-2512.941 -2617.062)" fill="#fff"/><path d="M3070.854,2635.756c6.217,0,12.433.008,18.65-.013.584,0,.69.123.566.693-.593,2.724-1.15,5.455-1.692,8.19-.1.507-.282.685-.832.687-8.8.027-17.605.088-26.409.114-.61,0-.618.3-.7.747-.7,3.721-1.43,7.437-2.157,11.154q-.877,4.486-1.775,8.969c-.064.314.013.411.324.407.834-.008,1.668,0,2.5,0l24.094.01c.754,0,.8.061.688.82-.42,2.885-.844,5.769-1.237,8.657-.07.511-.323.563-.751.563q-13.174-.011-26.348-.009c-.594,0-.855.065-1,.78-1.058,5.344-2.21,10.669-3.308,16-.982,4.77-1.936,9.546-2.9,14.321-.078.382-.181.615-.695.61-3.066-.027-6.133-.012-9.2.021-.542.006-.715-.073-.594-.674.629-3.1,1.24-6.21,1.8-9.326.437-2.429.9-4.853,1.357-7.278q.755-4.026,1.508-8.053,2.188-11.647,4.334-23.3,1.211-6.505,2.438-13.007.977-5.209,1.952-10.417c.085-.452.251-.655.8-.653,6.2.029,12.391.018,18.587.018Z" transform="translate(-2968.697 -2629.1)" fill="#fff"/></svg>