<svg xmlns="http://www.w3.org/2000/svg" width="120" height="84.375" viewBox="0 0 120 84.375"><g transform="translate(2587 40.281)"><rect width="66" height="57" transform="translate(-2558 -26)" fill="#fff"/><path d="M118.542,17.7A15.078,15.078,0,0,0,107.933,7.024C98.575,4.5,61.05,4.5,61.05,4.5s-37.525,0-46.883,2.524A15.078,15.078,0,0,0,3.557,17.7C1.05,27.121,1.05,46.773,1.05,46.773s0,19.652,2.508,29.071A14.853,14.853,0,0,0,14.167,86.351c9.358,2.524,46.883,2.524,46.883,2.524s37.525,0,46.883-2.524a14.854,14.854,0,0,0,10.609-10.508c2.508-9.419,2.508-29.071,2.508-29.071s0-19.652-2.508-29.071ZM48.777,64.615V28.93L80.141,46.773,48.777,64.615Z" transform="translate(-2588.05 -44.781)" fill="red"/></g></svg>