<svg xmlns="http://www.w3.org/2000/svg" width="56.677" height="56.681" viewBox="0 0 56.677 56.681"><defs><style>.a{fill:#fcd180;}</style></defs><g transform="translate(0.498 0.5)"><g transform="translate(0 0)"><path class="a" d="M48.97,121H45.058a2,2,0,0,0-.361-.1,27.668,27.668,0,0,1-10.787-3.156,1.266,1.266,0,0,0-.852-.087c-2.333.625-4.657,1.28-6.981,1.939-1.612.457-3.219.933-4.826,1.4h-.871a1.765,1.765,0,0,1-1.054-2.434c1.063-3.791,2.131-7.578,3.175-11.374a1.34,1.34,0,0,0-.063-.9A27.875,27.875,0,0,1,50.894,65.588a26.809,26.809,0,0,1,13.558,5.879,27.354,27.354,0,0,1,9.959,16.806c.178.977.289,1.963.433,2.94v3.916c-.12.89-.217,1.79-.37,2.675a27.871,27.871,0,0,1-22.507,22.762C50.976,120.744,49.97,120.859,48.97,121Zm-25.778-4.022c.144-.029.212-.043.274-.058,3.079-.856,6.163-1.689,9.228-2.588a2.914,2.914,0,0,1,2.42.293A24.015,24.015,0,0,0,50.346,117.5a24.315,24.315,0,0,0,11.879-5.061A24.547,24.547,0,0,0,41.267,69.3a23.784,23.784,0,0,0-13.895,9.151,24.057,24.057,0,0,0-4.681,18.066,23.409,23.409,0,0,0,3.026,8.867,2.172,2.172,0,0,1,.212,1.814C25.015,110.429,24.12,113.662,23.191,116.981Z" transform="translate(-19.165 -65.323)"/><path class="a" d="M49.006,121.5H44.99l-.066-.019c-.044-.012-.088-.027-.133-.041a.949.949,0,0,0-.133-.038,28.308,28.308,0,0,1-10.979-3.212.744.744,0,0,0-.321-.067.639.639,0,0,0-.164.019c-2.436.653-4.879,1.343-6.978,1.938-1.1.311-2.209.636-3.286.951l-1.537.448-.068.02h-1.07l-.113-.062a2.245,2.245,0,0,1-1.294-3.007l.6-2.127c.85-3.029,1.73-6.16,2.578-9.245A.87.87,0,0,0,22,106.53a29.345,29.345,0,0,1-3.08-9.516,28.672,28.672,0,0,1,.43-9.982A28.264,28.264,0,0,1,46.99,64.823a29.671,29.671,0,0,1,3.972.27A27.354,27.354,0,0,1,64.768,71.08a28.981,28.981,0,0,1,6.643,7.613A28.293,28.293,0,0,1,74.9,88.184c.12.657.21,1.324.3,1.969.044.324.089.659.138.986l.005.036v3.987l0,.033c-.036.263-.07.533-.1.793-.079.623-.161,1.268-.271,1.9a27.955,27.955,0,0,1-7.283,14.667,28.647,28.647,0,0,1-7.112,5.535,28.165,28.165,0,0,1-8.516,2.966c-.691.124-1.394.219-2.075.311-.308.042-.627.085-.94.13Zm-3.873-1h3.8c.305-.044.614-.085.913-.126.67-.09,1.363-.184,2.032-.3a27.371,27.371,0,0,0,22.1-22.355c.106-.611.186-1.243.264-1.855.032-.252.065-.512.1-.768V91.249c-.047-.321-.091-.646-.134-.961-.086-.634-.175-1.29-.291-1.925a26.964,26.964,0,0,0-9.783-16.508,26.368,26.368,0,0,0-13.309-5.771,28.665,28.665,0,0,0-3.837-.261,27.374,27.374,0,0,0-24.1,40.243,1.826,1.826,0,0,1,.1,1.265c-.849,3.085-1.728,6.218-2.579,9.248l-.6,2.126c-.266.956-.137,1.315.7,1.8h.669l1.467-.428c1.078-.315,2.193-.641,3.294-.953,2.1-.6,4.55-1.287,6.988-1.941a1.608,1.608,0,0,1,.428-.055,1.71,1.71,0,0,1,.788.182,27.312,27.312,0,0,0,10.591,3.1,1.539,1.539,0,0,1,.367.085Zm1.762-2.272a24.506,24.506,0,0,1-12.024-3.166,2.556,2.556,0,0,0-1.269-.37,2.721,2.721,0,0,0-.768.12c-2.274.668-4.6,1.309-6.843,1.928q-1.2.33-2.391.662l-.021.005c-.074.017-.15.033-.289.061l-.8.16.22-.785q.462-1.651.914-3.277c.6-2.138,1.212-4.349,1.824-6.511a1.686,1.686,0,0,0-.162-1.425,23.966,23.966,0,0,1-3.091-9.057,24.6,24.6,0,0,1,4.777-18.429,24.288,24.288,0,0,1,14.18-9.338,25.6,25.6,0,0,1,5.883-.691A25.019,25.019,0,0,1,67.791,79.184a25.485,25.485,0,0,1,3.481,7.7,25.077,25.077,0,0,1-20.86,31.108A26.4,26.4,0,0,1,46.895,118.232ZM33.6,113.7a3.511,3.511,0,0,1,1.756.5,23.517,23.517,0,0,0,11.538,3.04A25.4,25.4,0,0,0,50.279,117,24.051,24.051,0,0,0,47.035,69.12a24.6,24.6,0,0,0-5.653.664,23.313,23.313,0,0,0-13.61,8.964,23.626,23.626,0,0,0-4.585,17.7,22.97,22.97,0,0,0,2.963,8.679,2.677,2.677,0,0,1,.259,2.2c-.61,2.156-1.2,4.268-1.821,6.5q-.339,1.216-.682,2.444l1.819-.5c2.242-.619,4.56-1.259,6.828-1.924A3.7,3.7,0,0,1,33.6,113.7Z" transform="translate(-19.165 -65.323)"/><path class="a" d="M41.636,98.15a20.045,20.045,0,0,1-10.623-4.229,23.114,23.114,0,0,1-8.261-11.046,13.392,13.392,0,0,1-.395-8.468,10.64,10.64,0,0,1,4.253-5.538,5.127,5.127,0,0,1,6.457.544c.606.568,1.2,1.16,1.766,1.766a5.282,5.282,0,0,1,.111,7.159c-.289.327-.611.621-.909.938A.965.965,0,0,0,34,80.728q2.569,2.612,5.186,5.186c.452.443.972.361,1.5-.091a10.642,10.642,0,0,1,1.973-1.592,5,5,0,0,1,5.7.539,15.418,15.418,0,0,1,2.377,2.377,5.092,5.092,0,0,1,.048,6.514A10.32,10.32,0,0,1,44.9,97.7C43.825,97.919,42.723,98,41.636,98.15ZM25.08,77.842a19.548,19.548,0,0,0,.395,2.56C27.433,87.262,31.9,91.78,38.552,94.181a9.87,9.87,0,0,0,5.5.346,7.583,7.583,0,0,0,4.234-3.036,1.918,1.918,0,0,0-.241-2.449c-.51-.539-1.034-1.068-1.578-1.573a1.97,1.97,0,0,0-2.79,0c-.3.284-.587.592-.89.876a4.169,4.169,0,0,1-5.725.058q-2.858-2.7-5.571-5.571a4.173,4.173,0,0,1,.058-5.721c.284-.308.592-.587.876-.89a1.972,1.972,0,0,0,.01-2.8q-.779-.83-1.612-1.612a1.984,1.984,0,0,0-2.55-.125C26.36,73.281,25,75.171,25.08,77.842Z" transform="translate(-8.964 -55.243)"/><path class="a" d="M41.65,98.652l-.054,0A20.445,20.445,0,0,1,30.712,94.32a25.8,25.8,0,0,1-5.071-4.989,22.591,22.591,0,0,1-3.362-6.294,13.824,13.824,0,0,1-.4-8.777,11.064,11.064,0,0,1,4.44-5.8,5.334,5.334,0,0,1,3.123-.995,5.816,5.816,0,0,1,3.965,1.578c.614.575,1.216,1.177,1.79,1.79a5.782,5.782,0,0,1,.122,7.831c-.18.2-.368.392-.551.574-.129.129-.251.251-.37.377-.338.364-.212.588-.043.759,1.571,1.6,3.266,3.292,5.182,5.182a.413.413,0,0,0,.3.149.9.9,0,0,0,.521-.263c.145-.128.29-.262.444-.4a7.582,7.582,0,0,1,1.626-1.253,6,6,0,0,1,2.735-.7,5.579,5.579,0,0,1,3.5,1.291,15.872,15.872,0,0,1,2.455,2.454A5.67,5.67,0,0,1,52.431,90.4a5.558,5.558,0,0,1-1.265,3.578A11,11,0,0,1,45,98.187c-.745.154-1.5.242-2.24.328-.347.04-.706.082-1.056.13ZM29.442,68.468a4.339,4.339,0,0,0-2.541.808,10.106,10.106,0,0,0-4.065,5.276,12.863,12.863,0,0,0,.389,8.159,22.722,22.722,0,0,0,8.089,10.81,19.487,19.487,0,0,0,10.309,4.126c.342-.046.687-.086,1.022-.125.713-.083,1.451-.169,2.153-.314,2.05-.424,3.774-1.615,5.592-3.861a4.569,4.569,0,0,0-.046-5.883,14.876,14.876,0,0,0-2.3-2.3,4.6,4.6,0,0,0-2.881-1.076,5.014,5.014,0,0,0-2.279.59,6.748,6.748,0,0,0-1.4,1.1c-.152.141-.309.286-.467.426a1.818,1.818,0,0,1-1.178.509,1.419,1.419,0,0,1-1-.436c-1.921-1.895-3.62-3.593-5.193-5.193a1.463,1.463,0,0,1,.024-2.144c.132-.14.265-.274.395-.4.179-.179.348-.347.506-.526a4.809,4.809,0,0,0-.1-6.486c-.559-.6-1.146-1.184-1.743-1.743A4.818,4.818,0,0,0,29.442,68.468Zm12.433,26.8h0a10.272,10.272,0,0,1-3.492-.613,21.871,21.871,0,0,1-8.491-5.342,20.69,20.69,0,0,1-4.9-8.771,11.114,11.114,0,0,1-.312-1.838c-.029-.26-.059-.529-.1-.787l0-.028v-.029c-.076-2.5,1-4.576,3.375-6.549a2.314,2.314,0,0,1,1.487-.521,2.559,2.559,0,0,1,1.721.664c.562.528,1.112,1.077,1.637,1.637a2.468,2.468,0,0,1-.007,3.477c-.144.154-.29.3-.432.438s-.3.3-.443.451a3.652,3.652,0,0,0-.062,5.038c1.837,1.939,3.7,3.807,5.551,5.552a3.536,3.536,0,0,0,2.44.974,3.854,3.854,0,0,0,2.6-1.035c.144-.135.283-.275.43-.423s.3-.3.458-.451a2.574,2.574,0,0,1,1.748-.717,2.519,2.519,0,0,1,1.729.714c.5.466,1.025.988,1.6,1.593a2.423,2.423,0,0,1,.268,3.1,8.031,8.031,0,0,1-4.518,3.212A10.861,10.861,0,0,1,41.875,95.264ZM25.579,77.8c.038.265.068.532.1.791a10.211,10.211,0,0,0,.279,1.674A19.374,19.374,0,0,0,38.721,93.71a9.275,9.275,0,0,0,3.153.554h0a9.856,9.856,0,0,0,2.075-.226,7.147,7.147,0,0,0,3.95-2.861,1.43,1.43,0,0,0-.215-1.792c-.557-.588-1.065-1.1-1.555-1.55a1.507,1.507,0,0,0-1.044-.443,1.557,1.557,0,0,0-1.065.448c-.144.135-.283.275-.431.424s-.3.3-.458.451l0,0a4.851,4.851,0,0,1-3.28,1.3,4.532,4.532,0,0,1-3.127-1.247c-1.86-1.757-3.741-3.638-5.591-5.591a4.532,4.532,0,0,1-1.243-3.2,4.822,4.822,0,0,1,1.3-3.2c.156-.169.318-.329.475-.484.141-.139.274-.271.4-.408a1.466,1.466,0,0,0,.011-2.111c-.511-.544-1.046-1.079-1.59-1.59a1.546,1.546,0,0,0-1.04-.4,1.315,1.315,0,0,0-.847.289C26.452,73.854,25.521,75.62,25.579,77.8Z" transform="translate(-8.964 -55.243)"/></g></g></svg>