<svg xmlns="http://www.w3.org/2000/svg" xmlns:xlink="http://www.w3.org/1999/xlink" width="40" height="40" viewBox="0 0 40 40"><defs><clipPath id="b"><rect width="40" height="40"/></clipPath></defs><g id="a" clip-path="url(#b)"><rect width="40" height="40" fill="#fff"/><g transform="translate(2.5 2)"><path d="M31.5,19.5H4.5a1.5,1.5,0,0,1,0-3h27a1.5,1.5,0,0,1,0,3Z"/><path d="M31.5,10.5H4.5a1.5,1.5,0,0,1,0-3h27a1.5,1.5,0,0,1,0,3Z"/><path d="M31.5,28.5H4.5a1.5,1.5,0,0,1,0-3h27a1.5,1.5,0,0,1,0,3Z"/></g></g></svg>