<svg xmlns="http://www.w3.org/2000/svg" width="40" height="40.091" viewBox="0 0 40 40.091"><g transform="translate(0)"><g transform="translate(0)"><path d="M190.158,217.314c2.957.1,5.916.169,8.87.317a11.107,11.107,0,0,1,10.716,9.738,36.276,36.276,0,0,1,.342,4.827c.052,3.349.031,6.7.018,10.05a1.559,1.559,0,0,1-2.118,1.561,1.6,1.6,0,0,1-1.006-1.611c.013-1.486.057-2.972.041-4.458-.03-2.737-.071-5.474-.157-8.209a10.65,10.65,0,0,0-.8-3.844,7.461,7.461,0,0,0-6.54-4.822c-3.28-.281-6.587-.31-9.882-.329-2.748-.016-5.5.11-8.247.226a8,8,0,0,0-7.757,6.915,21.222,21.222,0,0,0-.309,3.263q-.05,6.569,0,13.139a13.76,13.76,0,0,0,.7,4.578,7.486,7.486,0,0,0,6.718,5.3c3.238.3,6.508.313,9.765.332,2.775.016,5.554-.069,8.324-.236a7.864,7.864,0,0,0,7.148-4.7,1.565,1.565,0,1,1,2.837,1.314A10.509,10.509,0,0,1,200.3,257a62.989,62.989,0,0,1-8.153.408q-5.433.023-10.867-.23a11.088,11.088,0,0,1-10.787-9.716,46.635,46.635,0,0,1-.371-7.372c-.021-3.167.015-6.336.069-9.5a16.662,16.662,0,0,1,.962-5.714,10.543,10.543,0,0,1,8.39-6.982,44.041,44.041,0,0,1,6.073-.434c1.509-.064,3.023-.013,4.536-.013Z" transform="translate(-170.12 -217.314)" fill="#fff"/><path d="M234.921,292.88a9.779,9.779,0,1,1,9.747,9.81A9.792,9.792,0,0,1,234.921,292.88Zm9.782,6.679a6.648,6.648,0,1,0-6.651-6.634A6.662,6.662,0,0,0,244.7,299.559Z" transform="translate(-224.767 -272.819)" fill="#fff"/><path d="M356.437,265.514a2.346,2.346,0,1,1-2.329-2.344A2.352,2.352,0,0,1,356.437,265.514Z" transform="translate(-323.284 -255.984)" fill="#fff"/></g></g></svg>