<svg xmlns="http://www.w3.org/2000/svg" width="50.372" height="68.155" viewBox="0 0 50.372 68.155"><defs><style>.a{fill:#fcd180;}</style></defs><g transform="translate(0.497 0.5)"><g transform="translate(0 0)"><path class="a" d="M43.327,166.973c-1.286-1.312-2.632-2.571-3.852-3.944A107.873,107.873,0,0,1,26.11,144.818a52.24,52.24,0,0,1-6.144-15.536,26.155,26.155,0,0,1,.889-14.986,21.091,21.091,0,0,1,12.594-12.363c8.594-3.3,17.035-2.815,24.974,1.987a20.53,20.53,0,0,1,9.923,15.047A31.151,31.151,0,0,1,67.09,132.9a66.127,66.127,0,0,1-9.247,18.29,128.088,128.088,0,0,1-12.184,14.956,6.7,6.7,0,0,1-1.15.824Zm.745-5.064c2.85-3.543,5.678-6.9,8.323-10.389a67.906,67.906,0,0,0,9.613-16.791c1.743-4.563,2.85-9.243,2.292-14.176a16.746,16.746,0,0,0-8.65-13.409A23.422,23.422,0,0,0,37.13,105.11a17.768,17.768,0,0,0-11.661,9.182,20.588,20.588,0,0,0-1.595,12.947,44.316,44.316,0,0,0,4.859,13.588,93.4,93.4,0,0,0,11.178,16.241C41.222,158.641,42.578,160.175,44.072,161.909Z" transform="translate(-19.286 -99.818)"/><path class="a" d="M44.665,167.473H43.117l-.147-.15c-.41-.418-.835-.84-1.245-1.247-.877-.871-1.785-1.771-2.624-2.715a108.246,108.246,0,0,1-13.426-18.3,52.083,52.083,0,0,1-6.2-15.685c-1.154-5.758-.855-10.752.914-15.267a21.545,21.545,0,0,1,12.88-12.647,30.662,30.662,0,0,1,10.985-2.148,27.6,27.6,0,0,1,14.427,4.175,20.99,20.99,0,0,1,10.158,15.4,31.582,31.582,0,0,1-1.27,14.158,65.994,65.994,0,0,1-9.314,18.429,128.1,128.1,0,0,1-12.231,15.015,4.048,4.048,0,0,1-.879.666c-.124.077-.241.15-.351.226Zm-1.128-1h.819c.088-.057.175-.112.261-.165a3.268,3.268,0,0,0,.674-.5,127.133,127.133,0,0,0,12.14-14.9,65.036,65.036,0,0,0,9.181-18.151,30.61,30.61,0,0,0,1.24-13.715,20.03,20.03,0,0,0-9.688-14.7,26.614,26.614,0,0,0-13.91-4.03A29.668,29.668,0,0,0,33.627,102.4,20.582,20.582,0,0,0,21.32,114.478c-1.7,4.332-1.979,9.142-.864,14.706a51.122,51.122,0,0,0,6.089,15.387,107.265,107.265,0,0,0,13.3,18.126c.818.921,1.714,1.81,2.581,2.669C42.794,165.728,43.169,166.1,43.537,166.473Zm.549-3.783-.392-.455q-.69-.8-1.343-1.551c-.984-1.133-1.913-2.2-2.824-3.3a92.646,92.646,0,0,1-11.236-16.329,44.3,44.3,0,0,1-4.91-13.741c-.824-5.115-.287-9.45,1.643-13.253A17.541,17.541,0,0,1,30,108.025a20.5,20.5,0,0,1,7-3.4,26.9,26.9,0,0,1,7.252-1.042A23.368,23.368,0,0,1,55.9,106.71,17.225,17.225,0,0,1,64.8,120.5c.5,4.386-.242,8.965-2.322,14.41a68.147,68.147,0,0,1-9.682,16.914c-1.833,2.419-3.713,4.724-5.7,7.164-.86,1.054-1.749,2.143-2.628,3.237Zm.162-58.1a25.9,25.9,0,0,0-6.982,1,17.335,17.335,0,0,0-11.351,8.927c-1.83,3.607-2.337,7.742-1.547,12.641a43.345,43.345,0,0,0,4.808,13.434,91.685,91.685,0,0,0,11.119,16.154c.9,1.085,1.831,2.152,2.811,3.282l.954,1.1c.758-.938,1.518-1.87,2.256-2.775,1.985-2.433,3.859-4.731,5.682-7.136a67.169,67.169,0,0,0,9.545-16.667c2.021-5.29,2.74-9.72,2.262-13.941a16.272,16.272,0,0,0-8.4-13.03A22.38,22.38,0,0,0,44.248,104.586Z" transform="translate(-19.286 -99.818)"/><path class="a" d="M45.489,114.441a11.6,11.6,0,1,1-11.631-11.592A11.595,11.595,0,0,1,45.489,114.441Zm-4.249-.013a7.349,7.349,0,1,0-7.33,7.4A7.358,7.358,0,0,0,41.24,114.428Z" transform="translate(-9.193 -89.639)"/><path class="a" d="M33.972,126.515a12.166,12.166,0,0,1-8.621-3.526,12.095,12.095,0,0,1,8.506-20.64h.025a12.078,12.078,0,0,1,8.581,20.607,11.889,11.889,0,0,1-8.474,3.559Zm-.09-23.166h-.023a11.11,11.11,0,0,0-11.067,11.1,10.936,10.936,0,0,0,3.263,7.833,11.172,11.172,0,0,0,7.917,3.237h.016a11.083,11.083,0,0,0-.106-22.166Zm0,18.978a7.873,7.873,0,0,1-.019-15.747h.051a7.874,7.874,0,0,1-.007,15.747Zm.032-14.747h-.044a6.873,6.873,0,0,0,.012,13.747h.022a6.874,6.874,0,0,0,.01-13.747Z" transform="translate(-9.193 -89.639)"/></g></g></svg>