<svg xmlns="http://www.w3.org/2000/svg" width="80.274" height="101" viewBox="0 0 80.274 101"><g transform="translate(624.952 -3591.788)"><g transform="translate(-624.452 3592.288)"><path d="M-584.8,3669.57c-.268.581-.435.911-.576,1.252-2.6,6.271-5.213,12.538-7.785,18.822a3.633,3.633,0,0,1-3.274,2.639,3.592,3.592,0,0,1-3.516-2.306c-1.219-2.37-2.52-4.7-3.721-7.076a1.164,1.164,0,0,0-1.674-.72c-2.528.835-5.1,1.545-7.625,2.377a3.59,3.59,0,0,1-4.118-.825c-1.194-1.289-1.095-2.73-.452-4.266,2.5-5.963,4.926-11.953,7.457-17.9.4-.95.2-1.473-.577-1.908a10.022,10.022,0,0,0-1.757-.809,7.618,7.618,0,0,1-5.638-7.356,5.69,5.69,0,0,0-2.314-4.6,7.486,7.486,0,0,1-2.481-8.666,5.681,5.681,0,0,0-.482-5.208,7.475,7.475,0,0,1,.84-8.973,5.58,5.58,0,0,0,1.428-4.933,7.512,7.512,0,0,1,4.123-8.2,5.489,5.489,0,0,0,3-3.953,7.6,7.6,0,0,1,7.026-6.264,4.984,4.984,0,0,0,3.794-2.27c2.33-3.453,5.13-4.553,9.144-3.572a5.07,5.07,0,0,0,4.34-.84c3.258-2.294,6.418-2.3,9.654-.011a5.131,5.131,0,0,0,4.432.837c3.874-.964,6.811.175,9,3.491a5.066,5.066,0,0,0,3.938,2.374,7.578,7.578,0,0,1,6.919,6.142,5.6,5.6,0,0,0,3.1,4.1,7.6,7.6,0,0,1,4.034,8.345,5.159,5.159,0,0,0,1.247,4.517,7.62,7.62,0,0,1,.86,9.541,5.17,5.17,0,0,0-.4,4.583,7.629,7.629,0,0,1-2.594,9.143,5.287,5.287,0,0,0-2.085,4.106c-.2,4.112-2.041,6.484-5.925,7.732a6.191,6.191,0,0,0-.641.232c-1.718.771-1.89,1.2-1.176,2.932q3.649,8.825,7.293,17.654c.954,2.323-.074,4.576-2.351,5.028a4.853,4.853,0,0,1-2.188-.191c-2.621-.753-5.226-1.562-7.82-2.4a1.074,1.074,0,0,0-1.539.637c-1.239,2.432-2.563,4.821-3.817,7.245a3.552,3.552,0,0,1-3.459,2.239,3.555,3.555,0,0,1-3.248-2.534q-3.89-9.464-7.821-18.912C-584.376,3670.5-584.538,3670.16-584.8,3669.57Zm15.438-5.563c3.26.267,4.973-.761,6.006-3.256a7.845,7.845,0,0,1,5.055-4.658,7.317,7.317,0,0,0,2.145-1.094,4.874,4.874,0,0,0,1.721-4.069,7.625,7.625,0,0,1,3.052-6.055c2.125-1.693,2.625-3.524,1.708-6.137a7.738,7.738,0,0,1,.581-6.67c1.485-2.619,1.312-4.256-.632-6.573a7.551,7.551,0,0,1-1.794-6.264c.463-2.908-.277-4.505-2.9-5.944a7.77,7.77,0,0,1-4.059-5.544,4.8,4.8,0,0,0-4.523-4.128,7.844,7.844,0,0,1-5.962-3.606c-1.543-2.337-3.248-3-6.01-2.3a7.733,7.733,0,0,1-6.66-1.282,4.835,4.835,0,0,0-6.362.005,7.751,7.751,0,0,1-6.756,1.251,4.8,4.8,0,0,0-5.859,2.253,7.841,7.841,0,0,1-6.017,3.682,4.768,4.768,0,0,0-4.5,4.037,7.925,7.925,0,0,1-4.338,5.78,4.712,4.712,0,0,0-2.69,5.417,8,8,0,0,1-2.058,7.023,4.6,4.6,0,0,0-.591,5.686,8.282,8.282,0,0,1,.7,7.648,4.508,4.508,0,0,0,1.429,5.287,8.6,8.6,0,0,1,3.555,7.124,4.465,4.465,0,0,0,3.339,4.33,8.259,8.259,0,0,1,5.686,5.16,4.682,4.682,0,0,0,4.98,2.971,7.792,7.792,0,0,1,6.612,2.44c1.959,2.01,3.76,2.333,6.343,1.15a7.681,7.681,0,0,1,6.69,0c2.608,1.2,4.367.852,6.409-1.226A7.575,7.575,0,0,1-569.366,3664.006Zm-38.552-.082c-2.386,5.763-4.723,11.394-7.037,17.035a.87.87,0,0,0,.081.777.963.963,0,0,0,.786.067c2.7-.8,5.4-1.641,8.1-2.458,2.238-.677,3.677-.081,4.775,1.975,1.3,2.434,2.579,4.88,3.892,7.307a3.743,3.743,0,0,0,.7.727,3.608,3.608,0,0,0,.706-.825c1.648-3.919,3.268-7.851,4.895-11.778l2.365-5.706a8.214,8.214,0,0,1-8.33-2.828,3.934,3.934,0,0,0-3.374-1.241A8.151,8.151,0,0,1-607.918,3663.925Zm26.989,7.144c.122.337.191.55.276.756q3.451,8.329,6.918,16.653a4.21,4.21,0,0,0,.676.871,4.3,4.3,0,0,0,.826-.843c1.3-2.4,2.562-4.823,3.85-7.23a3.565,3.565,0,0,1,4.713-1.943c2.58.781,5.148,1.6,7.733,2.36a4.814,4.814,0,0,0,1.27.028,4.769,4.769,0,0,0-.165-1.187q-3.22-7.845-6.485-15.672c-.116-.28-.253-.552-.414-.9a8.153,8.153,0,0,1-7.533,3.017,4.169,4.169,0,0,0-3.6,1.436A8.061,8.061,0,0,1-580.929,3671.069Z" transform="translate(624.452 -3592.289)" fill="#1faabc"/><path d="M-572.975,3692.789c-.07,0-.141,0-.212,0a4.05,4.05,0,0,1-3.688-2.844c-2.032-4.944-4.113-9.965-6.126-14.821l-1.694-4.089c-.036-.088-.074-.175-.115-.267-.039.086-.074.167-.108.25q-.883,2.131-1.768,4.26c-1.98,4.769-4.027,9.7-6.016,14.56a4.105,4.105,0,0,1-3.71,2.949c-.082,0-.164.006-.244.006a4.069,4.069,0,0,1-3.743-2.583c-.549-1.068-1.126-2.147-1.683-3.191-.678-1.269-1.379-2.58-2.039-3.888-.285-.565-.459-.565-.6-.565a1.586,1.586,0,0,0-.471.1c-1.286.425-2.6.824-3.875,1.209-1.233.374-2.509.76-3.75,1.168a5.717,5.717,0,0,1-1.8.32,3.76,3.76,0,0,1-2.846-1.28,3.741,3.741,0,0,1-1.047-2.35,5.477,5.477,0,0,1,.5-2.449c.984-2.351,1.974-4.746,2.932-7.062,1.471-3.558,2.993-7.238,4.526-10.842.313-.736.178-.974-.361-1.277a9.668,9.668,0,0,0-1.668-.77,8.72,8.72,0,0,1-4.316-2.9,8.286,8.286,0,0,1-1.666-4.911,5.221,5.221,0,0,0-2.122-4.22,8.149,8.149,0,0,1-2.865-4.177,8.1,8.1,0,0,1,.222-5.055,5.213,5.213,0,0,0-.442-4.779,8.108,8.108,0,0,1-1.153-4.933,8.145,8.145,0,0,1,2.046-4.626,5.058,5.058,0,0,0,1.31-4.52,7.993,7.993,0,0,1,4.385-8.728,5,5,0,0,0,2.74-3.616,8.113,8.113,0,0,1,7.462-6.656,4.489,4.489,0,0,0,3.432-2.052c1.9-2.822,4.112-4.136,6.949-4.136a11.411,11.411,0,0,1,2.728.358,5.136,5.136,0,0,0,1.215.153,4.612,4.612,0,0,0,2.718-.917,8.927,8.927,0,0,1,5.133-1.816,8.825,8.825,0,0,1,5.1,1.806,4.636,4.636,0,0,0,2.744.925,5.316,5.316,0,0,0,1.279-.165,10.952,10.952,0,0,1,2.63-.345,7.5,7.5,0,0,1,3.866,1.02,9.509,9.509,0,0,1,3.042,3.026,4.584,4.584,0,0,0,3.57,2.151,8.4,8.4,0,0,1,4.79,2.017,8.234,8.234,0,0,1,2.57,4.518,5.122,5.122,0,0,0,2.836,3.759,8.076,8.076,0,0,1,3.644,3.683,8.462,8.462,0,0,1,.654,5.2,4.651,4.651,0,0,0,1.135,4.1,8.742,8.742,0,0,1,2.234,4.892,8.771,8.771,0,0,1-1.322,5.225,4.646,4.646,0,0,0-.362,4.164,8.626,8.626,0,0,1,.312,5.324,8.633,8.633,0,0,1-3.065,4.377,4.78,4.78,0,0,0-1.9,3.74,8.987,8.987,0,0,1-1.682,5.221,9.008,9.008,0,0,1-4.589,2.963,5.745,5.745,0,0,0-.59.213c-.783.351-1.143.594-1.24.836s0,.661.322,1.448q.993,2.4,1.988,4.8c1.742,4.21,3.544,8.563,5.305,12.85a4.464,4.464,0,0,1-.069,3.809,3.755,3.755,0,0,1-2.647,1.9,5.258,5.258,0,0,1-2.424-.2c-2.437-.7-5-1.488-7.836-2.409a1.465,1.465,0,0,0-.428-.086c-.114,0-.27,0-.511.474-.681,1.337-1.4,2.681-2.092,3.98-.571,1.069-1.161,2.174-1.726,3.268A4.061,4.061,0,0,1-572.975,3692.789Zm-11.824-24.423.451,1c.094.208.175.385.247.541.131.286.235.512.331.742l1.694,4.089c2.013,4.856,4.095,9.878,6.127,14.824a3.053,3.053,0,0,0,2.807,2.224,3.043,3.043,0,0,0,2.992-1.969c.568-1.1,1.16-2.207,1.732-3.279.692-1.3,1.407-2.635,2.083-3.963a1.576,1.576,0,0,1,1.4-1.021,2.4,2.4,0,0,1,.737.135c2.825.917,5.377,1.7,7.8,2.4a5.251,5.251,0,0,0,1.428.229,2.722,2.722,0,0,0,.525-.048,2.772,2.772,0,0,0,1.96-1.391,3.474,3.474,0,0,0,.026-2.956c-1.76-4.285-3.562-8.638-5.3-12.847l-1.988-4.805a2.937,2.937,0,0,1-.326-2.2c.24-.6.827-.959,1.76-1.378a6.626,6.626,0,0,1,.693-.252c3.724-1.2,5.392-3.373,5.578-7.279a5.79,5.79,0,0,1,2.272-4.473,7.154,7.154,0,0,0,2.435-8.584,5.651,5.651,0,0,1,.439-5,7.089,7.089,0,0,0-.808-8.965,5.654,5.654,0,0,1-1.359-4.93,7.079,7.079,0,0,0-3.77-7.812,6.057,6.057,0,0,1-3.358-4.442,7.043,7.043,0,0,0-6.479-5.748,5.53,5.53,0,0,1-4.307-2.6c-1.6-2.42-3.584-3.6-6.073-3.6a9.961,9.961,0,0,0-2.388.316,6.308,6.308,0,0,1-1.52.195,5.6,5.6,0,0,1-3.322-1.108,7.746,7.746,0,0,0-4.52-1.622,7.85,7.85,0,0,0-4.557,1.634,5.577,5.577,0,0,1-3.293,1.1,6.133,6.133,0,0,1-1.453-.182,10.6,10.6,0,0,0-2.49-.329c-2.475,0-4.419,1.174-6.12,3.695a5.505,5.505,0,0,1-4.156,2.488,7.081,7.081,0,0,0-6.59,5.873,6.009,6.009,0,0,1-3.255,4.291,7.031,7.031,0,0,0-3.861,7.676,6.054,6.054,0,0,1-1.546,5.346,6.956,6.956,0,0,0-.785,8.386,6.147,6.147,0,0,1,.522,5.636,6.958,6.958,0,0,0,2.32,8.1,6.157,6.157,0,0,1,2.505,4.975,7.148,7.148,0,0,0,5.293,6.9,10.605,10.605,0,0,1,1.846.848,1.756,1.756,0,0,1,.792,2.541c-1.531,3.6-3.052,7.277-4.522,10.833-.958,2.317-1.949,4.713-2.934,7.066-.667,1.594-.557,2.746.357,3.733a2.761,2.761,0,0,0,2.112.959,4.749,4.749,0,0,0,1.483-.269c1.253-.412,2.534-.8,3.773-1.176,1.267-.384,2.577-.78,3.851-1.2a2.522,2.522,0,0,1,.785-.146,1.674,1.674,0,0,1,1.492,1.115c.655,1.3,1.353,2.6,2.028,3.867.559,1.047,1.138,2.129,1.691,3.2a3.087,3.087,0,0,0,3.046,2.036c1.331-.069,2.206-.788,2.837-2.33,1.99-4.862,4.037-9.794,6.018-14.564q.884-2.13,1.768-4.259c.1-.23.2-.454.334-.737.073-.154.155-.328.25-.533Zm11.7,21.731-.348-.437c-.062-.078-.134-.157-.211-.241a2.645,2.645,0,0,1-.534-.748c-2.041-4.88-4.1-9.848-6.089-14.653l-.829-2c-.061-.146-.111-.289-.174-.468-.032-.091-.068-.192-.11-.308l-.3-.825.863.163a10.139,10.139,0,0,0,1.869.184,7.391,7.391,0,0,0,5.737-2.681,4.706,4.706,0,0,1,3.523-1.626,4.776,4.776,0,0,1,.5.026,10.176,10.176,0,0,0,1.054.057,7.581,7.581,0,0,0,6.046-2.9l.506-.6.328.709c.052.113.1.218.149.317.1.206.19.4.273.6l.8,1.926c1.869,4.5,3.8,9.159,5.686,13.747a2.95,2.95,0,0,1,.17.963c.007.124.014.242.028.351l.072.569-.6-.006c-.11,0-.227.007-.35.015s-.27.016-.411.016a2.154,2.154,0,0,1-.622-.079c-1.56-.46-3.139-.948-4.666-1.419-1.006-.311-2.046-.632-3.071-.942a4.836,4.836,0,0,0-1.385-.231,3.027,3.027,0,0,0-2.742,1.931c-.508.95-1.02,1.918-1.516,2.855-.76,1.437-1.546,2.924-2.336,4.378a2.68,2.68,0,0,1-.656.728c-.093.08-.181.155-.256.23Zm-7.064-18.406.806,1.944c1.99,4.8,4.048,9.771,6.088,14.649a1.414,1.414,0,0,0,.256.356,1.548,1.548,0,0,0,.345-.374c.787-1.449,1.572-2.933,2.331-4.368.5-.938,1.009-1.907,1.518-2.859a3.979,3.979,0,0,1,3.624-2.46,5.823,5.823,0,0,1,1.675.274c1.027.311,2.068.633,3.076.944,1.524.47,3.1.957,4.654,1.416a1.21,1.21,0,0,0,.339.038c.08,0,.164,0,.252-.009a1.742,1.742,0,0,0-.089-.519c-1.883-4.586-3.815-9.241-5.684-13.743l-.8-1.927c-.027-.066-.056-.132-.087-.2a8.394,8.394,0,0,1-6.292,2.685,11.164,11.164,0,0,1-1.158-.062,3.788,3.788,0,0,0-.392-.021,3.671,3.671,0,0,0-2.779,1.293,8.339,8.339,0,0,1-6.481,3.013A10.487,10.487,0,0,1-580.167,3671.691Zm-16.427,18.4-.377-.381c-.063-.063-.136-.128-.215-.2a2.389,2.389,0,0,1-.573-.645c-.821-1.517-1.641-3.066-2.435-4.564-.477-.9-.971-1.832-1.459-2.746-.73-1.367-1.574-1.977-2.737-1.977a5.035,5.035,0,0,0-1.452.245c-1.038.314-2.092.636-3.112.947-1.635.5-3.325,1.016-4.992,1.511a1.818,1.818,0,0,1-.5.071,1.116,1.116,0,0,1-.77-.255,1.329,1.329,0,0,1-.2-1.329c1.944-4.739,3.864-9.373,5.9-14.28l1.455-3.512.53.623a7.615,7.615,0,0,0,6.058,2.938,10.05,10.05,0,0,0,1.07-.059,4.812,4.812,0,0,1,.516-.028,4.383,4.383,0,0,1,3.281,1.429,7.828,7.828,0,0,0,5.943,2.89,9.169,9.169,0,0,0,1.913-.213l.932-.2-.938,2.263-1.791,4.323-1.032,2.493c-1.26,3.046-2.564,6.2-3.864,9.288a2.293,2.293,0,0,1-.571.738c-.081.078-.157.152-.22.223Zm-7.8-11.508a4.007,4.007,0,0,1,3.619,2.505c.489.916.982,1.847,1.46,2.749.793,1.5,1.612,3.043,2.431,4.556a1.169,1.169,0,0,0,.245.274,1.2,1.2,0,0,0,.264-.328c1.3-3.088,2.6-6.237,3.862-9.282l1.032-2.494,1.791-4.323.226-.546a9.619,9.619,0,0,1-1.209.079,8.775,8.775,0,0,1-6.682-3.216,3.4,3.4,0,0,0-2.543-1.1,3.831,3.831,0,0,0-.409.022,11.036,11.036,0,0,1-1.178.065,8.4,8.4,0,0,1-6.279-2.694l-.84,2.028c-2.032,4.906-3.952,9.54-5.9,14.277a.524.524,0,0,0-.012.2l.055,0a.829.829,0,0,0,.219-.029c1.664-.495,3.353-1.011,4.986-1.51,1.02-.312,2.076-.634,3.115-.948A6,6,0,0,1-604.389,3678.579Zm25.591-9.726h0a6.938,6.938,0,0,1-2.871-.731,7.51,7.51,0,0,0-3.138-.722,7.51,7.51,0,0,0-3.136.721,6.979,6.979,0,0,1-2.891.732,5.52,5.52,0,0,1-4.019-1.987,7.2,7.2,0,0,0-5.381-2.33c-.269,0-.547.013-.827.039-.193.018-.387.027-.577.027a5.132,5.132,0,0,1-4.914-3.31,7.789,7.789,0,0,0-5.361-4.865,5.137,5.137,0,0,1-2.668-1.77,5.024,5.024,0,0,1-1.033-3.033,8.057,8.057,0,0,0-3.359-6.734,4.991,4.991,0,0,1-1.592-5.861,7.81,7.81,0,0,0-.662-7.212,5.111,5.111,0,0,1,.645-6.276,7.509,7.509,0,0,0,1.939-6.606,5.578,5.578,0,0,1,.406-3.5,5.652,5.652,0,0,1,2.545-2.441,7.425,7.425,0,0,0,4.08-5.433,5.257,5.257,0,0,1,4.933-4.438,7.305,7.305,0,0,0,5.651-3.457,5.207,5.207,0,0,1,4.528-2.728,7.457,7.457,0,0,1,1.877.263,8.02,8.02,0,0,0,2.03.273,7.359,7.359,0,0,0,4.309-1.449,6.005,6.005,0,0,1,3.477-1.289,5.975,5.975,0,0,1,3.464,1.284,7.362,7.362,0,0,0,4.315,1.454,7.919,7.919,0,0,0,1.933-.25,8.2,8.2,0,0,1,2-.278c1.871,0,3.273.861,4.546,2.79a7.3,7.3,0,0,0,5.6,3.385,5.687,5.687,0,0,1,3.284,1.375,5.626,5.626,0,0,1,1.674,3.152,7.247,7.247,0,0,0,3.809,5.2,6.207,6.207,0,0,1,2.813,2.642,6.3,6.3,0,0,1,.336,3.819,7.07,7.07,0,0,0,1.683,5.864c2.085,2.486,2.264,4.354.684,7.141a7.2,7.2,0,0,0-.544,6.258c.987,2.813.41,4.877-1.869,6.693a7.083,7.083,0,0,0-2.864,5.674,5.417,5.417,0,0,1-1.917,4.456,7.814,7.814,0,0,1-2.294,1.172,7.338,7.338,0,0,0-4.749,4.375,5.323,5.323,0,0,1-5.514,3.605c-.311,0-.643-.014-.987-.042-.088,0-.177-.006-.265-.006a7.226,7.226,0,0,0-5.033,2.293A5.641,5.641,0,0,1-578.8,3668.854Zm-6.009-2.453a8.506,8.506,0,0,1,3.555.813,5.981,5.981,0,0,0,2.455.64h0a4.737,4.737,0,0,0,3.389-1.762,8.228,8.228,0,0,1,5.746-2.592c.107,0,.216,0,.322.008h.016c.32.026.627.04.914.04a4.334,4.334,0,0,0,4.59-2.988,8.617,8.617,0,0,1,2.112-3.087,8.812,8.812,0,0,1,3.25-1.855,6.8,6.8,0,0,0,2-1.016,4.321,4.321,0,0,0,1.525-3.682,8.132,8.132,0,0,1,3.241-6.436c1.946-1.55,2.395-3.167,1.548-5.58a8.255,8.255,0,0,1,.618-7.082c1.377-2.429,1.242-3.833-.58-6.005a8.031,8.031,0,0,1-1.9-6.664c.435-2.733-.232-4.1-2.643-5.427a8.3,8.3,0,0,1-4.308-5.885,4.3,4.3,0,0,0-4.088-3.729,8.351,8.351,0,0,1-6.325-3.828c-1.083-1.641-2.193-2.341-3.711-2.341a7.214,7.214,0,0,0-1.759.248,8.924,8.924,0,0,1-2.178.28,8.342,8.342,0,0,1-4.894-1.639,5.028,5.028,0,0,0-2.885-1.1,5.059,5.059,0,0,0-2.9,1.1,8.339,8.339,0,0,1-4.888,1.633,9.018,9.018,0,0,1-2.284-.306,6.463,6.463,0,0,0-1.623-.231,4.228,4.228,0,0,0-3.689,2.272,8.356,8.356,0,0,1-6.382,3.907,4.271,4.271,0,0,0-4.061,3.636,8.752,8.752,0,0,1-1.563,3.617,8.9,8.9,0,0,1-3.034,2.509,4.209,4.209,0,0,0-2.43,4.888,8.665,8.665,0,0,1-.193,3.994,9.187,9.187,0,0,1-1.983,3.447,4.1,4.1,0,0,0-.538,5.1,8.756,8.756,0,0,1,.741,8.084,4.009,4.009,0,0,0,1.266,4.712,9.1,9.1,0,0,1,3.751,7.513,3.974,3.974,0,0,0,2.978,3.857,8.734,8.734,0,0,1,6.012,5.454,4.162,4.162,0,0,0,3.986,2.682c.159,0,.322-.008.484-.023.31-.029.619-.043.919-.043a8.259,8.259,0,0,1,6.1,2.632,4.542,4.542,0,0,0,3.3,1.685,6.02,6.02,0,0,0,2.475-.641A8.5,8.5,0,0,1-584.808,3666.4Z" transform="translate(624.452 -3592.289)" fill="#1faabc"/><path d="M-569.439,3676.194c.046-.2.111-.55.208-.892.928-3.282,1.84-6.57,2.814-9.839a1.073,1.073,0,0,0-.465-1.372c-2.681-2.062-5.334-4.161-7.995-6.251-1.3-1.02-1.71-2.087-1.31-3.375.394-1.271,1.453-1.945,3.123-2,3.381-.12,6.761-.262,10.142-.352a1.031,1.031,0,0,0,1.109-.811c1.144-3.213,2.321-6.415,3.5-9.617a2.924,2.924,0,0,1,2.83-2.26,2.907,2.907,0,0,1,2.756,2.226c1.176,3.2,2.356,6.4,3.5,9.617a1.088,1.088,0,0,0,1.183.85c3.447.087,6.892.218,10.337.36,2.13.088,3.5,1.808,2.849,3.675a4.013,4.013,0,0,1-1.271,1.659c-2.657,2.145-5.354,4.241-8.062,6.322a1.015,1.015,0,0,0-.424,1.3c.967,3.271,1.884,6.557,2.811,9.839.445,1.578.126,2.739-.938,3.5a2.921,2.921,0,0,1-3.619-.193c-2.807-1.886-5.618-3.765-8.4-5.682a1.08,1.08,0,0,0-1.456-.013c-2.891,1.992-5.814,3.939-8.734,5.888a2.747,2.747,0,0,1-3.124.117A2.776,2.776,0,0,1-569.439,3676.194Zm24.8-.022c-.126-.5-.194-.814-.28-1.118q-1.3-4.594-2.606-9.186c-.507-1.8-.22-2.664,1.26-3.824q3.8-2.98,7.6-5.954c.212-.167.4-.366.723-.667-3.717-.143-7.249-.279-10.779-.413a2.905,2.905,0,0,1-3.058-2.219c-.93-2.53-1.845-5.065-2.769-7.6-.284-.778-.579-1.551-.948-2.537-.206.5-.333.776-.439,1.063-1.107,3.019-2.2,6.041-3.314,9.058a2.9,2.9,0,0,1-3.049,2.232q-5.069.188-10.138.376a5.546,5.546,0,0,0-.632.105c.3.255.494.427.7.585q3.76,2.95,7.524,5.9c1.6,1.261,1.87,2.091,1.306,4.074q-1.293,4.545-2.6,9.087c-.08.281-.144.568-.271,1.077l8.959-6.029a2.912,2.912,0,0,1,3.858-.015c2.107,1.411,4.206,2.833,6.31,4.247C-546.461,3674.968-545.631,3675.515-544.642,3676.173Z" transform="translate(595.159 -3620.982)" fill="#1faabc"/><path d="M-566.622,3679.815a3.338,3.338,0,0,1-1.72-.5,3.259,3.259,0,0,1-1.6-3.128v-.052l.012-.051c.012-.053.026-.117.041-.189.042-.2.1-.464.173-.727q.3-1.057.6-2.115c.714-2.537,1.453-5.16,2.219-7.731.126-.422.082-.546-.291-.833-2.107-1.621-4.231-3.291-6.285-4.906l-1.714-1.347c-1.458-1.145-1.942-2.426-1.479-3.917.319-1.028,1.2-2.271,3.583-2.356q1.537-.054,3.074-.113c2.317-.087,4.714-.177,7.073-.239.4-.011.514-.091.652-.478,1.087-3.054,2.222-6.146,3.32-9.137l.178-.485c.785-2.139,2.2-2.587,3.252-2.587h.054a3.376,3.376,0,0,1,3.218,2.553l.276.751c1.067,2.9,2.17,5.905,3.223,8.871.149.419.271.506.725.518,3.633.091,7.268.233,10.346.36a3.688,3.688,0,0,1,2.964,1.531,3.077,3.077,0,0,1,.336,2.807,4.48,4.48,0,0,1-1.43,1.884c-2.909,2.348-5.842,4.616-8.071,6.329-.328.253-.365.366-.249.76.813,2.751,1.6,5.557,2.368,8.27l.444,1.575c.628,2.227-.267,3.427-1.129,4.041a3.182,3.182,0,0,1-1.867.633,4.156,4.156,0,0,1-2.322-.818l-1.362-.915c-2.315-1.554-4.709-3.162-7.046-4.77a.836.836,0,0,0-.455-.2.848.848,0,0,0-.434.188c-2.722,1.875-5.516,3.74-8.218,5.543l-.523.349A3.47,3.47,0,0,1-566.622,3679.815Zm-2.318-3.561a2.263,2.263,0,0,0,1.11,2.2,2.356,2.356,0,0,0,1.208.361,2.492,2.492,0,0,0,1.382-.465l.523-.349c2.7-1.8,5.49-3.664,8.205-5.535a1.745,1.745,0,0,1,1-.365,1.818,1.818,0,0,1,1.022.377c2.333,1.6,4.724,3.211,7.037,4.764l1.363.915a3.206,3.206,0,0,0,1.764.648,2.175,2.175,0,0,0,1.286-.447c.9-.64,1.135-1.579.747-2.955l-.444-1.576c-.764-2.71-1.553-5.513-2.365-8.257a1.5,1.5,0,0,1,.6-1.837c2.226-1.71,5.152-3.973,8.053-6.315a3.521,3.521,0,0,0,1.114-1.435,2.1,2.1,0,0,0-.219-1.916,2.7,2.7,0,0,0-2.178-1.095c-3.073-.126-6.7-.268-10.329-.359a1.582,1.582,0,0,1-1.642-1.183c-1.05-2.96-2.153-5.96-3.219-8.86l-.276-.751a2.426,2.426,0,0,0-2.294-1.9h-.04a2.46,2.46,0,0,0-2.313,1.932l-.178.485c-1.1,2.989-2.232,6.079-3.317,9.128a1.519,1.519,0,0,1-1.568,1.143c-2.354.063-4.747.152-7.062.239q-1.538.057-3.076.113c-1.463.052-2.334.593-2.663,1.653-.339,1.092,0,1.939,1.141,2.833l1.714,1.348c2.052,1.614,4.173,3.282,6.276,4.9a1.56,1.56,0,0,1,.639,1.911c-.764,2.563-1.5,5.183-2.215,7.716q-.3,1.058-.6,2.116c-.066.231-.116.471-.157.663C-568.919,3676.157-568.93,3676.208-568.94,3676.254Zm1.726,1.1.317-1.265c.045-.179.082-.33.115-.464.06-.244.107-.437.161-.628q.529-1.854,1.06-3.706c.5-1.763,1.027-3.586,1.537-5.381s.306-2.412-1.134-3.544c-1.471-1.156-2.968-2.328-4.416-3.462q-1.554-1.217-3.107-2.435c-.139-.109-.274-.224-.429-.358l-.28-.238-.82-.692,1.057-.183c.093-.016.172-.032.248-.047a2.757,2.757,0,0,1,.452-.065c2.283-.086,4.605-.172,6.851-.255l3.286-.121a2.422,2.422,0,0,0,2.6-1.9c.655-1.779,1.316-3.59,1.955-5.341q.679-1.859,1.359-3.717c.073-.2.156-.394.26-.64.054-.128.116-.272.186-.443l.486-1.171.444,1.188c.124.333.24.641.35.933.22.585.41,1.09.6,1.608q.548,1.5,1.092,3c.548,1.507,1.114,3.066,1.677,4.6a2.424,2.424,0,0,0,2.608,1.892l7.193.276,4.792.184-.885.82c-.11.1-.206.195-.291.276a6.2,6.2,0,0,1-.463.417c-1.312,1.029-2.647,2.074-3.938,3.084q-1.833,1.434-3.665,2.87c-1.327,1.041-1.541,1.688-1.088,3.3.5,1.779,1.016,3.587,1.513,5.336q.547,1.925,1.093,3.85c.059.208.109.414.172.674.033.135.069.286.112.459l.311,1.251-1.073-.714-.937-.622c-.595-.394-1.156-.767-1.709-1.138q-1.271-.854-2.541-1.711c-1.234-.832-2.511-1.693-3.769-2.535a3.007,3.007,0,0,0-1.64-.639,3.042,3.042,0,0,0-1.661.653l-8.959,6.029Zm-4.62-21.49,2.876,2.254c1.448,1.134,2.946,2.307,4.417,3.463,1.767,1.389,2.1,2.421,1.478,4.6-.511,1.8-1.033,3.619-1.538,5.382q-.5,1.747-1,3.495l7.867-5.294a3.943,3.943,0,0,1,2.219-.823,3.91,3.91,0,0,1,2.2.808c1.259.843,2.536,1.7,3.771,2.537q1.269.856,2.539,1.71c.505.34,1.02.681,1.561,1.04q-.524-1.849-1.05-3.7c-.5-1.749-1.011-3.557-1.514-5.338-.565-2-.217-3.061,1.433-4.354q1.832-1.437,3.666-2.871c1.216-.952,2.471-1.934,3.709-2.9l-2.346-.09-7.193-.275a3.39,3.39,0,0,1-3.508-2.546c-.563-1.532-1.13-3.092-1.678-4.6q-.545-1.5-1.092-3c-.159-.435-.319-.863-.5-1.337q-.656,1.79-1.309,3.58c-.64,1.752-1.3,3.563-1.956,5.343a3.387,3.387,0,0,1-3.5,2.559l-3.286.121C-567.621,3655.707-569.74,3655.784-571.834,3655.864Z" transform="translate(595.159 -3620.982)" fill="#1faabc"/><path d="M-569.761,3618.58c16.1,0,28.614,10.884,30.454,25.158.161,1.25-.234,1.962-1.159,2.087-.96.13-1.561-.451-1.753-1.754a25.938,25.938,0,0,0-9.125-16.415c-15.047-12.86-39.012-4.411-42.67,15.041-.114.606-.2,1.22-.325,1.823a1.453,1.453,0,0,1-1.739,1.285,1.466,1.466,0,0,1-1.123-1.776,27.825,27.825,0,0,1,5.247-13.276C-586.063,3622.806-578.093,3618.828-569.761,3618.58Z" transform="translate(607.874 -3608.294)" fill="#1faabc"/><path d="M-569.768,3618.08h.011a33.828,33.828,0,0,1,11.459,1.953,30.8,30.8,0,0,1,9.434,5.391,28.568,28.568,0,0,1,10.053,18.25c.278,2.157-1.018,2.57-1.588,2.647a2.389,2.389,0,0,1-.321.022c-.624,0-1.712-.286-1.994-2.2a25.565,25.565,0,0,0-8.955-16.108,24.793,24.793,0,0,0-16.314-6.02,25.8,25.8,0,0,0-25.54,20.774c-.045.238-.086.484-.125.722-.06.364-.123.741-.2,1.114a1.964,1.964,0,0,1-1.911,1.71,2.147,2.147,0,0,1-.411-.041,1.954,1.954,0,0,1-1.524-2.329,28.392,28.392,0,0,1,5.342-13.511,31.317,31.317,0,0,1,10.347-9.118,27.41,27.41,0,0,1,12.233-3.258Zm29.048,27.263a1.366,1.366,0,0,0,.187-.013c.273-.037.911-.123.73-1.528-1.847-14.324-14.442-24.721-29.951-24.722-8.524.255-16.266,4.507-21.8,11.972a27.4,27.4,0,0,0-5.153,13.041c-.084.661.186,1.117.723,1.222a1.162,1.162,0,0,0,.22.022c.467,0,.807-.336.934-.922.075-.349.136-.713.194-1.065.04-.243.082-.5.129-.744a25.968,25.968,0,0,1,3.494-9,26.131,26.131,0,0,1,6.153-6.8,27.631,27.631,0,0,1,16.877-5.792,26.088,26.088,0,0,1,8.82,1.519,25.982,25.982,0,0,1,8.143,4.741,27.493,27.493,0,0,1,6.211,7.487,26.951,26.951,0,0,1,3.083,9.235C-541.527,3645.344-540.941,3645.344-540.72,3645.344Z" transform="translate(607.874 -3608.294)" fill="#1faabc"/><path d="M-566.468,3725.562c-16.2,0-28.838-10.964-30.617-25.085q-.248-1.969,1.168-2.183c.944-.145,1.553.509,1.753,1.885a24.71,24.71,0,0,0,6.609,13.863c7.335,7.66,16.308,10.416,26.5,7.521,10.387-2.951,16.579-10.15,18.794-20.735.086-.413.111-.839.2-1.251a1.465,1.465,0,0,1,1.649-1.295,1.5,1.5,0,0,1,1.208,1.813,26.4,26.4,0,0,1-2.618,8.839C-547.315,3719.671-556.229,3725.031-566.468,3725.562Z" transform="translate(607.815 -3656.803)" fill="#1faabc"/><path d="M-566.455,3726.062h-.013a34.159,34.159,0,0,1-11.538-1.964,31.168,31.168,0,0,1-9.5-5.4,28.239,28.239,0,0,1-10.076-18.159c-.269-2.132.88-2.632,1.589-2.74a2.133,2.133,0,0,1,.325-.026c.62,0,1.7.3,2,2.333a24.247,24.247,0,0,0,6.476,13.589c5.4,5.635,11.6,8.492,18.425,8.492a27.806,27.806,0,0,0,7.578-1.106c10-2.843,16.209-9.692,18.442-20.356.038-.182.064-.371.091-.571.03-.222.061-.453.112-.685a1.987,1.987,0,0,1,1.9-1.707,1.953,1.953,0,0,1,.314.026,2,2,0,0,1,1.623,2.368,27.021,27.021,0,0,1-2.669,9.005,31.63,31.63,0,0,1-10.718,12.332,28.5,28.5,0,0,1-14.351,4.567Zm-29.212-27.288a1.154,1.154,0,0,0-.174.014c-.3.046-.935.143-.748,1.626,1.8,14.276,14.461,24.64,30.108,24.648,10.65-.556,19.024-6.212,24.217-16.356a26.024,26.024,0,0,0,2.567-8.673,1.006,1.006,0,0,0-.792-1.258.966.966,0,0,0-.153-.013c-.447,0-.8.353-.927.921-.042.192-.069.392-.1.6s-.057.424-.1.642a28.626,28.626,0,0,1-6.45,13.461,26.3,26.3,0,0,1-12.7,7.652,28.8,28.8,0,0,1-7.851,1.145c-7.113,0-13.555-2.961-19.147-8.8a25.226,25.226,0,0,1-6.743-14.137C-594.8,3699.271-595.141,3698.774-595.668,3698.774Z" transform="translate(607.815 -3656.803)" fill="#1faabc"/></g></g></svg>