<svg xmlns="http://www.w3.org/2000/svg" width="93.595" height="100" viewBox="0 0 93.595 100"><g transform="translate(-924.593 -3751.867)"><g transform="translate(924.593 3751.867)"><path d="M742.154,3857.224a5.212,5.212,0,0,1,3.892,1.68c1.7,1.733,3.388,3.473,5.093,5.2,1.232,1.248,2.137,1.25,3.367,0q7.792-7.939,15.574-15.89c2.578-2.629,5.576-2.621,8.179.007q.658.664,1.308,1.338c2.548,2.638,2.551,5.651,0,8.255q-5.236,5.351-10.478,10.695-6.076,6.2-12.154,12.4c-2.628,2.678-5.607,2.671-8.247-.019q-6.045-6.159-12.078-12.328a5.342,5.342,0,0,1-.022-7.945c.628-.646,1.251-1.3,1.9-1.922A5.007,5.007,0,0,1,742.154,3857.224Zm36.164-3.484a10.15,10.15,0,0,0-.824-1.509,20.293,20.293,0,0,0-1.514-1.57c-1.431-1.451-2.206-1.449-3.641.014q-7.644,7.794-15.286,15.59c-2.686,2.741-5.764,2.757-8.433.036q-2.293-2.339-4.581-4.683c-1.451-1.48-2.313-1.487-3.739-.034-.413.42-.827.839-1.234,1.265-1.2,1.253-1.223,2.194-.034,3.412q6.1,6.251,12.221,12.478a1.909,1.909,0,0,0,3.141-.012q11.508-11.722,22.986-23.472A8.392,8.392,0,0,0,778.317,3853.741Z" transform="translate(-708.052 -3812.933)" fill="#ef7d57"/><path d="M810.2,3801.02c-.266,10.809-2.02,21.261-6.426,31.183a3.911,3.911,0,0,1-.606,1.076,1.506,1.506,0,0,1-2.07.269,1.594,1.594,0,0,1-.615-2.1c.537-1.387,1.164-2.741,1.682-4.136a75.294,75.294,0,0,0,4.358-30.346c-.127-2.524-.435-5.04-.691-7.555-.16-1.569-.494-1.923-1.993-2.191a92.794,92.794,0,0,1-25.612-8.583,94.193,94.193,0,0,1-13.264-8.161c-1.456-1.068-1.66-1.012-3.123-.043q-4.764,3.155-9.592,6.213a1.666,1.666,0,1,1-1.9-2.724c3.476-2.277,6.936-4.58,10.454-6.792a4.7,4.7,0,0,1,5.64.324,94.924,94.924,0,0,0,13.056,8.1,91.854,91.854,0,0,0,25.215,8.466,4.854,4.854,0,0,1,4.375,4.579C809.541,3792.732,809.843,3796.879,810.2,3801.02Z" transform="translate(-716.609 -3766.338)" fill="#ef7d57"/><path d="M707.611,3807.726a1.765,1.765,0,0,1-1.676-1.563c-.4-1.86-.8-3.72-1.264-5.565a8.507,8.507,0,0,0-6.616-6.594c-1.778-.442-3.568-.843-5.358-1.235-1.154-.252-1.769-.812-1.719-1.724.057-1.029.7-1.471,1.665-1.675,1.928-.408,3.851-.849,5.756-1.352a8.15,8.15,0,0,0,6.152-6.132c.508-1.9.948-3.827,1.354-5.755.2-.959.627-1.619,1.655-1.692.911-.065,1.476.542,1.753,1.691.525,2.184,1,4.387,1.649,6.533a7.329,7.329,0,0,0,5.085,5.069c1.847.57,3.729,1.042,5.62,1.445,1.918.41,2.57.806,2.586,1.869s-.667,1.513-2.538,1.913c-1.925.411-3.845.88-5.722,1.467a7.277,7.277,0,0,0-5.017,5.007c-.674,2.211-1.156,4.484-1.684,6.738A1.781,1.781,0,0,1,707.611,3807.726Zm.011-8.937a7.7,7.7,0,0,0-.018-15.391,7.7,7.7,0,0,0,.018,15.391Z" transform="translate(-682.478 -3771.059)" fill="#ef7d57"/><path d="M831.229,3951.473a1.7,1.7,0,0,1-1.5-1.487c-.406-1.858-.8-3.719-1.262-5.566a8.532,8.532,0,0,0-6.672-6.663c-1.78-.436-3.566-.852-5.361-1.22-.963-.2-1.612-.639-1.67-1.67-.052-.919.554-1.469,1.711-1.732,1.956-.443,3.916-.875,5.85-1.4a8.015,8.015,0,0,0,5.957-5.932c.54-1.966.984-3.96,1.415-5.954.208-.965.664-1.6,1.693-1.645.891-.039,1.435.546,1.7,1.636.534,2.217,1.008,4.455,1.672,6.633a7.239,7.239,0,0,0,5.015,5.005c2.145.656,4.348,1.126,6.531,1.651,1.155.278,1.744.832,1.732,1.729s-.587,1.411-1.773,1.7c-2.184.526-4.387.995-6.531,1.654a7.193,7.193,0,0,0-4.955,4.933c-.682,2.209-1.154,4.483-1.7,6.733A1.777,1.777,0,0,1,831.229,3951.473Zm.157-24.345a7.691,7.691,0,0,0,.02,15.381,7.69,7.69,0,0,0-.02-15.381Z" transform="translate(-754.66 -3854.892)" fill="#ef7d57"/><path d="M731.568,3892.954c-.68-.18-1.366-.3-2.007-.539-16.619-6.191-27.2-17.952-32.077-34.918a69.924,69.924,0,0,1-2.456-22.119,7.772,7.772,0,0,1,.548-2.51,1.428,1.428,0,0,1,1.893-.834,1.624,1.624,0,0,1,1.195,1.831c-.125,2.24-.391,4.484-.328,6.718a60.674,60.674,0,0,0,4.962,23.325c5.507,12.319,14.709,20.693,27.329,25.346a2.909,2.909,0,0,0,1.876-.012c1.842-.7,3.64-1.516,5.439-2.323,1.271-.57,2.209-.375,2.663.622.429.942.037,1.819-1.2,2.375-1.987.894-4,1.735-6.016,2.558A14.263,14.263,0,0,1,731.568,3892.954Z" transform="translate(-684.805 -3804.592)" fill="#ef7d57"/><path d="M670.593,3831.3q.408-5.385.819-10.771a3.583,3.583,0,0,1,.085-.512,1.689,1.689,0,0,1,1.811-1.491,1.635,1.635,0,0,1,1.457,1.922c-.176,2.313-.467,4.621-.569,6.937-.52,11.782,1.046,23.219,5.908,34.063.975,2.174,2.187,4.241,3.3,6.354.177.336.4.647.586.98a1.68,1.68,0,0,1-.508,2.444,1.606,1.606,0,0,1-2.307-.7c-1.357-2.411-2.778-4.8-3.931-7.309a72.254,72.254,0,0,1-6.3-26.4c-.052-.934-.126-1.867-.154-2.8-.027-.9-.006-1.8-.006-2.7Z" transform="translate(-670.593 -3796.766)" fill="#ef7d57"/><path d="M746.758,3983.668c-.9-.235-1.911-.454-2.894-.768a61.7,61.7,0,0,1-21.739-12.084,5.867,5.867,0,0,1-.464-.417,1.654,1.654,0,0,1-.124-2.26,1.609,1.609,0,0,1,2.242-.249c.643.47,1.231,1.012,1.851,1.514a57.58,57.58,0,0,0,20.2,10.591,3.739,3.739,0,0,0,2,0,57.849,57.849,0,0,0,16.105-7.576c.345-.233.682-.481,1.043-.684a1.649,1.649,0,0,1,2.288.482,1.614,1.614,0,0,1-.488,2.281c-2.129,1.361-4.257,2.735-6.465,3.96a58.15,58.15,0,0,1-11.8,4.833C747.993,3983.448,747.442,3983.524,746.758,3983.668Z" transform="translate(-700.073 -3883.668)" fill="#ef7d57"/><path d="M860.576,3838.319a65.516,65.516,0,0,1-3.6,21.492c-.417,1.223-1.272,1.722-2.277,1.359-.922-.333-1.27-1.24-.868-2.428a68.239,68.239,0,0,0,3.56-24.531,3.415,3.415,0,0,0-.859-2.468,1.569,1.569,0,0,1,.1-2.244,1.518,1.518,0,0,1,2.234.006,7.065,7.065,0,0,1,1.631,3.011A42.852,42.852,0,0,1,860.576,3838.319Z" transform="translate(-777.349 -3802.885)" fill="#ef7d57"/><path d="M778.943,3794.046a14.731,14.731,0,0,1,2.589,1.05,104.886,104.886,0,0,0,14,7.439c1.2.52,1.633,1.417,1.214,2.37a1.7,1.7,0,0,1-2.57.67q-6.982-3.644-13.913-7.383a2.9,2.9,0,0,0-2.417-.514,1.581,1.581,0,0,1-1.989-1.207,1.646,1.646,0,0,1,1.14-1.952C777.544,3794.325,778.129,3794.239,778.943,3794.046Z" transform="translate(-731.948 -3782.495)" fill="#ef7d57"/><path d="M837.824,3821.253a29.816,29.816,0,0,1,3.032,1.114,1.448,1.448,0,0,1,.641,1.978,1.5,1.5,0,0,1-1.833,1,19.364,19.364,0,0,1-2.849-.948,1.5,1.5,0,0,1-.945-1.86C836.073,3821.7,836.648,3821.256,837.824,3821.253Z" transform="translate(-766.937 -3798.36)" fill="#ef7d57"/><path d="M710.6,3955.279c-.18.248-.417.875-.859,1.1a1.819,1.819,0,0,1-1.613.013,10.651,10.651,0,0,1-2.207-2.559,1.865,1.865,0,0,1,.271-1.672,2.089,2.089,0,0,1,1.546-.52C708.581,3951.675,710.562,3954.109,710.6,3955.279Z" transform="translate(-691.134 -3874.393)" fill="#ef7d57"/></g></g></svg>