<svg xmlns="http://www.w3.org/2000/svg" width="132.454" height="100" viewBox="0 0 132.454 100"><path d="M1979.833,1304.12a7.384,7.384,0,0,1,12.217,1.339c2.143,3.881,4.275,7.768,6.484,11.611a4.188,4.188,0,0,0,1.647,1.462,30.654,30.654,0,0,0,3.554,1.528,3.012,3.012,0,0,1,2.115,3.166q-.01,8.208.11,16.415a4.487,4.487,0,0,0,.612,2.156q2.971,4.919,6.1,9.744a3.788,3.788,0,0,0,1.511,1.279,50.953,50.953,0,0,0,5,2.087,3.533,3.533,0,0,0,2.176.021c3.73-1.318,7.417-2.761,11.137-4.11a1.316,1.316,0,0,0,1.028-1.5,20.579,20.579,0,0,1,.1-3.352,6.006,6.006,0,0,1,5.406-5.242q4.376-.393,8.764-.667a6.163,6.163,0,0,1,6.539,5.917c.071,1.979.052,3.964,0,5.945a4.478,4.478,0,0,1-.46,1.718c-1.447,3.075-2.96,6.12-4.4,9.2a3.029,3.029,0,0,1-3.053,1.923c-1.973-.027-3.946-.007-6.09-.007.172,1.486.251,2.85.5,4.182a4.593,4.593,0,0,1-1.729,4.889c-2.365,1.932-4.526,4.114-6.782,6.18-1.655,1.515-2.7,1.556-4.419.183-1.987-1.585-3.982-3.16-5.942-4.778a5.925,5.925,0,0,0-7.07-.782,10.885,10.885,0,0,1-10.3.079c-4.606-2.239-9.256-4.389-13.808-6.732a22.931,22.931,0,0,0-7.968-2.407,7.691,7.691,0,0,1-5.02-2.608c-2.955-3.253-6.01-6.414-9.031-9.607a5.72,5.72,0,0,1-1.451-6.058,6.249,6.249,0,0,0-.057-2.138,13.367,13.367,0,0,0-3.342-8.059,4.184,4.184,0,0,1-.428-.645,2.573,2.573,0,0,1,4.241-2.912c2.536,3.08,4.391,6.454,4.634,10.547.038.64.292,1.27.307,1.908.025,1.063-.063,2.129-.1,3.194l-.419.031a4.568,4.568,0,0,0,.419.616q4.606,4.9,9.234,9.77a2.087,2.087,0,0,0,1.165.713c5.89.334,10.744,3.453,15.865,5.844,2.651,1.238,5.28,2.524,7.9,3.832a6.2,6.2,0,0,0,5.934-.025,10.723,10.723,0,0,1,12.321,1.242c1.626,1.275,3.227,2.582,4.947,3.961,1.839-1.7,3.681-3.363,5.471-5.083a1.479,1.479,0,0,0,.181-1.056c-.207-2.056-.47-4.106-.682-6.162-.229-2.224.751-3.281,3.026-3.292,2.155-.01,4.311.04,6.464-.038a1.711,1.711,0,0,0,1.235-.768,37.8,37.8,0,0,0,3.186-6.755c.544-1.909.26-4.068.223-6.113,0-.229-.8-.652-1.218-.632-2.581.126-5.155.376-7.736.533-1.06.064-1.417.6-1.4,1.585.025,1.508-.006,3.016.005,4.524a2.751,2.751,0,0,1-2,2.832c-5.121,1.9-10.222,3.862-15.365,5.7a3.874,3.874,0,0,1-2.476-.07c-2.773-1.053-5.506-2.222-8.211-3.441a3.953,3.953,0,0,1-1.59-1.424q-3.9-6.092-7.664-12.268a4.771,4.771,0,0,1-.6-2.308q-.12-7.69-.1-15.38c0-.861-.213-1.4-1.078-1.612-3.219-.779-5.128-2.894-6.528-5.836-1.606-3.375-3.6-6.565-5.4-9.848a2.486,2.486,0,0,0-2.147-1.614,2.422,2.422,0,0,0-2.173,1.564c-1.266,2.251-2.382,2.563-4.63,1.369a16.106,16.106,0,0,0-1.825-.966,13.07,13.07,0,0,1-7.54-7.3c-.791-1.757-1.954-3.342-2.87-5.048a1.49,1.49,0,0,0-1.636-.919,9.146,9.146,0,0,1-1.68,0,1.783,1.783,0,0,0-1.776.891,3,3,0,0,1-2.039,1.078c-3.271.113-6.551.1-9.824.012a4.123,4.123,0,0,1-2.086-.855c-4.351-3.1-8.649-6.27-13.009-9.353a4.537,4.537,0,0,0-2.23-.719c-1.629-.107-3.27-.033-5.106-.033,0,1.206.1,2.36-.017,3.493a23.933,23.933,0,0,0,3.017,13.826c3.38,6.479,6.275,13.21,9.418,19.814a9.356,9.356,0,0,0,1.6,2.306c2.23,2.4,4.514,4.746,6.8,7.092.537.552,1.067,1.529,2,.773.921-.744.076-1.479-.306-2.144-.77-1.344-1.533-2.7-2.391-3.987a80.906,80.906,0,0,1-7.407-14.73c-.684-1.693-.5-2.588.833-3.8.734-.666,1.476-1.322,2.213-1.985a2.656,2.656,0,0,1,3.326-.415c1.319.728,2.652,1.434,3.936,2.22a4.774,4.774,0,0,1,1.3,1.219c.974,1.314,1.9,2.667,2.813,4.022,1.04,1.539.846,3.1-.458,3.967-1.286.86-2.716.491-3.771-.989-.65-.911-1.206-1.9-1.937-2.741a32.979,32.979,0,0,0-2.5-2.365l-.4.326c1.092,2.411,2.037,4.9,3.31,7.215,1.93,3.5,4.148,6.849,6.131,10.325a6.1,6.1,0,0,1-4.581,9.244,5.638,5.638,0,0,1-4.958-1.685c-2.991-3.041-5.94-6.125-8.88-9.215a5.352,5.352,0,0,1-.879-1.414c-4.238-8.989-8.482-17.975-12.664-26.991a8.023,8.023,0,0,1-.692-3.1c-.086-3.4-.042-6.806-.029-10.21a4.878,4.878,0,0,1,5.236-5.254c1.94-.02,3.88.032,5.818-.015a6.218,6.218,0,0,1,3.958,1.308c4.134,3.03,8.279,6.045,12.464,9a4.525,4.525,0,0,0,2.118.678c1.153.11,2.325.008,3.488.035a5.22,5.22,0,0,0,4.01-1.14c1.653-1.456,8.017-1.3,9.809.011a6.852,6.852,0,0,1,1.691,1.9,63.384,63.384,0,0,1,3.55,6.147A8.887,8.887,0,0,0,1979.833,1304.12Z" transform="translate(-1921.921 -1281.177)" fill="#1faabc"/><path d="M1993.654,1364.317a2.55,2.55,0,0,1-2.5,2.576,2.648,2.648,0,0,1-2.644-2.6,2.618,2.618,0,0,1,2.535-2.559A2.524,2.524,0,0,1,1993.654,1364.317Z" transform="translate(-1954.027 -1320.017)" fill="#1faabc"/></svg>