<svg xmlns="http://www.w3.org/2000/svg" width="94.633" height="101.014" viewBox="0 0 94.633 101.014"><defs><style>.a{fill:#ef7d57;}.b{fill:rgba(0,0,0,0);}</style></defs><g transform="translate(1638.537 -2048.5)"><path class="a" d="M43.79,99.232a61.693,61.693,0,0,1-21.74-12.084,6.009,6.009,0,0,1-.464-.418,1.655,1.655,0,0,1-.123-2.26,1.609,1.609,0,0,1,2.241-.249c.643.47,1.232,1.013,1.852,1.514a57.563,57.563,0,0,0,20.2,10.591,3.742,3.742,0,0,0,2,0,57.85,57.85,0,0,0,16.1-7.575c.345-.233.681-.481,1.043-.684a1.649,1.649,0,0,1,2.288.482,1.613,1.613,0,0,1-.488,2.281c-2.129,1.361-4.257,2.734-6.466,3.96a58.161,58.161,0,0,1-11.8,4.833c-.528.156-1.079.233-1.763.376C45.788,99.765,44.774,99.545,43.79,99.232Zm32.779-2.651a1.7,1.7,0,0,1-1.5-1.488c-.406-1.858-.8-3.719-1.261-5.566a8.532,8.532,0,0,0-6.673-6.663c-1.78-.437-3.567-.852-5.361-1.22-.964-.2-1.612-.639-1.67-1.67-.052-.92.554-1.47,1.711-1.732,1.956-.443,3.916-.875,5.851-1.4a8.015,8.015,0,0,0,5.956-5.932c.54-1.966.984-3.96,1.415-5.954.209-.965.664-1.6,1.693-1.644.891-.039,1.436.546,1.7,1.636.535,2.217,1.007,4.455,1.671,6.633a7.24,7.24,0,0,0,5.016,5.006c2.145.655,4.347,1.126,6.53,1.651,1.156.278,1.744.832,1.732,1.729s-.587,1.411-1.773,1.7c-2.183.527-4.387.995-6.53,1.654a7.2,7.2,0,0,0-4.955,4.934c-.682,2.209-1.154,4.483-1.7,6.733a1.78,1.78,0,0,1-1.779,1.6ZM69.087,79.955a11.532,11.532,0,0,1,7.66,7.662A11.534,11.534,0,0,1,84.4,79.928a11.491,11.491,0,0,1-7.679-7.692A11.532,11.532,0,0,1,69.087,79.955ZM44.756,87.823C28.137,81.632,17.552,69.871,12.679,52.9a69.9,69.9,0,0,1-2.456-22.119,7.778,7.778,0,0,1,.548-2.51,1.428,1.428,0,0,1,1.894-.834,1.623,1.623,0,0,1,1.194,1.831c-.125,2.239-.391,4.484-.328,6.718a60.673,60.673,0,0,0,4.962,23.325C24,71.634,33.2,80.008,45.823,84.661a2.913,2.913,0,0,0,1.876-.013c1.842-.7,3.64-1.516,5.439-2.322,1.272-.57,2.209-.375,2.664.622.428.941.037,1.819-1.2,2.375-1.986.894-4,1.735-6.016,2.557a14.093,14.093,0,0,1-1.823.481C46.083,88.182,45.4,88.061,44.756,87.823ZM17,82a10.67,10.67,0,0,1-2.207-2.559,1.866,1.866,0,0,1,.272-1.672,2.092,2.092,0,0,1,1.545-.52c.842.032,2.822,2.466,2.863,3.637-.18.247-.418.875-.859,1.1a2.155,2.155,0,0,1-.919.2A1.117,1.117,0,0,1,17,82Zm-6.419-8.235c-1.357-2.411-2.778-4.8-3.931-7.309a72.256,72.256,0,0,1-6.3-26.4c-.053-.934-.127-1.867-.154-2.8-.027-.9-.006-1.8-.006-2.7L0,34.537q.409-5.385.819-10.77A3.533,3.533,0,0,1,.9,23.254a1.688,1.688,0,0,1,1.811-1.491,1.633,1.633,0,0,1,1.456,1.921C4,26,3.7,28.305,3.6,30.622,3.082,42.4,4.647,53.841,9.509,64.685c.975,2.174,2.186,4.241,3.3,6.353.177.337.4.647.587.98a1.68,1.68,0,0,1-.509,2.444,1.727,1.727,0,0,1-.86.242A1.662,1.662,0,0,1,10.577,73.766Zm30.062-5.813q-6.045-6.159-12.078-12.328a5.341,5.341,0,0,1-.022-7.944c.628-.646,1.25-1.3,1.9-1.922A5.011,5.011,0,0,1,34.1,44.292a5.212,5.212,0,0,1,3.892,1.68c1.7,1.733,3.389,3.473,5.093,5.2,1.231,1.247,2.137,1.25,3.367,0q7.792-7.939,15.574-15.889c2.578-2.629,5.576-2.622,8.179.006q.657.666,1.308,1.338c2.548,2.638,2.551,5.651,0,8.256q-5.237,5.35-10.478,10.695-6.076,6.2-12.154,12.4a5.816,5.816,0,0,1-4.109,2A5.863,5.863,0,0,1,40.639,67.953Zm-8.391-19.3c-.412.42-.827.839-1.234,1.264-1.2,1.253-1.223,2.194-.034,3.413q6.1,6.25,12.221,12.478a1.91,1.91,0,0,0,3.141-.012Q57.849,54.073,69.328,42.323a8.379,8.379,0,0,0,.937-1.515,10.162,10.162,0,0,0-.824-1.509,20.4,20.4,0,0,0-1.514-1.57c-1.432-1.451-2.207-1.449-3.641.014Q56.642,45.537,49,53.333c-2.686,2.74-5.764,2.757-8.433.036q-2.292-2.34-4.581-4.683A2.874,2.874,0,0,0,34.1,47.569,2.793,2.793,0,0,0,32.248,48.652ZM84.494,67.209a1.594,1.594,0,0,1-.616-2.1c.537-1.388,1.165-2.741,1.682-4.136a75.282,75.282,0,0,0,4.359-30.346c-.127-2.524-.435-5.039-.691-7.555-.159-1.57-.493-1.923-1.993-2.191A92.784,92.784,0,0,1,61.624,12.3,94.2,94.2,0,0,1,48.36,4.137C46.9,3.069,46.7,3.125,45.237,4.094q-4.764,3.155-9.592,6.213a1.666,1.666,0,1,1-1.9-2.724C37.226,5.306,40.685,3,44.2.79a4.7,4.7,0,0,1,5.64.324A94.876,94.876,0,0,0,62.9,9.217a91.842,91.842,0,0,0,25.215,8.466,4.853,4.853,0,0,1,4.375,4.578c.442,4.132.743,8.279,1.105,12.42-.267,10.809-2.021,21.261-6.427,31.182a3.891,3.891,0,0,1-.606,1.076,1.558,1.558,0,0,1-1.154.562A1.709,1.709,0,0,1,84.494,67.209Zm-7.141-8.924c-.923-.333-1.27-1.24-.868-2.428a68.258,68.258,0,0,0,3.56-24.53,3.414,3.414,0,0,0-.86-2.468,1.568,1.568,0,0,1,.1-2.244,1.519,1.519,0,0,1,2.234.005,7.082,7.082,0,0,1,1.631,3.011,42.832,42.832,0,0,1,.073,5.8,65.512,65.512,0,0,1-3.6,21.492c-.327.961-.926,1.475-1.654,1.475A1.828,1.828,0,0,1,77.353,58.285ZM23.457,35.1c-.4-1.86-.8-3.721-1.265-5.566a8.507,8.507,0,0,0-6.616-6.594C13.8,22.5,12.009,22.1,10.219,21.71,9.065,21.457,8.449,20.9,8.5,19.985c.057-1.029.7-1.471,1.665-1.675,1.928-.408,3.851-.849,5.756-1.352a8.149,8.149,0,0,0,6.151-6.133c.509-1.9.948-3.828,1.354-5.756.2-.958.627-1.618,1.656-1.691.91-.065,1.476.542,1.752,1.691.525,2.184,1,4.387,1.649,6.533a7.328,7.328,0,0,0,5.085,5.07c1.847.57,3.73,1.041,5.62,1.445,1.919.41,2.57.806,2.587,1.869S41.108,21.5,39.237,21.9c-1.924.411-3.845.879-5.721,1.466A7.277,7.277,0,0,0,28.5,28.373c-.674,2.211-1.156,4.484-1.685,6.738a1.684,1.684,0,0,1-3.358-.007ZM17.478,20.026a11.522,11.522,0,0,1,7.666,7.7,11.523,11.523,0,0,1,7.645-7.739,11.485,11.485,0,0,1-7.663-7.653A11.568,11.568,0,0,1,17.478,20.026ZM72.727,26.98a19.266,19.266,0,0,1-2.849-.948,1.5,1.5,0,0,1-.945-1.86c.2-.836.779-1.277,1.954-1.28a29.708,29.708,0,0,1,3.033,1.113,1.448,1.448,0,0,1,.641,1.978,1.506,1.506,0,0,1-1.41,1.05A1.77,1.77,0,0,1,72.727,26.98Zm-10.5-3.9Q55.248,19.436,48.317,15.7a2.9,2.9,0,0,0-2.417-.514,1.581,1.581,0,0,1-1.989-1.206,1.647,1.647,0,0,1,1.139-1.952c.546-.2,1.131-.281,1.945-.474a14.647,14.647,0,0,1,2.589,1.05,104.9,104.9,0,0,0,14,7.439c1.2.52,1.633,1.417,1.214,2.37a1.537,1.537,0,0,1-1.451.974A2.432,2.432,0,0,1,62.231,23.08Z" transform="translate(-1638 2049)"/><path class="b" d="M46.672,100.513l-.114-.03c-.27-.071-.548-.139-.842-.212-.677-.167-1.378-.34-2.077-.563a63.7,63.7,0,0,1-11.575-4.974,62.222,62.222,0,0,1-10.338-7.207l-.1-.086a4.756,4.756,0,0,1-.4-.369A2.156,2.156,0,0,1,22.7,83.379a2.2,2.2,0,0,1,1.3.439c.425.31.826.65,1.214.979.215.182.438.371.658.549A57.313,57.313,0,0,0,45.9,95.846a3.125,3.125,0,0,0,.866.117,3.067,3.067,0,0,0,.856-.116,57.605,57.605,0,0,0,15.966-7.51l.249-.171c.264-.182.536-.37.829-.535a2.45,2.45,0,0,1,1.19-.325,2.075,2.075,0,0,1,1.762.971,2.147,2.147,0,0,1,.311,1.632,2.124,2.124,0,0,1-.949,1.342l-.412.264c-1.967,1.258-4,2.558-6.08,3.712a58.316,58.316,0,0,1-11.9,4.875c-.379.112-.766.185-1.177.263-.2.038-.406.077-.626.123ZM22.7,84.379a1.118,1.118,0,0,0-.856.416,1.157,1.157,0,0,0,.107,1.594,3.949,3.949,0,0,0,.32.291l.106.09A61.475,61.475,0,0,0,43.942,98.756c.668.213,1.352.382,2.014.545.257.063.5.124.742.186.185-.038.36-.071.529-.1.4-.076.749-.142,1.08-.24A57.33,57.33,0,0,0,60,94.354c2.053-1.139,4.073-2.431,6.027-3.681l.412-.264a1.116,1.116,0,0,0,.51-.71,1.154,1.154,0,0,0-.172-.876,1.078,1.078,0,0,0-.924-.516,1.45,1.45,0,0,0-.7.2c-.252.142-.494.309-.751.486l-.257.176A58.6,58.6,0,0,1,47.9,96.806a4.079,4.079,0,0,1-1.139.157,4.136,4.136,0,0,1-1.147-.157A58.307,58.307,0,0,1,25.243,86.124c-.23-.186-.457-.378-.676-.564-.391-.332-.761-.646-1.156-.934A1.206,1.206,0,0,0,22.7,84.379Zm53.94,12.7h-.087l-.047,0A2.2,2.2,0,0,1,74.58,95.2l-.151-.694c-.348-1.6-.708-3.248-1.107-4.859a8.078,8.078,0,0,0-6.306-6.3c-2.048-.5-3.746-.889-5.343-1.216A2.209,2.209,0,0,1,59.6,80c-.045-.8.282-1.836,2.1-2.248l.615-.139c1.718-.388,3.493-.789,5.215-1.258a7.529,7.529,0,0,0,5.606-5.582c.549-2,1-4.025,1.408-5.928a2.205,2.205,0,0,1,2.16-2.038l.1,0c.737,0,1.7.351,2.1,2.021.132.547.262,1.1.388,1.642.383,1.64.78,3.336,1.276,4.962a6.769,6.769,0,0,0,4.684,4.674c1.64.5,3.35.9,5,1.289.491.115,1,.234,1.5.354,1.768.425,2.126,1.443,2.115,2.222-.022,1.662-1.628,2.049-2.156,2.176s-1.038.247-1.544.365c-1.638.384-3.332.781-4.956,1.281a6.713,6.713,0,0,0-4.625,4.6c-.5,1.627-.9,3.326-1.28,4.969-.132.569-.269,1.157-.409,1.734A2.273,2.273,0,0,1,76.641,97.082Zm-.033-1h.033c.428,0,1.028-.126,1.293-1.219.139-.573.275-1.159.407-1.726.386-1.66.786-3.376,1.3-5.037a7.675,7.675,0,0,1,5.286-5.264c1.657-.51,3.368-.911,5.022-1.3.5-.118,1.027-.241,1.538-.364,1.212-.291,1.384-.757,1.39-1.217.006-.423-.142-.946-1.349-1.236-.5-.119-1-.238-1.491-.352-1.67-.391-3.4-.8-5.068-1.306a7.73,7.73,0,0,1-5.348-5.338c-.506-1.658-.906-3.371-1.293-5.027-.125-.537-.255-1.092-.386-1.635-.3-1.255-.9-1.255-1.13-1.255h-.06c-.579.025-1.009.248-1.226,1.251-.414,1.916-.865,3.956-1.421,5.981A8.514,8.514,0,0,1,67.8,77.322c-1.743.475-3.53.879-5.258,1.269l-.614.139c-1.373.312-1.337.946-1.322,1.217.033.576.261,1,1.271,1.209,1.61.33,3.32.719,5.38,1.225a9.016,9.016,0,0,1,7.039,7.028c.4,1.624.763,3.282,1.113,4.886l.151.693C75.748,95.856,76.242,96.032,76.608,96.082Zm.147-6.913-.481-1.388a11.035,11.035,0,0,0-7.348-7.352l-1.366-.464,1.36-.481a11.052,11.052,0,0,0,7.331-7.405l.467-1.407.481,1.4a11.009,11.009,0,0,0,7.366,7.381l1.381.467-1.377.479a11.01,11.01,0,0,0-7.348,7.375Zm-6.3-9.22a11.94,11.94,0,0,1,3.774,2.535,12.165,12.165,0,0,1,2.508,3.747,11.889,11.889,0,0,1,2.537-3.784,12.2,12.2,0,0,1,3.746-2.513,11.916,11.916,0,0,1-3.768-2.521,12.117,12.117,0,0,1-2.525-3.779,11.888,11.888,0,0,1-2.533,3.8A12.234,12.234,0,0,1,70.458,79.948Zm-23.7,8.931-.126-.033c-.212-.056-.43-.108-.642-.157a11.767,11.767,0,0,1-1.412-.4,57.172,57.172,0,0,1-11.438-5.733,48.677,48.677,0,0,1-9.2-7.817,49.449,49.449,0,0,1-6.974-9.856A59.482,59.482,0,0,1,12.2,53.043,69.9,69.9,0,0,1,9.723,30.766a8.246,8.246,0,0,1,.583-2.675,1.876,1.876,0,0,1,1.782-1.244,2.429,2.429,0,0,1,.726.116A2.122,2.122,0,0,1,14.358,29.3c-.038.675-.089,1.359-.138,2.021a45.859,45.859,0,0,0-.189,4.654A59.831,59.831,0,0,0,18.95,59.11,45.934,45.934,0,0,0,46,84.192a2.219,2.219,0,0,0,.742.118,2.281,2.281,0,0,0,.784-.129c1.678-.635,3.351-1.386,4.97-2.113l.441-.2a3.65,3.65,0,0,1,1.469-.36,1.963,1.963,0,0,1,1.854,1.231,2.041,2.041,0,0,1,.091,1.591,2.749,2.749,0,0,1-1.54,1.447c-1.746.786-3.607,1.576-6.033,2.564a7.864,7.864,0,0,1-1.306.368c-.191.042-.389.086-.581.135ZM12.089,27.848a.875.875,0,0,0-.853.612,7.235,7.235,0,0,0-.513,2.345A68.913,68.913,0,0,0,13.16,52.767C18.015,69.673,28.7,81.31,44.931,87.354a10.852,10.852,0,0,0,1.293.36c.177.042.359.085.542.131.166-.04.329-.076.489-.111a7.016,7.016,0,0,0,1.143-.317c2.416-.983,4.266-1.77,6-2.55a1.8,1.8,0,0,0,1.015-.888,1.052,1.052,0,0,0-.066-.824.964.964,0,0,0-.944-.646,2.679,2.679,0,0,0-1.06.273l-.44.2c-1.632.732-3.32,1.49-5.026,2.136a3.255,3.255,0,0,1-1.138.194,3.194,3.194,0,0,1-1.088-.18,49.206,49.206,0,0,1-16.5-9.9A47.626,47.626,0,0,1,18.037,59.519,60.809,60.809,0,0,1,13.032,36a46.607,46.607,0,0,1,.191-4.757c.049-.657.1-1.337.137-2a1.132,1.132,0,0,0-.844-1.325A1.434,1.434,0,0,0,12.089,27.848Zm5.6,54.836h0a1.6,1.6,0,0,1-1.018-.3A11.174,11.174,0,0,1,14.361,79.7a2.32,2.32,0,0,1,.307-2.241,2.543,2.543,0,0,1,1.956-.71c.786.03,1.733,1.115,2.1,1.579a5.475,5.475,0,0,1,1.24,2.54l.006.172-.1.139c-.03.042-.079.129-.127.213a2.387,2.387,0,0,1-.91,1.038,2.64,2.64,0,0,1-1.146.251Zm-1.166-4.935a1.638,1.638,0,0,0-1.072.332,1.528,1.528,0,0,0-.236,1.1,10.161,10.161,0,0,0,2.1,2.436.781.781,0,0,0,.371.064h0a1.678,1.678,0,0,0,.691-.141,1.691,1.691,0,0,0,.493-.637c.027-.047.053-.094.079-.138a4.966,4.966,0,0,0-.989-1.793,3.583,3.583,0,0,0-1.378-1.225Zm-4.5-2.544h0a2.161,2.161,0,0,1-1.882-1.193c-.251-.446-.509-.9-.759-1.338-1.1-1.939-2.243-3.944-3.191-6.007A68.526,68.526,0,0,1,1.76,53.671,79.424,79.424,0,0,1-.151,40.081c-.016-.286-.034-.571-.053-.857-.041-.64-.083-1.3-.1-1.957-.019-.637-.015-1.28-.01-1.9q0-.173,0-.347L-.537,35l.271-3.566c.192-2.526.39-5.138.587-7.707a4.033,4.033,0,0,1,.1-.583,2.21,2.21,0,0,1,2.116-1.892,2.207,2.207,0,0,1,.236.013,2.123,2.123,0,0,1,1.9,2.457c-.067.882-.152,1.776-.234,2.64-.133,1.4-.271,2.856-.334,4.281C3.54,43.36,5.458,54.428,9.966,64.48c.675,1.5,1.482,2.99,2.262,4.426.337.62.686,1.262,1.02,1.9.086.163.186.322.293.492.1.153.2.312.289.48a2.17,2.17,0,0,1-.7,3.12A2.238,2.238,0,0,1,12.023,75.2ZM.537,34.071l.151.01v.468c0,.274,0,.548,0,.821,0,.613-.009,1.247.01,1.866.018.639.06,1.292.1,1.923.018.288.037.576.053.864A71.2,71.2,0,0,0,7.1,66.248c.93,2.024,2.059,4.01,3.152,5.93.25.44.509.894.761,1.342a1.177,1.177,0,0,0,1.011.684,1.223,1.223,0,0,0,.611-.176c.616-.353.736-1.015.32-1.77-.078-.142-.166-.281-.259-.429-.112-.178-.228-.362-.332-.559-.331-.631-.678-1.269-1.014-1.887-.789-1.453-1.606-2.956-2.3-4.495a68,68,0,0,1-5.01-16.8A85.141,85.141,0,0,1,3.1,30.6c.064-1.45.2-2.915.337-4.332.082-.86.166-1.749.232-2.621a1.14,1.14,0,0,0-1.01-1.386,1.21,1.21,0,0,0-.13-.007c-.56,0-.986.415-1.14,1.11a3.093,3.093,0,0,0-.074.44c-.2,2.57-.4,5.182-.587,7.708Zm44.24,36.4a6.314,6.314,0,0,1-4.5-2.172c-3.935-4.009-8-8.157-12.079-12.329a5.838,5.838,0,0,1-.023-8.643l.342-.352c.507-.524,1.032-1.066,1.57-1.582a5.532,5.532,0,0,1,4-1.605h.052a5.722,5.722,0,0,1,4.2,1.831l1.619,1.656c1.136,1.163,2.311,2.366,3.473,3.542a2.069,2.069,0,0,0,1.328.787,2.061,2.061,0,0,0,1.327-.79c2.727-2.779,5.5-5.607,8.177-8.341C56.7,40,59.2,37.443,61.671,34.928A6.279,6.279,0,0,1,66.1,32.81a6.358,6.358,0,0,1,4.46,2.123c.452.458.894.91,1.312,1.343a6.534,6.534,0,0,1,2.053,4.487,6.441,6.441,0,0,1-2.052,4.465q-3.225,3.3-6.453,6.587L61.4,55.923,57.6,59.8c-2.737,2.794-5.568,5.682-8.354,8.521A6.267,6.267,0,0,1,44.777,70.475ZM34.1,44.792a4.517,4.517,0,0,0-3.312,1.327c-.525.5-1.043,1.039-1.544,1.556l-.343.354a4.832,4.832,0,0,0,.021,7.246C33,59.446,37.061,63.594,41,67.6a5.364,5.364,0,0,0,3.782,1.873,5.316,5.316,0,0,0,3.752-1.854c2.786-2.838,5.616-5.727,8.353-8.52l3.8-3.878,4.025-4.108q3.227-3.292,6.452-6.586c2.367-2.42,2.366-5.1-.005-7.559-.416-.43-.854-.879-1.3-1.334A5.322,5.322,0,0,0,66.1,33.81a5.244,5.244,0,0,0-3.718,1.818c-2.467,2.514-4.973,5.073-7.4,7.547-2.679,2.735-5.45,5.563-8.177,8.342a2.928,2.928,0,0,1-2.04,1.089,2.935,2.935,0,0,1-2.039-1.085c-1.163-1.178-2.339-2.382-3.477-3.546l-1.618-1.655a4.7,4.7,0,0,0-3.488-1.53ZM85.409,68h0a2.2,2.2,0,0,1-1.184-.371,2.083,2.083,0,0,1-.814-2.7c.245-.634.512-1.267.77-1.879.31-.735.63-1.5.91-2.25A74.235,74.235,0,0,0,89.42,30.652c-.1-1.954-.31-3.942-.515-5.865-.058-.545-.118-1.109-.175-1.664-.136-1.34-.3-1.52-1.583-1.75A93.722,93.722,0,0,1,61.4,12.745a95.154,95.154,0,0,1-13.335-8.2c-.609-.447-.989-.689-1.259-.689a3.169,3.169,0,0,0-1.292.659c-3,1.989-6.144,4.023-9.6,6.218a2.694,2.694,0,0,1-1.427.453,2.038,2.038,0,0,1-1.8-1.1,2.149,2.149,0,0,1,.792-2.92q1.168-.765,2.334-1.532C38.461,3.889,41.2,2.086,43.937.367A5.283,5.283,0,0,1,46.768-.5,5.672,5.672,0,0,1,50.14.711a94.922,94.922,0,0,0,12.988,8.06,91.817,91.817,0,0,0,25.079,8.42,6.018,6.018,0,0,1,3.322,1.639,5.564,5.564,0,0,1,1.459,3.378c.31,2.9.554,5.846.791,8.7.1,1.223.206,2.488.315,3.731l0,.028v.028c-.3,11.975-2.412,22.237-6.47,31.373l-.035.08a4.005,4.005,0,0,1-.66,1.132A2.053,2.053,0,0,1,85.409,68ZM46.8,2.852a3.354,3.354,0,0,1,1.851.883,94.149,94.149,0,0,0,13.194,8.118,92.723,92.723,0,0,0,25.474,8.536c1.727.309,2.221.85,2.4,2.633.056.552.116,1.115.174,1.659.206,1.937.419,3.939.519,5.921a83.133,83.133,0,0,1-.622,15.49,71.28,71.28,0,0,1-3.767,15.056c-.288.775-.612,1.545-.926,2.29-.255.606-.519,1.232-.759,1.852a1.1,1.1,0,0,0,.417,1.5,1.22,1.22,0,0,0,.648.215,1.071,1.071,0,0,0,.785-.4,3.23,3.23,0,0,0,.481-.859l.036-.082c4-9.007,6.088-19.135,6.384-30.964-.108-1.236-.212-2.492-.313-3.707-.236-2.847-.48-5.79-.789-8.675a4.35,4.35,0,0,0-3.969-4.14,96.482,96.482,0,0,1-12.983-3.333,90.058,90.058,0,0,1-12.368-5.18A95.924,95.924,0,0,1,49.548,1.517,4.7,4.7,0,0,0,46.768.5a4.3,4.3,0,0,0-2.3.714c-2.726,1.714-5.463,3.513-8.111,5.254Q35.191,7.235,34.023,8A1.144,1.144,0,0,0,33.555,9.6a1.048,1.048,0,0,0,.93.587,1.7,1.7,0,0,0,.891-.3c3.451-2.191,6.586-4.222,9.584-6.208A3.54,3.54,0,0,1,46.8,2.852ZM44.764,67.124a2.714,2.714,0,0,1-1.92-.967c-4.18-4.252-8.292-8.45-12.223-12.479a2.9,2.9,0,0,1-1.02-2.05,3.1,3.1,0,0,1,1.05-2.058c.317-.332.643-.663.958-.984l.28-.286a3.173,3.173,0,0,1,2.2-1.233v0a3.251,3.251,0,0,1,2.248,1.267c.834.85,1.681,1.717,2.5,2.554q1.04,1.065,2.082,2.129a5.412,5.412,0,0,0,3.832,1.88,5.5,5.5,0,0,0,3.887-1.916c5.079-5.183,10.245-10.45,15.241-15.544l.045-.046a3.342,3.342,0,0,1,2.183-1.25,3.328,3.328,0,0,1,2.171,1.234c.144.146.3.294.443.437a12.5,12.5,0,0,1,1.106,1.173,5.56,5.56,0,0,1,.618,1.073c.08.167.163.339.256.513l.133.251-.147.243c-.1.168-.2.344-.285.514a4.6,4.6,0,0,1-.721,1.091C63.007,49.514,55.7,56.974,46.7,66.146A2.734,2.734,0,0,1,44.764,67.124ZM34.1,47.569v.5c-.4,0-.857.288-1.491.933l-.281.286c-.313.318-.636.647-.948.973-1.02,1.067-1.029,1.7-.038,2.718,3.93,4.028,8.041,8.226,12.22,12.476a1.8,1.8,0,0,0,1.207.668,1.822,1.822,0,0,0,1.221-.679c9-9.172,16.307-16.63,22.985-23.472a3.766,3.766,0,0,0,.554-.862c.055-.1.112-.21.172-.318-.051-.1-.1-.2-.146-.3a4.777,4.777,0,0,0-.5-.886,11.572,11.572,0,0,0-1.02-1.077c-.151-.147-.307-.3-.458-.452-.639-.648-1.089-.937-1.459-.937s-.825.293-1.469.95l-.045.046c-5,5.094-10.162,10.361-15.241,15.544a6.534,6.534,0,0,1-4.6,2.216,6.449,6.449,0,0,1-4.546-2.18q-1.043-1.064-2.083-2.13c-.818-.837-1.664-1.7-2.5-2.553-.656-.669-1.129-.967-1.534-.968ZM77.975,58.9a2.33,2.33,0,0,1-.792-.146c-1.194-.431-1.654-1.632-1.172-3.058a68.084,68.084,0,0,0,3.534-24.352,2.908,2.908,0,0,0-.719-2.138,1.985,1.985,0,0,1-.565-1.428,2.191,2.191,0,0,1,.683-1.525,2.249,2.249,0,0,1,1.539-.626,1.772,1.772,0,0,1,1.436.687,7.559,7.559,0,0,1,1.731,3.249,25.284,25.284,0,0,1,.11,4.164c-.016.561-.033,1.142-.033,1.707A66.3,66.3,0,0,1,80.1,57.087,2.315,2.315,0,0,1,77.975,58.9Zm2.507-32.273a1.258,1.258,0,0,0-.847.349,1.185,1.185,0,0,0-.375.822.978.978,0,0,0,.284.713,3.9,3.9,0,0,1,1,2.8,69.759,69.759,0,0,1-.662,12.518,69.275,69.275,0,0,1-2.924,12.191c-.179.531-.344,1.47.565,1.8a1.336,1.336,0,0,0,.452.086v0c.691,0,1.037-.712,1.181-1.136a65.3,65.3,0,0,0,3.571-21.329c0-.582.017-1.169.033-1.738a24.541,24.541,0,0,0-.1-4,6.852,6.852,0,0,0-1.531-2.774A.788.788,0,0,0,80.482,26.627ZM25.132,37.169l-.05-.005a2.25,2.25,0,0,1-2.114-1.955c-.424-1.977-.811-3.76-1.261-5.548a8.049,8.049,0,0,0-6.252-6.231c-1.806-.449-3.636-.857-5.344-1.232C8.19,21.777,7.964,20.614,8,19.958a2.273,2.273,0,0,1,2.061-2.136c2.145-.454,4.02-.894,5.732-1.346a7.674,7.674,0,0,0,5.8-5.778c.452-1.693.881-3.514,1.348-5.73a2.306,2.306,0,0,1,2.11-2.087c.055,0,.111-.006.165-.006.734,0,1.7.361,2.109,2.079.121.5.24,1.013.356,1.507.387,1.651.786,3.359,1.285,5A6.793,6.793,0,0,0,33.716,16.2c1.719.53,3.543,1,5.577,1.434,1.675.357,2.958.757,2.982,2.351.025,1.64-1.373,2.075-2.933,2.409-2.212.473-4.015.935-5.677,1.454a6.813,6.813,0,0,0-4.688,4.675c-.534,1.751-.954,3.579-1.361,5.347q-.157.68-.315,1.36a2.276,2.276,0,0,1-2.119,1.938Zm.081-33.295c-.031,0-.062,0-.094,0-.566.04-.987.276-1.2,1.3-.471,2.234-.9,4.071-1.361,5.781a9.093,9.093,0,0,1-2.32,4.179,9.126,9.126,0,0,1-4.186,2.308c-1.729.457-3.62.9-5.781,1.358-1.01.214-1.238.64-1.269,1.213-.014.248-.05.907,1.327,1.208,1.715.376,3.554.786,5.371,1.238a8.987,8.987,0,0,1,6.98,6.958c.453,1.8.843,3.6,1.268,5.583a1.191,1.191,0,0,0,2.382,0q.159-.677.314-1.356c.411-1.784.835-3.63,1.379-5.414a7.774,7.774,0,0,1,5.346-5.338c1.691-.529,3.524-1,5.766-1.478,2.007-.43,2.151-.84,2.143-1.416-.01-.628-.229-.969-2.191-1.388-2.063-.441-3.915-.917-5.663-1.457a7.838,7.838,0,0,1-5.416-5.4c-.508-1.67-.912-3.394-1.3-5.061-.115-.493-.235-1-.355-1.5C26.034,3.875,25.437,3.875,25.213,3.875Zm-.056,25.432-.486-1.413A11.075,11.075,0,0,0,17.316,20.5l-1.366-.468,1.364-.477a11.047,11.047,0,0,0,7.339-7.375l.468-1.389.478,1.386a10.989,10.989,0,0,0,7.351,7.342l1.368.461-1.36.484a11.021,11.021,0,0,0-7.338,7.423ZM18.85,20.022a11.644,11.644,0,0,1,6.284,6.3,11.765,11.765,0,0,1,2.541-3.812A12.331,12.331,0,0,1,31.417,20a11.9,11.9,0,0,1-3.776-2.527,12.106,12.106,0,0,1-2.511-3.75A11.958,11.958,0,0,1,22.6,17.5,12.2,12.2,0,0,1,18.85,20.022Zm54.3,7.511h0a2.277,2.277,0,0,1-.543-.068,19.775,19.775,0,0,1-2.923-.972,2,2,0,0,1-1.238-2.44,2.193,2.193,0,0,1,2.439-1.662h.087l.082.029c.233.083.492.168.767.258a19.162,19.162,0,0,1,2.313.875,1.938,1.938,0,0,1,.89,2.615,2.01,2.01,0,0,1-1.874,1.364ZM70.8,23.393c-.97.021-1.258.375-1.385.9a1.012,1.012,0,0,0,.653,1.28,18.775,18.775,0,0,0,2.775.923,1.278,1.278,0,0,0,.3.039h0A1.023,1.023,0,0,0,74.1,25.8a.99.99,0,0,0-.392-1.342,18.379,18.379,0,0,0-2.194-.827C71.262,23.548,71.025,23.471,70.8,23.393Zm-7.455.491h0A2.918,2.918,0,0,1,62,23.523c-4.384-2.288-8.937-4.7-13.919-7.386l-.06-.032a3.19,3.19,0,0,0-1.461-.524,1.74,1.74,0,0,0-.513.081,2.074,2.074,0,0,1-.6.092A2.12,2.12,0,0,1,43.426,14.1a2.15,2.15,0,0,1,1.456-2.545,9.756,9.756,0,0,1,1.263-.327c.23-.049.468-.1.734-.163l.153-.036.146.058c.22.087.466.169.725.256a8.948,8.948,0,0,1,1.947.836,105.017,105.017,0,0,0,13.934,7.4,2.718,2.718,0,0,1,1.537,1.427,2.052,2.052,0,0,1-.064,1.6A2.024,2.024,0,0,1,63.349,23.884Zm-16.79-9.3a4.027,4.027,0,0,1,1.937.645l.059.032c4.977,2.679,9.526,5.093,13.907,7.379a1.938,1.938,0,0,0,.887.248,1.036,1.036,0,0,0,.994-.676,1.062,1.062,0,0,0,.048-.835,1.764,1.764,0,0,0-1-.875,106.022,106.022,0,0,1-14.068-7.475,8.062,8.062,0,0,0-1.733-.735c-.218-.073-.426-.143-.626-.217-.219.05-.422.094-.606.133a8.928,8.928,0,0,0-1.135.29,1.154,1.154,0,0,0-.823,1.359,1.123,1.123,0,0,0,1.046.9,1.075,1.075,0,0,0,.313-.048A2.724,2.724,0,0,1,46.559,14.58Z" transform="translate(-1638 2049)"/></g></svg>